<svg width="430" height="125" viewBox="0 0 430 125" fill="none" xmlns="http://www.w3.org/2000/svg">
<g clip-path="url(#clip0_160_2228)">
<path d="M109.654 20.3346C109.381 17.846 107.143 16.0498 104.655 16.3227C102.168 16.595 100.372 18.8331 100.644 21.3211C100.916 23.8086 103.154 25.6034 105.641 25.3331C108.13 25.0602 109.925 22.8216 109.654 20.3346Z" fill="white"/>
<path d="M117.231 4.69602C117.792 3.48309 117.265 2.04655 116.053 1.48402C114.841 0.921616 113.403 1.44815 112.84 2.65962C112.277 3.87268 112.805 5.31015 114.018 5.87362C115.229 6.43455 116.668 5.90749 117.231 4.69602Z" fill="white"/>
<path d="M51.8229 17.7247C51.5271 15.0189 53.4828 12.584 56.1875 12.2878C58.8932 11.9924 61.3281 13.9465 61.624 16.6528C61.9203 19.3585 59.9661 21.793 57.2604 22.0898C54.5547 22.3862 52.1197 20.4304 51.8229 17.7247Z" fill="white"/>
<path d="M52.9068 10.2929C52.7817 9.16015 51.7661 8.34454 50.6355 8.46948C49.5047 8.59401 48.686 9.61014 48.8094 10.7403C48.9344 11.8736 49.9511 12.6908 51.0834 12.5673C52.2156 12.4424 53.0312 11.4247 52.9068 10.2929Z" fill="white"/>
<path d="M100.896 30.0164C100.663 27.8804 98.7412 26.3372 96.6041 26.5706C94.4688 26.8044 92.9255 28.7263 93.1588 30.8638C93.3932 32.9998 95.314 34.5419 97.4521 34.307C99.5869 34.0736 101.13 32.1528 100.896 30.0164Z" fill="white"/>
<path d="M90.4713 35.081C91.2552 33.3919 90.5208 31.3862 88.8317 30.6023C87.1407 29.8184 85.1364 30.5528 84.3527 32.2435C83.5693 33.932 84.3031 35.9383 85.9921 36.7222C87.6839 37.506 89.6891 36.7716 90.4713 35.081Z" fill="white"/>
<path d="M110.48 26.5533C110.372 25.5569 111.092 24.6601 112.089 24.5503C113.086 24.4408 113.982 25.1616 114.091 26.1596C114.2 27.1544 113.481 28.0507 112.482 28.1612C111.486 28.2695 110.591 27.5497 110.48 26.5533Z" fill="white"/>
<path d="M95.6771 14.6919C95.5677 13.6955 96.2875 12.7976 97.2823 12.6883C98.2812 12.5794 99.1771 13.3003 99.2875 14.2982C99.3973 15.293 98.6755 16.1903 97.6787 16.2998C96.6807 16.408 95.7855 15.6888 95.6771 14.6919Z" fill="white"/>
<path d="M88.7084 10.5492C88.5531 9.12468 89.5817 7.84241 91.0052 7.68614C92.4307 7.53094 93.7125 8.56121 93.8672 9.98401C94.0235 11.4096 92.9964 12.6903 91.5703 12.8449C90.1459 13.0012 88.8645 11.9727 88.7084 10.5492Z" fill="white"/>
<path d="M81.4693 7.87735C80.338 6.39455 80.6219 4.27681 82.1021 3.14921C83.5828 2.01641 85.6984 2.29975 86.8287 3.77935C87.9588 5.26122 87.6765 7.37828 86.1959 8.50855C84.7183 9.63881 82.5995 9.35495 81.4693 7.87735Z" fill="white"/>
<path d="M71.0921 4.49548C70.8828 2.58095 72.264 0.857487 74.1803 0.648154C76.0959 0.43882 77.8177 1.82109 78.0281 3.73669C78.2375 5.65122 76.8563 7.37469 74.9391 7.58202C73.024 7.79242 71.3016 6.40962 71.0921 4.49548Z" fill="white"/>
<path d="M65.6453 12.0315L65.8615 11.9555C68.064 11.1132 69.2287 8.67827 68.4541 6.52467C67.7052 4.44814 65.4255 3.36481 63.2625 4.06268L63.0552 4.13561C60.8521 4.97628 59.6855 7.41214 60.4625 9.56588C61.2079 11.6507 63.4849 12.7304 65.6453 12.0315Z" fill="white"/>
<path d="M44.0235 26.2788C43.7735 24.0007 45.4193 21.9503 47.6969 21.7018C49.9765 21.4518 52.026 23.0971 52.2751 25.3763C52.5235 27.6544 50.8792 29.7039 48.6005 29.9523C46.3213 30.2023 44.2724 28.5575 44.0235 26.2788Z" fill="white"/>
<path d="M35.4505 28.6231C35.2683 26.9736 36.4615 25.4862 38.1115 25.305C39.764 25.1258 41.2495 26.319 41.4292 27.969C41.6099 29.6211 40.4193 31.1055 38.7672 31.2867C37.1151 31.467 35.6303 30.2752 35.4505 28.6231Z" fill="white"/>
<path d="M46.9114 6.48976C46.724 4.77936 45.1874 3.54656 43.4765 3.73309C41.7672 3.92003 40.5338 5.45803 40.7197 7.16643C40.9078 8.87363 42.4453 10.1096 44.1546 9.92269C45.8636 9.73309 47.0989 8.19763 46.9114 6.48976Z" fill="white"/>
<path d="M38.2973 7.77882C38.088 5.85642 36.3573 4.46842 34.4355 4.67829C32.5125 4.88936 31.1245 6.61842 31.3339 8.54029C31.5443 10.4632 33.2735 11.8544 35.1973 11.643C37.1197 11.431 38.5073 9.70122 38.2973 7.77882Z" fill="white"/>
<path d="M114.143 10.7241C113.924 8.72161 112.122 7.27361 110.118 7.49295C108.115 7.71161 106.668 9.51588 106.886 11.5195C107.105 13.5216 108.908 14.9673 110.913 14.7487C112.915 14.5299 114.363 12.7273 114.143 10.7241Z" fill="white"/>
<path d="M81.5973 30.558C81.4427 29.1336 80.1615 28.1064 78.738 28.2627C77.3125 28.4174 76.2855 29.6981 76.4402 31.1221C76.5964 32.5476 77.876 33.5763 79.3021 33.42C80.7265 33.2638 81.7536 31.9831 81.5973 30.558Z" fill="white"/>
<path d="M73.9792 26.682C73.8541 25.5408 72.8297 24.7216 71.6917 24.845C70.5521 24.9695 69.7281 25.9945 69.8527 27.134C69.9781 28.2721 71.0027 29.0946 72.1417 28.9711C73.2823 28.8446 74.1041 27.8211 73.9792 26.682Z" fill="white"/>
<path d="M67.3984 21.5169C67.3046 20.6601 66.5354 20.0449 65.6806 20.1388C64.8265 20.232 64.2084 20.9998 64.303 21.855C64.3973 22.7091 65.165 23.3263 66.0193 23.2331C66.875 23.1403 67.4912 22.3689 67.3984 21.5169Z" fill="white"/>
<path d="M23.1755 23.6632L26.747 26.5107V108.167C26.5694 116.862 16.8522 124.253 9.45423 124.253C7.22818 124.253 4.9985 124.157 3.2162 122.858C0.367765 120.759 -0.081193 117.261 0.0104736 113.562C0.275578 104.667 9.63131 97.7763 17.2995 97.4722C19.1631 97.3914 21.0318 97.5159 23.2079 98.7325C23.6323 98.9695 23.1755 23.6632 23.1755 23.6632Z" fill="white"/>
<path d="M30.8021 14.0575C30.5604 11.8539 28.5797 10.2706 26.3807 10.5091C24.1803 10.7498 22.588 12.7294 22.8297 14.932C23.0708 17.1299 25.05 18.719 27.2516 18.4799C29.4536 18.2356 31.0437 16.2586 30.8021 14.0575Z" fill="white"/>
<path d="M116.236 28.7774C116.081 27.3528 117.11 26.0711 118.533 25.9148C119.959 25.7591 121.24 26.7898 121.395 28.2122C121.552 29.6383 120.524 30.919 119.098 31.0736C117.674 31.2299 116.393 30.2012 116.236 28.7774Z" fill="white"/>
<path d="M55.6557 93.9383C56.3145 94.0326 57.1959 94.1154 58.3021 94.1846C59.4057 94.2555 60.5708 94.293 61.7943 94.293C63.6281 94.293 65.4276 94.1274 67.1917 93.7971C68.9557 93.4674 70.5183 92.905 71.8833 92.1028C73.2464 91.305 74.3412 90.245 75.1636 88.9299C75.9864 87.6127 76.3989 85.9664 76.3989 83.9903C76.3989 82.0159 76.0464 80.357 75.3401 79.017C74.6349 77.6747 73.6697 76.5831 72.4473 75.7356C71.2245 74.8888 69.7896 74.2783 68.1432 73.9018C66.4969 73.5247 64.7328 73.3383 62.8521 73.3383H55.6557V93.9383ZM62.3584 68.7507C66.1688 68.7507 68.9557 67.9044 70.7188 66.2112C72.4828 64.5179 73.3645 62.3075 73.3645 59.5788C73.3645 57.0388 72.4355 54.9122 70.5781 53.195C68.7193 51.4779 65.7917 50.6179 61.7943 50.6179C60.5708 50.6179 59.4057 50.6664 58.3021 50.7602C57.1959 50.8544 56.3145 50.9482 55.6557 51.0429V68.7507H62.3584ZM50.7875 47.1612C51.2579 47.1154 51.9276 47.0445 52.7989 46.9507C53.6683 46.8564 54.5973 46.7616 55.5855 46.6673C56.5729 46.5736 57.5713 46.5039 58.5839 46.4555C59.5953 46.4096 60.5 46.3861 61.3 46.3861C66.8495 46.3861 71.1073 47.456 74.0703 49.596C77.0339 51.7362 78.5151 55.0638 78.5151 59.5788C78.5151 61.0372 78.2912 62.3659 77.8443 63.5653C77.3979 64.7654 76.7973 65.8471 76.0464 66.8112C75.2927 67.7752 74.4115 68.5867 73.3995 69.245C72.388 69.9044 71.3417 70.3976 70.2604 70.7263C71.7177 70.9148 73.1292 71.3028 74.4943 71.8908C75.8573 72.4794 77.0693 73.3018 78.1271 74.3602C79.1855 75.4179 80.0317 76.7362 80.6672 78.3102C81.3016 79.8867 81.6193 81.7815 81.6193 83.9903C81.6193 86.5288 81.1136 88.7195 80.1027 90.5507C79.0907 92.3862 77.6797 93.9154 75.8697 95.1378C74.0584 96.3627 71.9188 97.2679 69.4489 97.8544C66.9797 98.443 64.2864 98.7362 61.3703 98.7362C60.6188 98.7362 59.7708 98.7116 58.8303 98.6648C57.8901 98.619 56.9375 98.5602 55.974 98.4883C55.0088 98.4195 54.0683 98.3227 53.1511 98.2055C52.2344 98.0894 51.4453 97.9826 50.7875 97.8883V47.1612Z" fill="white"/>
<path d="M88.1093 53.0883C88.0625 52.6648 88.0271 52.1471 88.0036 51.5356C87.9792 50.9252 87.9688 50.4075 87.9688 49.9831C87.9688 49.6075 87.9792 49.1378 88.0036 48.5727C88.0271 48.008 88.0625 47.5388 88.1093 47.1612C88.5323 47.1154 89.05 47.0799 89.662 47.0555C90.2729 47.0325 90.7907 47.0211 91.2136 47.0211C91.5907 47.0211 92.0599 47.0325 92.6251 47.0555C93.1896 47.0799 93.6588 47.1154 94.0364 47.1612C94.0828 47.5388 94.1172 48.008 94.1427 48.5727C94.1645 49.1378 94.1771 49.6075 94.1771 49.9831C94.1771 50.4075 94.1645 50.9252 94.1427 51.5356C94.1172 52.1471 94.0828 52.6648 94.0364 53.0883C93.6588 53.1356 93.1896 53.1706 92.6251 53.195C92.0599 53.2184 91.5907 53.2288 91.2136 53.2288C90.7907 53.2288 90.2729 53.2184 89.662 53.195C89.05 53.1706 88.5323 53.1356 88.1093 53.0883ZM90.4375 65.8575H85.9219C85.8745 65.6236 85.8391 65.3414 85.8172 65.0127C85.7927 64.6831 85.7812 64.3299 85.7812 63.9533C85.7812 63.5779 85.7927 63.2012 85.8172 62.8242C85.8391 62.4481 85.8745 62.1429 85.9219 61.9064H95.0942V97.8883C94.8125 97.9345 94.4245 97.9721 93.9303 97.9949C93.4355 98.0179 93.0479 98.0315 92.7661 98.0315C92.5303 98.0315 92.1541 98.0179 91.6375 97.9949C91.1188 97.9721 90.7193 97.9345 90.4375 97.8883V65.8575Z" fill="white"/>
<path d="M118.518 94.643C122.281 94.643 125.091 93.3279 126.948 90.6935C128.806 88.0596 129.735 84.4612 129.735 79.8987C129.735 75.3367 128.806 71.7394 126.948 69.1034C125.091 66.47 122.281 65.1528 118.518 65.1528C114.755 65.1528 111.945 66.47 110.086 69.1034C108.227 71.7394 107.3 75.3367 107.3 79.8987C107.3 84.4612 108.227 88.0596 110.086 90.6935C111.945 93.3279 114.755 94.643 118.518 94.643ZM118.518 98.7362C115.836 98.7362 113.485 98.255 111.463 97.2898C109.439 96.3268 107.758 94.9982 106.418 93.3028C105.078 91.6096 104.078 89.6122 103.419 87.3055C102.76 85.0034 102.432 82.5326 102.432 79.8987C102.432 77.2654 102.76 74.795 103.419 72.4898C104.078 70.1856 105.078 68.1867 106.418 66.493C107.758 64.7992 109.439 63.4716 111.463 62.5075C113.485 61.544 115.836 61.0607 118.518 61.0607C121.199 61.0607 123.539 61.544 125.537 62.5075C127.536 63.4716 129.207 64.7992 130.547 66.493C131.887 68.1867 132.899 70.1856 133.581 72.4898C134.263 74.795 134.604 77.2654 134.604 79.8987C134.604 82.5326 134.263 85.0034 133.581 87.3055C132.899 89.6122 131.887 91.6096 130.547 93.3028C129.207 94.9982 127.536 96.3268 125.537 97.2898C123.539 98.255 121.199 98.7362 118.518 98.7362Z" fill="white"/>
<path d="M165.788 93.3731C166.023 93.8446 166.247 94.482 166.459 95.2799C166.669 96.0794 166.823 96.7383 166.917 97.255C165.74 97.6779 164.4 98.0315 162.896 98.3143C161.389 98.5946 159.721 98.7362 157.885 98.7362C152.005 98.7362 147.537 97.1263 144.48 93.9039C141.423 90.682 139.895 86.0138 139.895 79.8987C139.895 77.2174 140.271 74.7362 141.024 72.4555C141.775 70.1742 142.881 68.1867 144.339 66.493C145.797 64.7992 147.62 63.4716 149.808 62.5075C151.995 61.544 154.523 61.0607 157.392 61.0607C159.179 61.0607 160.885 61.1908 162.507 61.4487C164.129 61.7085 165.411 62.0023 166.353 62.3299C166.353 62.9419 166.269 63.6476 166.105 64.4466C165.94 65.2476 165.764 65.8826 165.576 66.3523C164.635 66.0231 163.447 65.7413 162.013 65.506C160.579 65.2711 159.039 65.1528 157.392 65.1528C155.276 65.1528 153.429 65.5179 151.853 66.246C150.277 66.9763 148.961 67.9998 147.903 69.3159C146.844 70.6325 146.056 72.1845 145.539 73.9722C145.021 75.7602 144.763 77.7346 144.763 79.8987C144.763 84.9774 145.973 88.707 148.396 91.081C150.819 93.457 154.1 94.643 158.239 94.643C159.649 94.643 161.001 94.5268 162.296 94.293C163.588 94.0555 164.752 93.7507 165.788 93.3731Z" fill="white"/>
<path d="M185.756 94.643C189.517 94.643 192.328 93.3279 194.187 90.6935C196.044 88.0596 196.972 84.4612 196.972 79.8987C196.972 75.3367 196.044 71.7394 194.187 69.1034C192.328 66.47 189.517 65.1528 185.756 65.1528C181.991 65.1528 179.181 66.47 177.324 69.1034C175.465 71.7394 174.537 75.3367 174.537 79.8987C174.537 84.4612 175.465 88.0596 177.324 90.6935C179.181 93.3279 181.991 94.643 185.756 94.643ZM185.756 98.7362C183.073 98.7362 180.721 98.255 178.7 97.2898C176.676 96.3268 174.996 94.9982 173.655 93.3028C172.315 91.6096 171.315 89.6122 170.656 87.3055C169.997 85.0034 169.668 82.5326 169.668 79.8987C169.668 77.2654 169.997 74.795 170.656 72.4898C171.315 70.1856 172.315 68.1867 173.655 66.493C174.996 64.7992 176.676 63.4716 178.7 62.5075C180.721 61.544 183.073 61.0607 185.756 61.0607C188.436 61.0607 190.775 61.544 192.775 62.5075C194.775 63.4716 196.444 64.7992 197.784 66.493C199.124 68.1867 200.136 70.1856 200.817 72.4898C201.5 74.795 201.841 77.2654 201.841 79.8987C201.841 82.5326 201.5 85.0034 200.817 87.3055C200.136 89.6122 199.124 91.6096 197.784 93.3028C196.444 94.9982 194.775 96.3268 192.775 97.2898C190.775 98.255 188.436 98.7362 185.756 98.7362Z" fill="white"/>
<path d="M207.844 61.9064C208.22 61.8607 208.585 61.8257 208.939 61.8018C209.291 61.7794 209.632 61.7664 209.961 61.7664C210.337 61.7664 210.691 61.7794 211.02 61.8018C211.347 61.8257 211.7 61.8607 212.077 61.9064C212.171 62.7549 212.241 63.8121 212.289 65.082C212.336 66.3523 212.36 67.4575 212.36 68.3987C212.829 67.5523 213.441 66.694 214.195 65.8227C214.947 64.9523 215.829 64.1643 216.84 63.4596C217.851 62.7549 219.015 62.1783 220.333 61.7309C221.648 61.284 223.083 61.0607 224.636 61.0607C228.776 61.0607 231.785 62.2949 233.667 64.7653C235.549 67.2345 236.491 70.7033 236.491 75.1716V97.8883C236.208 97.9345 235.819 97.9721 235.327 97.9949C234.832 98.0179 234.444 98.0315 234.161 98.0315C233.925 98.0315 233.551 98.0179 233.032 97.9949C232.513 97.9721 232.113 97.9345 231.833 97.8883V76.5831C231.833 72.5845 231.209 69.7159 229.963 67.9747C228.717 66.2356 226.845 65.3637 224.355 65.3637C222.708 65.3637 221.155 65.6935 219.697 66.3523C218.239 67.0107 216.981 67.9637 215.924 69.2091C214.864 70.4564 214.029 71.996 213.419 73.8309C212.807 75.6653 212.501 77.7585 212.501 80.1101V97.8883C212.22 97.9345 211.832 97.9721 211.336 97.9949C210.843 98.0179 210.455 98.0315 210.172 98.0315C209.937 98.0315 209.561 98.0179 209.044 97.9949C208.527 97.9721 208.127 97.9345 207.844 97.8883V61.9064Z" fill="white"/>
<path d="M269.367 66.7044C268.425 66.3283 267.225 65.9883 265.767 65.682C264.309 65.3758 262.804 65.2242 261.252 65.2242C259.041 65.2242 257.125 65.6003 255.5 66.3523C253.881 67.105 252.525 68.1512 251.444 69.4914C250.364 70.8331 249.552 72.4435 249.009 74.3247C248.468 76.2064 248.2 78.2752 248.2 80.534C248.2 85.4252 249.365 88.9903 251.691 91.2216C254.02 93.457 257.325 94.5727 261.605 94.5727C263.157 94.5727 264.64 94.4924 266.049 94.3263C267.46 94.1622 268.565 93.9607 269.367 93.7279V66.7044ZM269.367 46.032C269.649 45.9862 270.047 45.9512 270.563 45.9274C271.083 45.9044 271.459 45.8914 271.695 45.8914C271.976 45.8914 272.363 45.9044 272.856 45.9274C273.351 45.9512 273.739 45.9862 274.021 46.032V97.045C272.563 97.5143 270.753 97.9122 268.589 98.243C266.427 98.5706 264.168 98.7362 261.817 98.7362C259.228 98.7362 256.808 98.4294 254.551 97.8195C252.292 97.2086 250.337 96.1966 248.693 94.7867C247.047 93.3731 245.74 91.5154 244.777 89.2132C243.813 86.906 243.332 84.0622 243.332 80.6747C243.332 77.5695 243.753 74.808 244.601 72.3851C245.448 69.9622 246.648 67.917 248.2 66.246C249.753 64.5768 251.621 63.2955 253.809 62.4007C255.996 61.5075 258.405 61.0607 261.04 61.0607C262.593 61.0607 264.132 61.1908 265.663 61.4487C267.189 61.7086 268.425 62.0023 269.367 62.3299V46.032Z" fill="white"/>
<path d="M281.948 61.9064C282.228 61.8607 282.631 61.8258 283.147 61.8018C283.665 61.7794 284.04 61.7664 284.276 61.7664C284.559 61.7664 284.947 61.7794 285.441 61.8018C285.936 61.8258 286.323 61.8607 286.607 61.9064V82.156C286.607 84.696 286.863 86.7774 287.381 88.3992C287.897 90.0236 288.661 91.293 289.673 92.2096C290.684 93.1279 291.919 93.7616 293.377 94.1154C294.833 94.467 296.484 94.643 298.316 94.643C299.868 94.643 301.256 94.5638 302.48 94.3976C303.701 94.2326 304.783 94.0102 305.724 93.7279V61.9064C306.007 61.8607 306.407 61.8258 306.924 61.8018C307.44 61.7794 307.819 61.7664 308.055 61.7664C308.336 61.7664 308.723 61.7794 309.219 61.8018C309.711 61.8258 310.101 61.8607 310.381 61.9064V96.9727C308.639 97.444 306.701 97.8544 304.56 98.2055C302.42 98.5602 300.223 98.7362 297.964 98.7362C295.751 98.7362 293.672 98.5252 291.721 98.1003C289.768 97.6779 288.076 96.8659 286.64 95.6674C285.203 94.467 284.063 92.8096 283.219 90.6935C282.372 88.5758 281.948 85.8258 281.948 82.4388V61.9064Z" fill="white"/>
<path d="M343.769 93.3731C344.004 93.8446 344.227 94.482 344.44 95.2799C344.649 96.0794 344.803 96.7383 344.897 97.255C343.721 97.6779 342.381 98.0315 340.877 98.3143C339.371 98.5946 337.701 98.7362 335.867 98.7362C329.987 98.7362 325.519 97.1263 322.461 93.9039C319.404 90.682 317.876 86.0138 317.876 79.8987C317.876 77.2174 318.252 74.7362 319.004 72.4555C319.756 70.1742 320.864 68.1867 322.323 66.493C323.777 64.7992 325.603 63.4716 327.787 62.5075C329.977 61.544 332.503 61.0607 335.373 61.0607C337.16 61.0607 338.864 61.1908 340.489 61.4487C342.111 61.7085 343.391 62.0023 344.333 62.3299C344.333 62.9419 344.251 63.6476 344.088 64.4466C343.921 65.2476 343.745 65.8826 343.556 66.3523C342.615 66.0231 341.427 65.7413 339.995 65.506C338.559 65.2711 337.017 65.1528 335.373 65.1528C333.256 65.1528 331.409 65.5179 329.833 66.246C328.259 66.9763 326.944 67.9998 325.884 69.3159C324.825 70.6325 324.037 72.1845 323.519 73.9722C323.001 75.7602 322.744 77.7346 322.744 79.8987C322.744 84.9774 323.953 88.707 326.377 91.081C328.801 93.457 332.081 94.643 336.22 94.643C337.632 94.643 338.981 94.5268 340.277 94.293C341.569 94.0555 342.735 93.7507 343.769 93.3731Z" fill="white"/>
<path d="M355.904 65.8575H349.768C349.72 65.6236 349.684 65.3184 349.659 64.9408C349.635 64.5654 349.624 64.1898 349.624 63.8122C349.624 63.4356 349.635 63.084 349.659 62.755C349.684 62.4252 349.72 62.143 349.768 61.9064H355.904V55.134L360.277 50.8299H360.561V61.9064H370.296C370.343 62.143 370.379 62.4252 370.401 62.755C370.425 63.084 370.437 63.4356 370.437 63.8122C370.437 64.1898 370.425 64.5654 370.401 64.9408C370.379 65.3184 370.343 65.6236 370.296 65.8575H360.561V89.282C360.561 90.4591 360.712 91.3878 361.017 92.0684C361.323 92.7507 361.725 93.2783 362.22 93.6564C362.715 94.0326 363.276 94.2804 363.911 94.3976C364.545 94.5143 365.193 94.5727 365.852 94.5727C367.497 94.5727 368.933 94.3607 370.156 93.9383C370.485 95.1627 370.719 96.4788 370.861 97.8883C369.169 98.407 367.192 98.6648 364.933 98.6648C362.253 98.6648 360.076 97.9487 358.409 96.5132C356.739 95.0794 355.904 92.7398 355.904 89.495V65.8575Z" fill="white"/>
<path d="M389.204 94.643C392.967 94.643 395.776 93.3279 397.633 90.6935C399.492 88.0596 400.421 84.4612 400.421 79.8987C400.421 75.3367 399.492 71.7394 397.633 69.1034C395.776 66.47 392.967 65.1528 389.204 65.1528C385.44 65.1528 382.629 66.47 380.772 69.1034C378.913 71.7394 377.985 75.3367 377.985 79.8987C377.985 84.4612 378.913 88.0596 380.772 90.6935C382.629 93.3279 385.44 94.643 389.204 94.643ZM389.204 98.7362C386.523 98.7362 384.171 98.255 382.149 97.2898C380.127 96.3268 378.444 94.9982 377.104 93.3028C375.764 91.6096 374.764 89.6122 374.104 87.3055C373.444 85.0034 373.116 82.5326 373.116 79.8987C373.116 77.2654 373.444 74.795 374.104 72.4898C374.764 70.1856 375.764 68.1867 377.104 66.493C378.444 64.7992 380.127 63.4716 382.149 62.5075C384.171 61.544 386.523 61.0607 389.204 61.0607C391.885 61.0607 394.223 61.544 396.223 62.5075C398.223 63.4716 399.891 64.7992 401.233 66.493C402.572 68.1867 403.585 70.1856 404.268 72.4898C404.949 74.795 405.292 77.2654 405.292 79.8987C405.292 82.5326 404.949 85.0034 404.268 87.3055C403.585 89.6122 402.572 91.6096 401.233 93.3028C399.891 94.9982 398.223 96.3268 396.223 97.2898C394.223 98.255 391.885 98.7362 389.204 98.7362Z" fill="white"/>
<path d="M412.627 61.9064C413.003 61.8607 413.369 61.8257 413.719 61.8017C414.073 61.7793 414.413 61.7664 414.743 61.7664C415.119 61.7664 415.473 61.7793 415.803 61.8017C416.131 61.8257 416.483 61.8607 416.86 61.9064C416.953 62.7549 417.024 63.7533 417.071 64.9064C417.117 66.0585 417.141 67.1049 417.141 68.0455C418.084 66.306 419.399 64.8356 421.095 63.6367C422.787 62.4367 425.019 61.8361 427.795 61.8361C428.031 61.8361 428.279 61.8361 428.535 61.8361C428.795 61.8361 429.091 61.8607 429.417 61.9064C429.559 62.7075 429.631 63.4596 429.631 64.1643C429.631 64.9179 429.559 65.6471 429.417 66.3523C429.04 66.306 428.751 66.282 428.535 66.282C428.324 66.282 428.1 66.282 427.868 66.282C424.668 66.282 422.105 67.2924 420.176 69.3159C418.247 71.3388 417.284 74.7017 417.284 79.4049V97.8883C417.001 97.9345 416.613 97.9721 416.119 97.9949C415.625 98.0179 415.237 98.0315 414.955 98.0315C414.719 98.0315 414.341 98.0179 413.827 97.9949C413.308 97.9721 412.908 97.9345 412.627 97.8883V61.9064Z" fill="white"/>
<path d="M54.1792 119.61C54.6828 119.61 55.1188 119.514 55.4864 119.316C55.8546 119.121 56.1593 118.836 56.401 118.462C56.6437 118.088 56.825 117.64 56.9453 117.115C57.0672 116.592 57.1276 115.998 57.1276 115.331C57.1276 114.675 57.0672 114.084 56.9453 113.555C56.825 113.024 56.6437 112.576 56.401 112.209C56.1593 111.839 55.8546 111.558 55.4864 111.36C55.1188 111.165 54.6828 111.067 54.1792 111.067C53.6745 111.067 53.239 111.165 52.8702 111.36C52.5026 111.558 52.1978 111.839 51.9557 112.209C51.7136 112.576 51.5317 113.024 51.4114 113.555C51.2906 114.084 51.2306 114.675 51.2306 115.331C51.2306 115.998 51.2906 116.592 51.4114 117.115C51.5317 117.64 51.7136 118.088 51.9557 118.462C52.1978 118.836 52.5026 119.121 52.8702 119.316C53.239 119.514 53.6745 119.61 54.1792 119.61ZM54.1792 120.941C53.3917 120.941 52.713 120.803 52.1374 120.525C51.5625 120.248 51.0864 119.86 50.7084 119.362C50.3297 118.862 50.0478 118.269 49.8614 117.584C49.6745 116.899 49.5812 116.147 49.5812 115.331C49.5812 114.515 49.6745 113.764 49.8614 113.079C50.0478 112.391 50.3297 111.8 50.7084 111.3C51.0864 110.803 51.5625 110.412 52.1374 110.128C52.713 109.847 53.3917 109.706 54.1792 109.706C54.9656 109.706 55.6453 109.847 56.2197 110.128C56.7948 110.412 57.2713 110.803 57.6494 111.3C58.027 111.8 58.3078 112.391 58.489 113.079C58.6697 113.764 58.7609 114.515 58.7609 115.331C58.7609 116.147 58.6697 116.899 58.489 117.584C58.3078 118.269 58.027 118.862 57.6494 119.362C57.2713 119.86 56.7948 120.248 56.2197 120.525C55.6453 120.803 54.9656 120.941 54.1792 120.941Z" fill="white"/>
<path d="M63.6902 115.483C63.8516 115.503 63.9932 115.518 64.1146 115.528C64.235 115.537 64.4115 115.542 64.6432 115.542C64.9558 115.542 65.2656 115.511 65.5735 115.445C65.8807 115.38 66.1547 115.261 66.3984 115.089C66.6386 114.917 66.8334 114.683 66.9792 114.385C67.1255 114.089 67.199 113.704 67.199 113.23C67.199 112.816 67.136 112.468 67.0099 112.186C66.8834 111.903 66.7104 111.677 66.488 111.505C66.2662 111.334 65.9995 111.213 65.687 111.141C65.3746 111.073 65.036 111.036 64.674 111.036C64.3 111.036 63.9735 111.053 63.6902 111.081V115.483ZM62.1479 109.873C62.3 109.852 62.4787 109.831 62.685 109.812C62.8912 109.792 63.1088 109.774 63.3355 109.759C63.5626 109.743 63.7891 109.731 64.0156 109.721C64.2427 109.712 64.4615 109.706 64.674 109.706C65.2271 109.706 65.7552 109.761 66.2531 109.873C66.7527 109.984 67.1918 110.175 67.5698 110.447C67.9479 110.719 68.2474 111.079 68.4688 111.528C68.6902 111.977 68.8027 112.539 68.8027 113.214C68.8027 113.92 68.6839 114.506 68.4459 114.977C68.2104 115.445 67.8979 115.821 67.5088 116.102C67.1203 116.385 66.6803 116.584 66.1855 116.7C65.6918 116.816 65.1875 116.873 64.674 116.873C64.4818 116.873 64.3126 116.871 64.1672 116.868C64.0203 116.862 63.8626 116.849 63.6902 116.829V120.76C63.4484 120.791 63.1922 120.805 62.9194 120.805C62.799 120.805 62.6698 120.803 62.5344 120.798C62.3979 120.792 62.2694 120.779 62.1479 120.76V109.873Z" fill="white"/>
<path d="M71.8412 109.886H77.8145C77.8443 110.089 77.8598 110.311 77.8598 110.553C77.8598 110.665 77.8573 110.779 77.8521 110.901C77.8469 111.022 77.8349 111.134 77.8145 111.234H73.3833V114.349H76.9219C76.9421 114.449 76.9573 114.558 76.9677 114.673C76.977 114.79 76.9823 114.902 76.9823 115.014C76.9823 115.124 76.977 115.24 76.9677 115.362C76.9573 115.483 76.9421 115.594 76.9219 115.696H73.3833V119.415H77.9349C77.9656 119.615 77.9812 119.837 77.9812 120.079C77.9812 120.191 77.9786 120.307 77.974 120.428C77.9677 120.548 77.9557 120.66 77.9349 120.76H71.8412V109.886Z" fill="white"/>
<path d="M81.0807 109.886C81.1921 109.867 81.3099 109.852 81.436 109.842C81.562 109.831 81.6807 109.826 81.7917 109.826C81.9027 109.826 82.0213 109.831 82.1473 109.842C82.2729 109.852 82.3912 109.867 82.5027 109.886L87.236 118.053V109.886C87.3573 109.867 87.4823 109.852 87.6145 109.842C87.7448 109.831 87.876 109.826 88.0068 109.826C88.1172 109.826 88.2328 109.831 88.3541 109.842C88.476 109.852 88.5917 109.867 88.7031 109.886V120.76C88.5917 120.779 88.4735 120.795 88.3469 120.805C88.2208 120.816 88.1027 120.821 87.9917 120.821C87.8807 120.821 87.7625 120.816 87.6364 120.805C87.5099 120.795 87.3917 120.779 87.2812 120.76L82.5323 112.639V120.76C82.4224 120.779 82.3031 120.795 82.1776 120.805C82.0511 120.816 81.9276 120.821 81.8068 120.821C81.6755 120.821 81.5473 120.816 81.4203 120.805C81.2948 120.795 81.1817 120.779 81.0807 120.76V109.886Z" fill="white"/>
<path d="M96.9437 119.112C97.2771 119.233 97.6245 119.339 97.9869 119.43C98.3495 119.519 98.7937 119.566 99.3177 119.566C100.144 119.566 100.763 119.397 101.17 119.06C101.579 118.721 101.783 118.264 101.783 117.691C101.783 117.408 101.74 117.167 101.654 116.964C101.569 116.764 101.44 116.589 101.269 116.443C101.097 116.295 100.883 116.162 100.626 116.042C100.369 115.923 100.07 115.79 99.726 115.649L98.8645 115.302C98.5713 115.18 98.3047 115.045 98.0631 114.899C97.8208 114.753 97.6115 114.575 97.4355 114.363C97.2588 114.152 97.1203 113.908 97.0193 113.63C96.9183 113.352 96.8672 113.023 96.8672 112.639C96.8672 111.722 97.1803 111.003 97.8052 110.485C98.4303 109.964 99.3079 109.706 100.437 109.706C100.921 109.706 101.38 109.745 101.813 109.826C102.247 109.907 102.63 110.009 102.963 110.128C102.912 110.553 102.802 110.971 102.63 111.384C102.357 111.282 102.042 111.193 101.685 111.113C101.326 111.032 100.921 110.99 100.468 110.99C99.8317 110.99 99.3421 111.119 99.0005 111.377C98.6579 111.634 98.4864 112.019 98.4864 112.532C98.4864 112.746 98.5292 112.935 98.6145 113.102C98.7011 113.266 98.814 113.415 98.9552 113.539C99.0959 113.665 99.2625 113.779 99.4541 113.878C99.6459 113.98 99.8464 114.071 100.058 114.152L100.906 114.484C101.308 114.647 101.667 114.813 101.98 114.991C102.292 115.167 102.558 115.373 102.781 115.612C103.002 115.847 103.172 116.128 103.287 116.451C103.403 116.772 103.463 117.152 103.463 117.584C103.463 118.623 103.103 119.441 102.388 120.042C101.671 120.641 100.668 120.941 99.3781 120.941C99.0656 120.941 98.7839 120.933 98.5312 120.912C98.2803 120.891 98.0459 120.86 97.8287 120.821C97.6115 120.779 97.4027 120.73 97.2005 120.67C96.9984 120.608 96.7927 120.544 96.5807 120.472C96.6011 120.251 96.6464 120.024 96.7177 119.792C96.7869 119.561 96.8636 119.333 96.9437 119.112Z" fill="white"/>
<path d="M110.781 119.61C111.285 119.61 111.72 119.514 112.089 119.316C112.457 119.121 112.762 118.836 113.003 118.462C113.246 118.088 113.427 117.64 113.547 117.115C113.669 116.592 113.73 115.998 113.73 115.331C113.73 114.675 113.669 114.084 113.547 113.555C113.427 113.024 113.246 112.576 113.003 112.209C112.762 111.839 112.457 111.558 112.089 111.36C111.72 111.165 111.285 111.067 110.781 111.067C110.277 111.067 109.841 111.165 109.473 111.36C109.104 111.558 108.8 111.839 108.558 112.209C108.316 112.576 108.134 113.024 108.014 113.555C107.893 114.084 107.832 114.675 107.832 115.331C107.832 115.998 107.893 116.592 108.014 117.115C108.134 117.64 108.316 118.088 108.558 118.462C108.8 118.836 109.104 119.121 109.473 119.316C109.841 119.514 110.277 119.61 110.781 119.61ZM110.781 120.941C109.994 120.941 109.315 120.803 108.739 120.525C108.165 120.248 107.689 119.86 107.31 119.362C106.933 118.862 106.651 118.269 106.464 117.584C106.277 116.899 106.184 116.147 106.184 115.331C106.184 114.515 106.277 113.764 106.464 113.079C106.651 112.391 106.933 111.8 107.31 111.3C107.689 110.803 108.165 110.412 108.739 110.128C109.315 109.847 109.994 109.706 110.781 109.706C111.568 109.706 112.248 109.847 112.822 110.128C113.398 110.412 113.874 110.803 114.252 111.3C114.63 111.8 114.909 112.391 115.091 113.079C115.273 113.764 115.363 114.515 115.363 115.331C115.363 116.147 115.273 116.899 115.091 117.584C114.909 118.269 114.63 118.862 114.252 119.362C113.874 119.86 113.398 120.248 112.822 120.525C112.248 120.803 111.568 120.941 110.781 120.941Z" fill="white"/>
<path d="M118.645 109.886C118.885 109.857 119.148 109.842 119.43 109.842C119.703 109.842 119.955 109.857 120.187 109.886V116.058C120.187 116.683 120.226 117.217 120.307 117.66C120.389 118.102 120.519 118.464 120.702 118.74C120.883 119.019 121.121 119.222 121.419 119.352C121.716 119.485 122.082 119.55 122.516 119.55C122.948 119.55 123.311 119.485 123.604 119.352C123.896 119.222 124.133 119.019 124.315 118.74C124.496 118.464 124.628 118.102 124.708 117.66C124.789 117.217 124.83 116.683 124.83 116.058V109.886C125.081 109.857 125.338 109.842 125.601 109.842C125.883 109.842 126.145 109.857 126.386 109.886V116.329C126.386 117.055 126.319 117.706 126.182 118.28C126.046 118.855 125.825 119.339 125.518 119.731C125.209 120.126 124.808 120.424 124.315 120.631C123.821 120.838 123.221 120.941 122.516 120.941C121.81 120.941 121.21 120.838 120.716 120.631C120.222 120.424 119.821 120.126 119.514 119.731C119.206 119.339 118.984 118.855 118.848 118.28C118.711 117.706 118.645 117.055 118.645 116.329V109.886Z" fill="white"/>
<path d="M130.107 109.873C130.329 109.852 130.53 109.831 130.713 109.812C130.893 109.792 131.071 109.774 131.248 109.759C131.425 109.743 131.609 109.731 131.801 109.721C131.992 109.712 132.203 109.706 132.436 109.706C132.95 109.706 133.459 109.757 133.963 109.857C134.468 109.957 134.916 110.134 135.308 110.386C135.703 110.639 136.021 110.979 136.269 111.407C136.516 111.836 136.64 112.378 136.64 113.032C136.64 113.425 136.575 113.785 136.444 114.108C136.312 114.429 136.145 114.716 135.944 114.968C135.743 115.221 135.512 115.44 135.256 115.626C134.999 115.813 134.751 115.966 134.507 116.087L134.327 116.178L137.487 120.76C137.215 120.791 136.907 120.805 136.564 120.805C136.292 120.805 136.02 120.791 135.748 120.76L132.269 115.725V115.665L132.39 115.635C132.663 115.563 132.95 115.468 133.252 115.346C133.555 115.225 133.835 115.066 134.092 114.871C134.349 114.673 134.563 114.436 134.733 114.16C134.905 113.883 134.992 113.548 134.992 113.153C134.992 112.428 134.777 111.889 134.349 111.536C133.92 111.183 133.344 111.008 132.617 111.008C132.446 111.008 132.286 111.013 132.141 111.022C131.995 111.032 131.831 111.048 131.649 111.067V120.76C131.539 120.769 131.415 120.779 131.279 120.791C131.143 120.8 131.014 120.805 130.893 120.805C130.772 120.805 130.641 120.803 130.5 120.798C130.359 120.792 130.228 120.779 130.107 120.76V109.873Z" fill="white"/>
<path d="M146.952 119.173C147.173 119.605 147.315 120.024 147.376 120.428C146.952 120.608 146.519 120.74 146.075 120.821C145.632 120.901 145.152 120.941 144.639 120.941C143.853 120.941 143.144 120.813 142.515 120.555C141.884 120.298 141.352 119.93 140.919 119.452C140.485 118.974 140.152 118.39 139.92 117.706C139.689 117.019 139.572 116.248 139.572 115.391C139.572 114.524 139.689 113.741 139.92 113.04C140.152 112.339 140.485 111.743 140.919 111.248C141.352 110.753 141.881 110.373 142.507 110.107C143.132 109.841 143.832 109.706 144.608 109.706C145.183 109.706 145.676 109.745 146.091 109.826C146.504 109.907 146.872 110.003 147.195 110.113C147.173 110.347 147.132 110.56 147.067 110.756C147 110.954 146.923 111.162 146.832 111.384C146.68 111.334 146.533 111.29 146.392 111.248C146.251 111.209 146.101 111.173 145.939 111.141C145.777 111.113 145.6 111.089 145.403 111.074C145.205 111.06 144.981 111.053 144.729 111.053C143.631 111.053 142.776 111.425 142.167 112.17C141.556 112.917 141.251 113.99 141.251 115.391C141.251 116.108 141.336 116.727 141.508 117.252C141.68 117.775 141.921 118.209 142.235 118.55C142.547 118.896 142.923 119.152 143.36 119.324C143.799 119.496 144.291 119.58 144.835 119.58C145.259 119.58 145.641 119.545 145.985 119.475C146.327 119.404 146.649 119.303 146.952 119.173Z" fill="white"/>
<path d="M150.491 109.886H156.464C156.495 110.089 156.511 110.311 156.511 110.553C156.511 110.665 156.507 110.779 156.501 110.901C156.497 111.022 156.484 111.134 156.464 111.234H152.033V114.349H155.572C155.592 114.449 155.608 114.558 155.616 114.673C155.627 114.79 155.632 114.902 155.632 115.014C155.632 115.124 155.627 115.24 155.616 115.362C155.608 115.483 155.592 115.594 155.572 115.696H152.033V119.415H156.584C156.615 119.615 156.631 119.837 156.631 120.079C156.631 120.191 156.628 120.307 156.623 120.428C156.617 120.548 156.605 120.66 156.584 120.76H150.491V109.886Z" fill="white"/>
<path d="M164.176 119.112C164.508 119.233 164.856 119.339 165.219 119.43C165.583 119.519 166.025 119.566 166.551 119.566C167.377 119.566 167.995 119.397 168.404 119.06C168.811 118.721 169.015 118.264 169.015 117.691C169.015 117.408 168.972 117.167 168.887 116.964C168.801 116.764 168.672 116.589 168.5 116.443C168.329 116.295 168.115 116.162 167.86 116.042C167.601 115.923 167.303 115.79 166.959 115.649L166.096 115.302C165.804 115.18 165.536 115.045 165.296 114.899C165.053 114.753 164.844 114.575 164.667 114.363C164.491 114.152 164.352 113.908 164.252 113.63C164.151 113.352 164.1 113.023 164.1 112.639C164.1 111.722 164.413 111.003 165.037 110.485C165.664 109.964 166.54 109.706 167.669 109.706C168.153 109.706 168.612 109.745 169.047 109.826C169.479 109.907 169.861 110.009 170.195 110.128C170.144 110.553 170.033 110.971 169.861 111.384C169.591 111.282 169.275 111.193 168.917 111.113C168.559 111.032 168.153 110.99 167.699 110.99C167.064 110.99 166.576 111.119 166.233 111.377C165.889 111.634 165.719 112.019 165.719 112.532C165.719 112.746 165.761 112.935 165.847 113.102C165.933 113.266 166.047 113.415 166.188 113.539C166.329 113.665 166.495 113.779 166.687 113.878C166.877 113.98 167.08 114.071 167.291 114.152L168.139 114.484C168.541 114.647 168.899 114.813 169.212 114.991C169.524 115.167 169.791 115.373 170.013 115.612C170.235 115.847 170.404 116.128 170.52 116.451C170.636 116.772 170.693 117.152 170.693 117.584C170.693 118.623 170.336 119.441 169.62 120.042C168.903 120.641 167.901 120.941 166.611 120.941C166.299 120.941 166.016 120.933 165.764 120.912C165.512 120.891 165.277 120.86 165.061 120.821C164.844 120.779 164.635 120.73 164.433 120.67C164.231 120.608 164.025 120.544 163.813 120.472C163.833 120.251 163.879 120.024 163.948 119.792C164.02 119.561 164.096 119.333 164.176 119.112Z" fill="white"/>
<path d="M178.013 119.61C178.517 119.61 178.953 119.514 179.321 119.316C179.689 119.121 179.995 118.836 180.235 118.462C180.479 118.088 180.66 117.64 180.78 117.115C180.903 116.592 180.963 115.998 180.963 115.331C180.963 114.675 180.903 114.084 180.78 113.555C180.66 113.024 180.479 112.576 180.235 112.209C179.995 111.839 179.689 111.558 179.321 111.36C178.953 111.165 178.517 111.067 178.013 111.067C177.509 111.067 177.073 111.165 176.705 111.36C176.337 111.558 176.032 111.839 175.791 112.209C175.549 112.576 175.367 113.024 175.247 113.555C175.125 114.084 175.065 114.675 175.065 115.331C175.065 115.998 175.125 116.592 175.247 117.115C175.367 117.64 175.549 118.088 175.791 118.462C176.032 118.836 176.337 119.121 176.705 119.316C177.073 119.514 177.509 119.61 178.013 119.61ZM178.013 120.941C177.227 120.941 176.547 120.803 175.972 120.525C175.397 120.248 174.921 119.86 174.543 119.362C174.164 118.862 173.883 118.269 173.696 117.584C173.509 116.899 173.416 116.147 173.416 115.331C173.416 114.515 173.509 113.764 173.696 113.079C173.883 112.391 174.164 111.8 174.543 111.3C174.921 110.803 175.397 110.412 175.972 110.128C176.547 109.847 177.227 109.706 178.013 109.706C178.8 109.706 179.48 109.847 180.055 110.128C180.629 110.412 181.105 110.803 181.484 111.3C181.861 111.8 182.141 112.391 182.323 113.079C182.504 113.764 182.596 114.515 182.596 115.331C182.596 116.147 182.504 116.899 182.323 117.584C182.141 118.269 181.861 118.862 181.484 119.362C181.105 119.86 180.629 120.248 180.055 120.525C179.48 120.803 178.8 120.941 178.013 120.941Z" fill="white"/>
<path d="M185.981 109.886H191.668C191.688 109.988 191.703 110.096 191.715 110.212C191.723 110.329 191.729 110.441 191.729 110.553C191.729 110.665 191.723 110.779 191.715 110.901C191.703 111.022 191.688 111.134 191.668 111.234H187.525V114.423H190.988C191.008 114.535 191.023 114.649 191.033 114.764C191.043 114.88 191.048 114.994 191.048 115.105C191.048 115.216 191.043 115.329 191.033 115.445C191.023 115.561 191.008 115.674 190.988 115.785H187.525V120.76C187.404 120.779 187.28 120.795 187.153 120.805C187.028 120.816 186.895 120.821 186.752 120.821C186.623 120.821 186.488 120.816 186.352 120.805C186.217 120.795 186.093 120.779 185.981 120.76V109.886Z" fill="white"/>
<path d="M196.613 111.234H193.785C193.765 111.134 193.751 111.022 193.74 110.901C193.729 110.779 193.724 110.665 193.724 110.553C193.724 110.441 193.729 110.329 193.74 110.212C193.751 110.096 193.765 109.988 193.785 109.886H200.984C201.003 109.988 201.019 110.093 201.028 110.206C201.039 110.316 201.044 110.427 201.044 110.537C201.044 110.649 201.039 110.766 201.028 110.893C201.019 111.019 201.003 111.134 200.984 111.234H198.156V120.76C197.923 120.791 197.672 120.805 197.399 120.805C197.117 120.805 196.855 120.791 196.613 120.76V111.234Z" fill="white"/>
<path d="M202.904 109.886C203.015 109.867 203.153 109.852 203.32 109.842C203.487 109.831 203.639 109.826 203.78 109.826C203.921 109.826 204.065 109.831 204.212 109.842C204.357 109.852 204.492 109.867 204.612 109.886L206.472 118.945L208.711 109.886C208.832 109.867 208.965 109.852 209.111 109.842C209.257 109.831 209.396 109.826 209.528 109.826C209.648 109.826 209.784 109.831 209.936 109.842C210.087 109.852 210.217 109.867 210.329 109.886L212.583 119.037L214.472 109.886C214.583 109.867 214.701 109.852 214.828 109.842C214.953 109.831 215.077 109.826 215.199 109.826C215.339 109.826 215.484 109.831 215.629 109.842C215.776 109.852 215.903 109.867 216.015 109.886L213.399 120.76C213.277 120.779 213.136 120.795 212.975 120.805C212.813 120.816 212.668 120.821 212.536 120.821C212.395 120.821 212.239 120.816 212.067 120.805C211.897 120.795 211.74 120.779 211.599 120.76L209.451 112.246L207.275 120.76C207.132 120.779 206.98 120.795 206.813 120.805C206.647 120.816 206.493 120.821 206.352 120.821C206.231 120.821 206.092 120.816 205.936 120.805C205.78 120.795 205.641 120.779 205.52 120.76L202.904 109.886Z" fill="white"/>
<path d="M220.188 116.904H223.5L221.835 111.355L220.188 116.904ZM223.908 118.25H219.779L219.039 120.76C218.908 120.779 218.776 120.795 218.645 120.805C218.513 120.816 218.384 120.821 218.252 120.821C218.111 120.821 217.972 120.816 217.836 120.805C217.7 120.795 217.577 120.779 217.465 120.76L221.004 109.886C221.136 109.867 221.277 109.852 221.428 109.842C221.58 109.831 221.736 109.826 221.896 109.826C222.037 109.826 222.184 109.831 222.335 109.842C222.487 109.852 222.632 109.867 222.775 109.886L226.297 120.76C226.177 120.779 226.04 120.795 225.889 120.805C225.737 120.816 225.592 120.821 225.449 120.821C225.32 120.821 225.187 120.816 225.049 120.805C224.912 120.795 224.785 120.779 224.664 120.76L223.908 118.25Z" fill="white"/>
<path d="M229.051 109.873C229.272 109.852 229.473 109.831 229.656 109.812C229.836 109.792 230.015 109.774 230.191 109.759C230.368 109.743 230.552 109.731 230.744 109.721C230.936 109.712 231.147 109.706 231.379 109.706C231.892 109.706 232.401 109.757 232.905 109.857C233.409 109.957 233.859 110.134 234.252 110.386C234.645 110.639 234.964 110.979 235.213 111.407C235.459 111.836 235.583 112.378 235.583 113.032C235.583 113.425 235.517 113.785 235.387 114.108C235.255 114.429 235.087 114.716 234.888 114.968C234.685 115.221 234.456 115.44 234.199 115.626C233.943 115.813 233.692 115.966 233.449 116.087L233.269 116.178L236.431 120.76C236.157 120.791 235.848 120.805 235.507 120.805C235.235 120.805 234.961 120.791 234.691 120.76L231.212 115.725V115.665L231.333 115.635C231.607 115.563 231.892 115.468 232.195 115.346C232.499 115.225 232.777 115.066 233.035 114.871C233.292 114.673 233.505 114.436 233.676 114.16C233.848 113.883 233.933 113.548 233.933 113.153C233.933 112.428 233.72 111.889 233.292 111.536C232.863 111.183 232.287 111.008 231.56 111.008C231.389 111.008 231.229 111.013 231.084 111.022C230.939 111.032 230.775 111.048 230.592 111.067V120.76C230.483 120.769 230.357 120.779 230.223 120.791C230.087 120.8 229.956 120.805 229.836 120.805C229.715 120.805 229.584 120.803 229.444 120.798C229.301 120.792 229.171 120.779 229.051 120.76V109.873Z" fill="white"/>
<path d="M239.18 109.886H245.155C245.184 110.089 245.2 110.311 245.2 110.553C245.2 110.665 245.197 110.779 245.191 110.901C245.185 111.022 245.175 111.134 245.155 111.234H240.723V114.349H244.264C244.281 114.449 244.297 114.558 244.307 114.673C244.317 114.79 244.323 114.902 244.323 115.014C244.323 115.124 244.317 115.24 244.307 115.362C244.297 115.483 244.281 115.594 244.264 115.696H240.723V119.415H245.277C245.304 119.615 245.321 119.837 245.321 120.079C245.321 120.191 245.319 120.307 245.313 120.428C245.308 120.548 245.295 120.66 245.277 120.76H239.18V109.886Z" fill="white"/>
<path d="M253.14 109.886H258.825C258.845 109.988 258.86 110.096 258.872 110.212C258.881 110.329 258.887 110.441 258.887 110.553C258.887 110.665 258.881 110.779 258.872 110.901C258.86 111.022 258.845 111.134 258.825 111.234H254.68V114.423H258.145C258.165 114.535 258.18 114.649 258.189 114.764C258.201 114.88 258.205 114.994 258.205 115.105C258.205 115.216 258.201 115.329 258.189 115.445C258.18 115.561 258.165 115.674 258.145 115.785H254.68V120.76C254.56 120.779 254.436 120.795 254.311 120.805C254.184 120.816 254.053 120.821 253.909 120.821C253.777 120.821 253.645 120.816 253.509 120.805C253.375 120.795 253.249 120.779 253.14 120.76V109.886Z" fill="white"/>
<path d="M266.081 119.61C266.588 119.61 267.023 119.514 267.392 119.316C267.759 119.121 268.064 118.836 268.307 118.462C268.548 118.088 268.729 117.64 268.851 117.115C268.972 116.592 269.033 115.998 269.033 115.331C269.033 114.675 268.972 114.084 268.851 113.555C268.729 113.024 268.548 112.576 268.307 112.209C268.064 111.839 267.759 111.558 267.392 111.36C267.023 111.165 266.588 111.067 266.081 111.067C265.58 111.067 265.143 111.165 264.776 111.36C264.407 111.558 264.103 111.839 263.861 112.209C263.619 112.576 263.439 113.024 263.316 113.555C263.196 114.084 263.135 114.675 263.135 115.331C263.135 115.998 263.196 116.592 263.316 117.115C263.439 117.64 263.619 118.088 263.861 118.462C264.103 118.836 264.407 119.121 264.776 119.316C265.143 119.514 265.58 119.61 266.081 119.61ZM266.081 120.941C265.297 120.941 264.616 120.803 264.041 120.525C263.465 120.248 262.992 119.86 262.612 119.362C262.233 118.862 261.952 118.269 261.767 117.584C261.579 116.899 261.487 116.147 261.487 115.331C261.487 114.515 261.579 113.764 261.767 113.079C261.952 112.391 262.233 111.8 262.612 111.3C262.992 110.803 263.465 110.412 264.041 110.128C264.616 109.847 265.297 109.706 266.081 109.706C266.869 109.706 267.551 109.847 268.124 110.128C268.699 110.412 269.175 110.803 269.555 111.3C269.932 111.8 270.212 112.391 270.393 113.079C270.575 113.764 270.665 114.515 270.665 115.331C270.665 116.147 270.575 116.899 270.393 117.584C270.212 118.269 269.932 118.862 269.555 119.362C269.175 119.86 268.699 120.248 268.124 120.525C267.551 120.803 266.869 120.941 266.081 120.941Z" fill="white"/>
<path d="M274.083 109.873C274.304 109.852 274.505 109.831 274.687 109.812C274.868 109.792 275.049 109.774 275.224 109.759C275.4 109.743 275.584 109.731 275.776 109.721C275.968 109.712 276.179 109.706 276.411 109.706C276.925 109.706 277.433 109.757 277.939 109.857C278.443 109.957 278.892 110.134 279.284 110.386C279.676 110.639 279.997 110.979 280.245 111.407C280.492 111.836 280.615 112.378 280.615 113.032C280.615 113.425 280.551 113.785 280.42 114.108C280.288 114.429 280.121 114.716 279.92 114.968C279.717 115.221 279.489 115.44 279.232 115.626C278.975 115.813 278.724 115.966 278.483 116.087L278.301 116.178L281.464 120.76C281.191 120.791 280.883 120.805 280.54 120.805C280.268 120.805 279.995 120.791 279.723 120.76L276.245 115.725V115.665L276.367 115.635C276.637 115.563 276.925 115.468 277.228 115.346C277.531 115.225 277.811 115.066 278.067 114.871C278.324 114.673 278.54 114.436 278.711 114.16C278.88 113.883 278.967 113.548 278.967 113.153C278.967 112.428 278.752 111.889 278.324 111.536C277.895 111.183 277.32 111.008 276.595 111.008C276.421 111.008 276.263 111.013 276.116 111.022C275.971 111.032 275.807 111.048 275.624 111.067V120.76C275.515 120.769 275.389 120.779 275.255 120.791C275.119 120.8 274.992 120.805 274.868 120.805C274.748 120.805 274.616 120.803 274.476 120.798C274.333 120.792 274.203 120.779 274.083 120.76V109.873Z" fill="white"/>
<path d="M290.475 119.566C290.616 119.586 290.793 119.602 291.012 119.61C291.228 119.622 291.443 119.626 291.656 119.626C292.017 119.626 292.359 119.596 292.675 119.535C292.993 119.475 293.273 119.371 293.513 119.225C293.756 119.079 293.948 118.884 294.089 118.635C294.231 118.388 294.301 118.074 294.301 117.691C294.301 117.318 294.236 117.002 294.107 116.746C293.973 116.488 293.795 116.282 293.568 116.126C293.341 115.968 293.071 115.859 292.757 115.792C292.445 115.727 292.109 115.696 291.744 115.696H290.475V119.566ZM291.579 114.423C292.265 114.423 292.789 114.275 293.153 113.977C293.513 113.68 293.695 113.234 293.695 112.639C293.695 112.064 293.503 111.636 293.115 111.355C292.725 111.073 292.197 110.93 291.535 110.93C291.333 110.93 291.139 110.936 290.951 110.946C290.765 110.956 290.608 110.971 290.475 110.99V114.423H291.579ZM288.945 109.886C289.2 109.838 289.553 109.797 290.007 109.766C290.46 109.736 290.919 109.721 291.383 109.721C291.956 109.721 292.48 109.772 292.955 109.873C293.429 109.972 293.835 110.136 294.172 110.364C294.511 110.591 294.772 110.884 294.96 111.24C295.145 111.6 295.239 112.035 295.239 112.549C295.239 112.86 295.192 113.152 295.093 113.417C295 113.686 294.871 113.923 294.709 114.13C294.549 114.337 294.361 114.506 294.149 114.644C293.939 114.779 293.721 114.878 293.5 114.938C293.781 114.968 294.067 115.042 294.353 115.165C294.64 115.285 294.9 115.456 295.132 115.679C295.364 115.902 295.555 116.18 295.7 116.518C295.847 116.855 295.919 117.266 295.919 117.751C295.919 118.336 295.804 118.831 295.571 119.24C295.337 119.649 295.024 119.979 294.625 120.231C294.228 120.483 293.759 120.665 293.221 120.774C292.68 120.886 292.104 120.941 291.489 120.941C291.105 120.941 290.687 120.924 290.232 120.889C289.779 120.852 289.351 120.811 288.945 120.76V109.886Z" fill="white"/>
<path d="M299.063 109.886C299.184 109.867 299.309 109.852 299.441 109.842C299.571 109.831 299.704 109.826 299.833 109.826C299.964 109.826 300.096 109.831 300.228 109.842C300.357 109.852 300.485 109.867 300.607 109.886V120.76C300.485 120.779 300.36 120.795 300.235 120.805C300.109 120.816 299.975 120.821 299.833 120.821C299.704 120.821 299.569 120.816 299.435 120.805C299.299 120.795 299.172 120.779 299.063 120.76V109.886Z" fill="white"/>
<path d="M308.589 119.61C309.095 119.61 309.529 119.514 309.897 119.316C310.267 119.121 310.571 118.836 310.813 118.462C311.055 118.088 311.236 117.64 311.357 117.115C311.477 116.592 311.54 115.998 311.54 115.331C311.54 114.675 311.477 114.084 311.357 113.555C311.236 113.024 311.055 112.576 310.813 112.209C310.571 111.839 310.267 111.558 309.897 111.36C309.529 111.165 309.095 111.067 308.589 111.067C308.087 111.067 307.651 111.165 307.281 111.36C306.913 111.558 306.609 111.839 306.368 112.209C306.124 112.576 305.944 113.024 305.823 113.555C305.703 114.084 305.641 114.675 305.641 115.331C305.641 115.998 305.703 116.592 305.823 117.115C305.944 117.64 306.124 118.088 306.368 118.462C306.609 118.836 306.913 119.121 307.281 119.316C307.651 119.514 308.087 119.61 308.589 119.61ZM308.589 120.941C307.804 120.941 307.123 120.803 306.549 120.525C305.973 120.248 305.499 119.86 305.119 119.362C304.741 118.862 304.459 118.269 304.273 117.584C304.084 116.899 303.993 116.147 303.993 115.331C303.993 114.515 304.084 113.764 304.273 113.079C304.459 112.391 304.741 111.8 305.119 111.3C305.499 110.803 305.973 110.412 306.549 110.128C307.123 109.847 307.804 109.706 308.589 109.706C309.376 109.706 310.057 109.847 310.631 110.128C311.207 110.412 311.681 110.803 312.06 111.3C312.439 111.8 312.719 112.391 312.899 113.079C313.081 113.764 313.171 114.515 313.171 115.331C313.171 116.147 313.081 116.899 312.899 117.584C312.719 118.269 312.439 118.862 312.06 119.362C311.681 119.86 311.207 120.248 310.631 120.525C310.057 120.803 309.376 120.941 308.589 120.941Z" fill="white"/>
<path d="M316.556 109.886C316.676 109.867 316.804 109.852 316.937 109.842C317.067 109.831 317.197 109.826 317.329 109.826C317.46 109.826 317.592 109.831 317.723 109.842C317.852 109.852 317.98 109.867 318.1 109.886V120.76C317.98 120.779 317.856 120.795 317.728 120.805C317.603 120.816 317.469 120.821 317.329 120.821C317.197 120.821 317.065 120.816 316.929 120.805C316.792 120.795 316.668 120.779 316.556 120.76V109.886Z" fill="white"/>
<path d="M321.895 109.886C322.005 109.867 322.125 109.852 322.251 109.842C322.377 109.831 322.496 109.826 322.608 109.826C322.717 109.826 322.833 109.831 322.96 109.842C323.088 109.852 323.207 109.867 323.317 109.886L328.052 118.053V109.886C328.171 109.867 328.297 109.852 328.427 109.842C328.557 109.831 328.689 109.826 328.821 109.826C328.933 109.826 329.048 109.831 329.169 109.842C329.289 109.852 329.408 109.867 329.516 109.886V120.76C329.408 120.779 329.287 120.795 329.163 120.805C329.036 120.816 328.916 120.821 328.807 120.821C328.695 120.821 328.577 120.816 328.451 120.805C328.325 120.795 328.207 120.779 328.095 120.76L323.348 112.639V120.76C323.236 120.779 323.117 120.795 322.993 120.805C322.865 120.816 322.741 120.821 322.621 120.821C322.491 120.821 322.36 120.816 322.236 120.805C322.109 120.795 321.996 120.779 321.895 120.76V109.886Z" fill="white"/>
<path d="M333.313 109.886H338.999C339.016 109.988 339.035 110.096 339.044 110.212C339.053 110.329 339.057 110.441 339.057 110.553C339.057 110.665 339.053 110.779 339.044 110.901C339.035 111.022 339.016 111.134 338.999 111.234H334.855V114.423H338.319C338.337 114.535 338.353 114.649 338.361 114.764C338.373 114.88 338.379 114.994 338.379 115.105C338.379 115.216 338.373 115.329 338.361 115.445C338.353 115.561 338.337 115.674 338.319 115.785H334.855V120.76C334.733 120.779 334.611 120.795 334.484 120.805C334.359 120.816 334.224 120.821 334.084 120.821C333.951 120.821 333.819 120.816 333.683 120.805C333.547 120.795 333.423 120.779 333.313 120.76V109.886Z" fill="white"/>
<path d="M346.256 119.61C346.761 119.61 347.196 119.514 347.565 119.316C347.933 119.121 348.237 118.836 348.48 118.462C348.721 118.088 348.904 117.64 349.024 117.115C349.147 116.592 349.205 115.998 349.205 115.331C349.205 114.675 349.147 114.084 349.024 113.555C348.904 113.024 348.721 112.576 348.48 112.209C348.237 111.839 347.933 111.558 347.565 111.36C347.196 111.165 346.761 111.067 346.256 111.067C345.753 111.067 345.317 111.165 344.948 111.36C344.581 111.558 344.277 111.839 344.035 112.209C343.791 112.576 343.611 113.024 343.489 113.555C343.368 114.084 343.308 114.675 343.308 115.331C343.308 115.998 343.368 116.592 343.489 117.115C343.611 117.64 343.791 118.088 344.035 118.462C344.277 118.836 344.581 119.121 344.948 119.316C345.317 119.514 345.753 119.61 346.256 119.61ZM346.256 120.941C345.471 120.941 344.791 120.803 344.215 120.525C343.641 120.248 343.164 119.86 342.785 119.362C342.407 118.862 342.125 118.269 341.94 117.584C341.752 116.899 341.66 116.147 341.66 115.331C341.66 114.515 341.752 113.764 341.94 113.079C342.125 112.391 342.407 111.8 342.785 111.3C343.164 110.803 343.641 110.412 344.215 110.128C344.791 109.847 345.471 109.706 346.256 109.706C347.043 109.706 347.724 109.847 348.297 110.128C348.873 110.412 349.349 110.803 349.725 111.3C350.105 111.8 350.385 112.391 350.565 113.079C350.749 113.764 350.837 114.515 350.837 115.331C350.837 116.147 350.749 116.899 350.565 117.584C350.385 118.269 350.105 118.862 349.725 119.362C349.349 119.86 348.873 120.248 348.297 120.525C347.724 120.803 347.043 120.941 346.256 120.941Z" fill="white"/>
<path d="M354.256 109.873C354.477 109.852 354.677 109.831 354.861 109.812C355.041 109.792 355.223 109.774 355.397 109.759C355.573 109.743 355.759 109.731 355.949 109.721C356.141 109.712 356.353 109.706 356.584 109.706C357.099 109.706 357.607 109.757 358.112 109.857C358.615 109.957 359.064 110.134 359.457 110.386C359.851 110.639 360.171 110.979 360.419 111.407C360.665 111.836 360.789 112.378 360.789 113.032C360.789 113.425 360.724 113.785 360.592 114.108C360.461 114.429 360.295 114.716 360.095 114.968C359.891 115.221 359.663 115.44 359.405 115.626C359.149 115.813 358.897 115.966 358.656 116.087L358.475 116.178L361.636 120.76C361.363 120.791 361.056 120.805 360.712 120.805C360.443 120.805 360.169 120.791 359.896 120.76L356.419 115.725V115.665L356.541 115.635C356.812 115.563 357.099 115.468 357.401 115.346C357.704 115.225 357.983 115.066 358.241 114.871C358.497 114.673 358.713 114.436 358.885 114.16C359.055 113.883 359.14 113.548 359.14 113.153C359.14 112.428 358.925 111.889 358.497 111.536C358.069 111.183 357.492 111.008 356.767 111.008C356.595 111.008 356.437 111.013 356.289 111.022C356.144 111.032 355.981 111.048 355.797 111.067V120.76C355.687 120.769 355.563 120.779 355.429 120.791C355.292 120.8 355.164 120.805 355.041 120.805C354.92 120.805 354.791 120.803 354.651 120.798C354.507 120.792 354.379 120.779 354.256 120.76V109.873Z" fill="white"/>
<path d="M364.688 109.886C364.809 109.867 364.947 109.852 365.103 109.842C365.261 109.831 365.408 109.826 365.551 109.826C365.692 109.826 365.845 109.831 366.011 109.842C366.177 109.852 366.316 109.867 366.427 109.886L369.24 116.692L372.067 109.886C372.168 109.867 372.295 109.852 372.445 109.842C372.597 109.831 372.741 109.826 372.887 109.826C373.015 109.826 373.163 109.831 373.324 109.842C373.485 109.852 373.621 109.867 373.731 109.886L374.245 120.76C374.123 120.779 374 120.795 373.875 120.805C373.748 120.816 373.621 120.821 373.491 120.821C373.357 120.821 373.229 120.816 373.104 120.805C372.977 120.795 372.86 120.779 372.748 120.76L372.401 112.305L369.74 118.508C369.537 118.537 369.332 118.55 369.119 118.55C368.927 118.55 368.736 118.537 368.545 118.508L365.973 112.263L365.625 120.76C365.515 120.779 365.399 120.795 365.277 120.805C365.159 120.816 365.041 120.821 364.931 120.821C364.8 120.821 364.673 120.816 364.553 120.805C364.432 120.795 364.316 120.779 364.205 120.76L364.688 109.886Z" fill="white"/>
<path d="M379.493 116.904H382.804L381.141 111.355L379.493 116.904ZM383.213 118.25H379.085L378.343 120.76C378.212 120.779 378.081 120.795 377.951 120.805C377.819 120.816 377.687 120.821 377.557 120.821C377.415 120.821 377.277 120.816 377.141 120.805C377.005 120.795 376.883 120.779 376.771 120.76L380.308 109.886C380.44 109.867 380.581 109.852 380.732 109.842C380.884 109.831 381.039 109.826 381.201 109.826C381.343 109.826 381.488 109.831 381.64 109.842C381.791 109.852 381.939 109.867 382.079 109.886L385.601 120.76C385.481 120.779 385.344 120.795 385.193 120.805C385.043 120.816 384.896 120.821 384.756 120.821C384.623 120.821 384.489 120.816 384.353 120.805C384.219 120.795 384.089 120.779 383.968 120.76L383.213 118.25Z" fill="white"/>
<path d="M389.232 111.234H386.404C386.385 111.134 386.369 111.022 386.359 110.901C386.349 110.779 386.345 110.665 386.345 110.553C386.345 110.441 386.349 110.329 386.359 110.212C386.369 110.096 386.385 109.988 386.404 109.886H393.603C393.623 109.988 393.637 110.093 393.648 110.206C393.659 110.316 393.663 110.427 393.663 110.537C393.663 110.649 393.659 110.766 393.648 110.893C393.637 111.019 393.623 111.134 393.603 111.234H390.776V120.76C390.543 120.791 390.291 120.805 390.019 120.805C389.736 120.805 389.475 120.791 389.232 120.76V111.234Z" fill="white"/>
<path d="M396.445 109.886C396.567 109.867 396.692 109.852 396.824 109.842C396.955 109.831 397.087 109.826 397.217 109.826C397.347 109.826 397.48 109.831 397.611 109.842C397.74 109.852 397.868 109.867 397.989 109.886V120.76C397.868 120.779 397.744 120.795 397.617 120.805C397.492 120.816 397.359 120.821 397.217 120.821C397.087 120.821 396.953 120.816 396.817 120.805C396.681 120.795 396.556 120.779 396.445 120.76V109.886Z" fill="white"/>
<path d="M408.724 119.173C408.945 119.605 409.089 120.024 409.151 120.428C408.724 120.608 408.291 120.74 407.847 120.821C407.405 120.901 406.925 120.941 406.412 120.941C405.625 120.941 404.916 120.813 404.287 120.555C403.657 120.298 403.125 119.93 402.691 119.452C402.257 118.974 401.924 118.39 401.693 117.706C401.461 117.019 401.347 116.248 401.347 115.391C401.347 114.524 401.461 113.741 401.693 113.04C401.924 112.339 402.257 111.743 402.691 111.248C403.125 110.753 403.655 110.373 404.28 110.107C404.904 109.841 405.604 109.706 406.381 109.706C406.956 109.706 407.448 109.745 407.864 109.826C408.277 109.907 408.644 110.003 408.967 110.113C408.945 110.347 408.904 110.56 408.839 110.756C408.773 110.954 408.695 111.162 408.604 111.384C408.453 111.334 408.307 111.29 408.167 111.248C408.024 111.209 407.875 111.173 407.712 111.141C407.552 111.113 407.372 111.089 407.175 111.074C406.979 111.06 406.755 111.053 406.503 111.053C405.404 111.053 404.551 111.425 403.939 112.17C403.331 112.917 403.024 113.99 403.024 115.391C403.024 116.108 403.111 116.727 403.28 117.252C403.452 117.775 403.695 118.209 404.007 118.55C404.32 118.896 404.696 119.152 405.133 119.324C405.572 119.496 406.063 119.58 406.608 119.58C407.032 119.58 407.413 119.545 407.759 119.475C408.103 119.404 408.423 119.303 408.724 119.173Z" fill="white"/>
<path d="M411.989 119.112C412.323 119.233 412.671 119.339 413.035 119.43C413.396 119.519 413.839 119.566 414.364 119.566C415.192 119.566 415.809 119.397 416.217 119.06C416.624 118.721 416.829 118.264 416.829 117.691C416.829 117.408 416.787 117.167 416.7 116.964C416.615 116.764 416.488 116.589 416.316 116.443C416.143 116.295 415.931 116.162 415.672 116.042C415.415 115.923 415.115 115.79 414.773 115.649L413.911 115.302C413.619 115.18 413.351 115.045 413.109 114.899C412.868 114.753 412.659 114.575 412.481 114.363C412.305 114.152 412.167 113.908 412.065 113.63C411.964 113.352 411.915 113.023 411.915 112.639C411.915 111.722 412.227 111.003 412.853 110.485C413.477 109.964 414.355 109.706 415.483 109.706C415.967 109.706 416.427 109.745 416.859 109.826C417.292 109.907 417.676 110.009 418.009 110.128C417.957 110.553 417.847 110.971 417.676 111.384C417.404 111.282 417.088 111.193 416.731 111.113C416.373 111.032 415.967 110.99 415.513 110.99C414.88 110.99 414.389 111.119 414.047 111.377C413.704 111.634 413.531 112.019 413.531 112.532C413.531 112.746 413.576 112.935 413.663 113.102C413.747 113.266 413.861 113.415 414.001 113.539C414.144 113.665 414.311 113.779 414.5 113.878C414.692 113.98 414.892 114.071 415.105 114.152L415.953 114.484C416.356 114.647 416.715 114.813 417.024 114.991C417.337 115.167 417.607 115.373 417.827 115.612C418.049 115.847 418.219 116.128 418.335 116.451C418.449 116.772 418.507 117.152 418.507 117.584C418.507 118.623 418.151 119.441 417.435 120.042C416.72 120.641 415.716 120.941 414.425 120.941C414.112 120.941 413.831 120.933 413.579 120.912C413.325 120.891 413.092 120.86 412.875 120.821C412.659 120.779 412.447 120.73 412.248 120.67C412.048 120.608 411.839 120.544 411.627 120.472C411.648 120.251 411.693 120.024 411.764 119.792C411.833 119.561 411.909 119.333 411.989 119.112Z" fill="white"/>
</g>
<defs>
<clipPath id="clip0_160_2228">
<rect width="429.627" height="123.627" fill="white" transform="translate(0 0.626678)"/>
</clipPath>
</defs>
</svg>
