<svg width="241" height="65" viewBox="0 0 241 65" fill="none" xmlns="http://www.w3.org/2000/svg">
<path d="M177.144 26.1691C176.617 26.0034 176.055 26.2962 175.89 26.8231C175.724 27.3499 176.017 27.9113 176.544 28.077L177.144 26.1691ZM219.77 8.39915C219.677 7.85474 219.16 7.48872 218.616 7.58164L209.744 9.09572C209.199 9.18863 208.833 9.70529 208.926 10.2497C209.019 10.7941 209.536 11.1601 210.08 11.0672L217.966 9.72136L219.312 17.6073C219.405 18.1518 219.922 18.5178 220.466 18.4249C221.011 18.3319 221.377 17.8153 221.284 17.2709L219.77 8.39915ZM215.478 14.9634L219.6 9.14545L217.968 7.98931L213.846 13.8073L215.478 14.9634ZM176.544 28.077C190.993 32.6207 206.722 27.3227 215.478 14.9634L213.846 13.8073C205.592 25.458 190.764 30.4523 177.144 26.1691L176.544 28.077Z" fill="#035771"/>
<path d="M62.9424 35.21C62.5482 35.1514 62.2295 35.0941 61.9861 35.0383C61.7453 35.0036 61.6249 34.9863 61.6249 34.9863C61.6542 34.8752 61.6212 34.7826 61.526 34.7084C61.452 34.6315 61.2972 34.597 61.0617 34.6047C60.7206 34.4535 60.394 34.2467 60.082 33.9844C59.7939 33.7407 59.5481 33.4917 59.3446 33.2374C59.1411 32.9832 58.9852 32.7661 58.8769 32.586C58.6894 32.2868 58.5917 32.1054 58.5838 32.0419C58.5945 31.9546 58.7097 31.8436 58.9295 31.7089C59.1414 31.5107 59.3042 31.4367 59.4179 31.4871C59.5528 31.5349 59.7272 31.7283 59.9412 32.0672C60.2768 32.52 60.7884 32.8328 61.4762 33.0056C62.1852 33.1757 62.9512 33.199 63.7743 33.0755C64.6159 32.9282 65.3968 32.638 66.117 32.2048C66.861 31.7902 67.3073 31.4017 67.4558 31.0393C67.623 30.6532 67.4925 30.2072 67.0643 29.7013C66.9798 29.5398 66.8887 29.4114 66.7909 29.316C66.6931 29.2207 66.5384 29.1001 66.3269 28.9543C66.1365 28.806 65.8166 28.5661 65.3671 28.2349C65.0312 28.126 64.7178 28.0252 64.4268 27.9322C64.157 27.8367 63.8647 27.7332 63.5499 27.6217C63.1902 27.4943 62.7472 27.302 62.2209 27.0447C61.7132 26.7637 61.2227 26.4483 60.7494 26.0985C60.2761 25.7487 59.9232 25.4163 59.6907 25.1011C59.3126 24.8255 59.0048 24.423 58.7672 23.8935C58.527 23.3429 58.3887 22.7474 58.3524 22.107C58.316 21.4666 58.404 20.8753 58.6162 20.3331C58.7065 20.0209 58.8737 19.6348 59.1176 19.1746C59.3801 18.6907 59.6743 18.2028 60.0003 17.711C60.3263 17.2192 60.647 16.771 60.9623 16.3665C61.2776 15.962 61.5425 15.6712 61.757 15.4941C61.9054 15.3038 62.0644 15.1121 62.234 14.9191C62.4009 14.705 62.4844 14.5979 62.4844 14.5979C62.4924 14.4894 62.5176 14.4325 62.56 14.4273C62.6235 14.4194 62.6552 14.4155 62.6552 14.4155C62.7532 14.3389 62.973 14.2042 63.3145 14.0114C63.6561 13.8186 64.0137 13.4948 64.3872 13.0401C65.7218 12.1868 66.814 11.5463 67.6638 11.1186C68.5137 10.6908 69.2244 10.4415 69.796 10.3707C70.328 10.3263 70.8201 10.3943 71.2723 10.5747C71.7432 10.7314 72.1385 10.9726 72.4583 11.2984C72.7993 11.6216 73.0331 12.0333 73.1595 12.5335C73.3707 13.0233 73.4018 13.6213 73.2529 14.3277C73.1013 15.0128 72.8294 15.6807 72.437 16.3312C72.0633 16.9579 71.6301 17.4523 71.1375 17.8142C70.5762 18.1418 70.1884 18.308 69.974 18.3131C69.7783 18.2944 69.666 18.0826 69.6374 17.6777C69.6164 17.5083 69.6444 17.3006 69.7214 17.0546C69.8196 16.806 70.0966 16.3525 70.5524 15.6941C71.1066 14.6151 71.421 13.77 71.4958 13.1589C71.5705 12.5477 71.3923 12.2366 70.961 12.2255C70.8287 12.1989 70.5958 12.2278 70.2623 12.3121C69.95 12.3938 69.5979 12.5019 69.2062 12.6364C68.833 12.7472 68.514 12.8619 68.2493 12.9807C67.9819 13.0783 67.8508 13.1483 67.8561 13.1907C67.8561 13.1907 67.86 13.2224 67.8679 13.2859C67.8758 13.3495 67.836 13.3759 67.7487 13.3652C67.7064 13.3704 67.5369 13.4774 67.2403 13.6861C66.9438 13.8949 66.5902 14.1644 66.1797 14.4947C65.7692 14.825 65.3587 15.1553 64.9482 15.4857C64.5377 15.816 64.1868 16.1067 63.8955 16.3577C63.6227 16.585 63.4783 16.7211 63.4624 16.7661C63.4489 17.0042 63.2317 17.2461 62.8107 17.4917C62.4187 17.7982 62.073 18.2173 61.7734 18.7488C61.495 19.2777 61.1887 19.9283 60.8544 20.7006C60.5548 21.2322 60.3664 21.7929 60.289 22.3829C60.209 22.9518 60.2641 23.3964 60.4543 23.7167C60.6021 24.0424 60.984 24.4357 61.6001 24.8968C62.2161 25.3579 62.9671 25.7807 63.8532 26.1654C64.6228 26.4784 65.3184 26.8007 65.9399 27.1321C66.5587 27.4424 67.0704 27.7551 67.4749 28.0705C67.9006 28.3832 68.194 28.6693 68.3551 28.9287C68.6538 29.2572 68.8797 29.6054 69.0327 29.9733C69.2044 30.3175 69.3112 30.659 69.3531 30.9977C69.4163 31.3338 69.4226 31.6448 69.372 31.9305C69.2657 32.2876 69.0444 32.6697 68.7079 33.0768C68.3926 33.4814 68.1066 33.6888 67.8499 33.6991C67.6249 33.7914 67.4541 33.8878 67.3376 33.9883C67.2422 34.0861 67.1244 34.1759 66.984 34.2578C66.8463 34.3608 66.5392 34.4849 66.0628 34.6299C65.6075 34.7723 65.0954 34.8895 64.5264 34.9815C63.96 35.0947 63.432 35.1708 62.9424 35.21ZM76.401 31.7044C76.1629 31.6909 75.905 31.6047 75.6273 31.4456C75.3682 31.2627 75.1276 31.0561 74.9056 30.8256C74.7021 30.5714 74.5555 30.3424 74.4658 30.1385C74.4605 30.0962 74.4222 30.0472 74.3508 29.9915C74.3006 29.9333 74.2755 29.9041 74.2755 29.9041C74.183 29.8511 74.0959 29.5824 74.0144 29.0981C73.9515 28.59 73.9137 28.025 73.9011 27.4032C73.8886 26.7813 73.9023 26.2852 73.9424 25.9148C74.0063 25.563 74.1087 25.0881 74.2496 24.4902C74.3878 23.8712 74.5022 23.3196 74.5927 22.8355L75.2219 20.8873L73.9084 20.6954C73.7549 20.6714 73.6174 20.6025 73.4958 20.4886C73.3954 20.372 73.3399 20.2714 73.3294 20.1867C73.3084 20.0174 73.3788 19.8044 73.5405 19.5479C73.6995 19.2703 73.8214 19.1262 73.9061 19.1157C74.0146 19.1237 74.2064 19.1107 74.4816 19.0766C74.778 19.0399 75.0625 18.9939 75.3352 18.9386C75.6078 18.8833 75.7745 18.8412 75.8354 18.8121C75.9148 18.7593 75.993 18.6959 76.0698 18.6219C76.144 18.5267 76.1931 18.4024 76.217 18.2489C76.294 18.0029 76.3631 17.7794 76.4242 17.5784C76.4826 17.3562 76.5702 17.1089 76.6869 16.8364C76.801 16.5428 76.8886 16.2955 76.9497 16.0945C77.0319 15.8908 77.1579 15.6065 77.3277 15.2415C77.4152 15.0802 77.5093 14.8858 77.6101 14.6584C77.7109 14.4309 77.8474 14.2313 78.0196 14.0595C78.1891 13.8665 78.3705 13.7688 78.5636 13.7664C78.7754 13.7401 79.057 13.845 79.4087 14.0808C79.6043 14.2716 79.7193 14.4185 79.7536 14.5218C79.7878 14.625 79.7281 14.8366 79.5743 15.1566C79.4495 15.5375 79.293 15.9224 79.1047 16.3111C78.9376 16.6973 78.781 17.0821 78.6351 17.4657C78.354 17.9734 78.3233 18.2459 78.5429 18.2832C78.7625 18.3205 79.35 18.2047 80.3056 17.9358C80.9064 17.7539 81.355 17.7305 81.6512 17.8658C81.9448 17.9799 82.135 18.2143 82.222 18.569C82.3484 19.0692 82.3335 19.3827 82.1773 19.5096C82.021 19.6364 81.5407 19.7497 80.7361 19.8494C80.2385 19.997 79.8111 20.1037 79.4538 20.1695C79.0939 20.2141 78.8292 20.2469 78.6598 20.2679C78.3872 20.3231 78.2086 20.356 78.1239 20.3665C78.0392 20.377 77.9148 20.4139 77.7507 20.4773C77.5866 20.5406 77.4687 20.6304 77.3971 20.7468C77.3441 20.8393 77.2858 20.9755 77.2221 21.1554C77.1479 21.2506 77.0484 21.4886 76.9236 21.8695C76.7988 22.2504 76.6357 22.6683 76.4341 23.1232C76.2478 24.0492 76.104 24.9698 76.0024 25.8853C75.8983 26.7795 75.8338 27.6474 75.8091 28.4888C75.79 29.0286 75.8465 29.3978 75.9786 29.5964C76.1081 29.7738 76.3977 29.8561 76.8476 29.8434C77.0831 29.8357 77.4536 29.7898 77.9591 29.7057C78.4831 29.5977 78.8881 29.4831 79.174 29.3617C79.3937 29.227 79.6241 29.0909 79.865 28.9536C80.1034 28.7951 80.3205 28.6392 80.5165 28.4859C80.6939 28.3565 80.8713 28.227 81.0488 28.0975C81.2236 27.9469 81.311 27.8716 81.311 27.8716C81.3958 27.6891 81.5057 27.6217 81.6406 27.6695C81.7755 27.7173 81.901 27.863 82.0172 28.1065C82.0487 28.3606 82.0286 28.6318 81.9568 28.9201C81.885 29.2085 81.534 29.5852 80.9038 30.0502C80.0245 30.761 79.1905 31.2298 78.4017 31.4565C77.6315 31.6594 76.9646 31.7421 76.401 31.7044ZM89.8846 29.1309C89.4873 29.567 88.9961 29.8536 88.4112 29.9906C87.8474 30.1249 87.2759 30.1097 86.6966 29.9451C86.1146 29.7592 85.6122 29.4345 85.1893 28.971C84.7717 28.5498 84.4732 28.0494 84.2939 27.4697C84.112 26.8689 84.003 26.0762 83.9671 25.0919C83.9283 24.2583 84.0906 23.3998 84.4541 22.5164C84.8149 21.6119 85.2828 20.7908 85.8578 20.0531C86.454 19.3129 87.0645 18.7751 87.6893 18.4397C87.9806 18.1886 88.2335 18.0605 88.4478 18.0555C88.6807 18.0266 89.0327 18.0045 89.5037 17.9891C89.9985 17.9923 90.3702 18.043 90.6188 18.1412C90.8886 18.2367 91.1107 18.3812 91.2852 18.5745C91.6421 18.8527 91.8932 19.1441 92.0384 19.4485C92.181 19.7318 92.2706 20.0217 92.3073 20.3181C92.2804 20.7943 92.0336 21.4053 91.5671 22.151C91.1191 22.8729 90.4874 23.4993 89.6718 24.0303C89.2244 24.2362 88.7242 24.3627 88.1711 24.4097C87.618 24.4568 87.1458 24.3756 86.7544 24.1661C86.3311 24.0466 86.0704 24.1111 85.9723 24.3597C85.8715 24.5872 85.8206 25.1309 85.8197 25.9909C85.8347 26.8059 85.9716 27.3908 86.2306 27.7457C86.4869 28.0794 86.7989 28.2557 87.1667 28.2746C87.6006 28.3068 87.9367 28.3296 88.1748 28.3431C88.4315 28.3328 88.7267 28.1995 89.0603 27.9432C89.3728 27.6895 89.5701 27.5468 89.6522 27.5152C89.7316 27.4623 89.7899 27.4121 89.827 27.3645C89.8826 27.2932 90.0032 27.1385 90.1887 26.9005C90.3185 26.734 90.4218 26.6137 90.4987 26.5397C90.5729 26.4445 90.6629 26.3904 90.7687 26.3772C90.8746 26.3641 90.9764 26.4053 91.0742 26.5006C91.1694 26.5748 91.262 26.6278 91.3519 26.6597C91.5636 26.6334 91.6217 26.7552 91.5261 27.025C91.4518 27.2922 91.2675 27.6267 90.9734 28.0286C90.6766 28.4093 90.3137 28.7767 89.8846 29.1309ZM89.0187 22.4023C89.2384 22.2676 89.4635 22.0892 89.694 21.8672C89.9218 21.624 90.106 21.3754 90.2465 21.1216C90.4056 20.8439 90.4746 20.6204 90.4536 20.451C90.4169 20.1546 90.2491 19.9282 89.9503 19.7718C89.6488 19.5941 89.232 19.6135 88.6999 19.8299C88.4749 19.9223 88.23 20.1139 87.965 20.4047C87.6975 20.6743 87.4445 20.9743 87.206 21.3049C86.9886 21.6327 86.8097 21.9236 86.6692 22.1775C86.5498 22.4287 86.514 22.5729 86.5616 22.61C86.6382 22.708 86.8286 22.7704 87.1329 22.7972C87.4346 22.8028 87.764 22.7727 88.1213 22.7069C88.4998 22.6385 88.7989 22.537 89.0187 22.4023ZM95.576 35.197C95.3429 35.3979 95.077 35.4201 94.7782 35.2637C94.5005 35.1046 94.2745 34.8424 94.1003 34.477C93.926 34.1117 93.8868 33.7081 93.9825 33.2663C94.0091 33.1341 94.0464 32.9145 94.0944 32.6076C94.1449 32.3219 94.1677 32.0718 94.1626 31.8575C94.1654 31.7067 94.1975 31.4447 94.2587 31.0717C94.3226 30.7199 94.3971 30.3667 94.4822 30.0122C94.5884 29.6551 94.6747 29.3972 94.741 29.2385C94.8418 29.0111 94.8963 28.7571 94.9045 28.4766C94.9339 28.1935 94.9395 27.9779 94.9211 27.8297C94.9451 27.6762 94.977 27.5003 95.0169 27.3019C95.078 27.1008 95.1443 26.9421 95.2159 26.8258C95.2373 26.6512 95.2785 26.4633 95.3395 26.2623C95.398 26.0401 95.471 25.8483 95.5585 25.687C95.5824 25.5336 95.5919 25.3497 95.5868 25.1354C95.603 24.9184 95.652 24.7941 95.7341 24.7624C95.7448 24.6751 95.7449 24.5891 95.7344 24.5044C95.7451 24.4171 95.773 24.2954 95.8181 24.1394C95.8316 23.9012 95.8849 23.5507 95.978 23.0877C96.0711 22.6247 96.1908 22.1155 96.3369 21.56C96.4937 20.9172 96.5274 20.3218 96.438 19.774C96.3672 19.2024 96.1651 18.8727 95.8318 18.785C95.652 18.7213 95.5317 18.618 95.471 18.4751C95.4076 18.3109 95.4078 18.1389 95.4715 17.9591C95.5352 17.7792 95.6478 17.647 95.8093 17.5625C95.9894 17.4542 96.1866 17.3975 96.4009 17.3925C96.6364 17.3848 96.8428 17.4022 97.02 17.4448C97.1946 17.4661 97.274 17.4993 97.2581 17.5442C97.2712 17.6501 97.332 17.707 97.4405 17.7151C97.4749 17.6463 97.5688 17.7099 97.7221 17.9059C97.8939 18.0781 98.059 18.2834 98.2175 18.5217C98.3761 18.76 98.4619 18.9321 98.475 19.0379C98.4431 19.1279 98.4285 19.1834 98.4311 19.2046C98.4311 19.2046 98.4735 19.1993 98.5582 19.1888C98.5582 19.1888 98.6681 19.1215 98.8878 18.9868C99.105 18.8309 99.3314 18.6631 99.5671 18.4834C99.8213 18.28 99.9855 18.1306 100.06 18.0355C100.06 18.0355 100.11 18.0077 100.211 17.9523C100.33 17.873 100.426 17.7858 100.501 17.6906C100.903 17.4688 101.354 17.3806 101.854 17.4261C102.376 17.469 102.802 17.6097 103.132 17.8482C103.621 18.3251 103.896 18.8069 103.956 19.2939C104.038 19.7782 103.976 20.4092 103.771 21.187C103.742 21.2981 103.669 21.4898 103.553 21.7622C103.454 22.0109 103.355 22.2489 103.254 22.4764C103.151 22.6826 103.099 22.7858 103.099 22.7858C102.706 23.6083 102.214 24.3143 101.62 24.9037C101.027 25.4931 100.415 26.0204 99.7847 26.4854C99.5914 26.6598 99.3835 26.8038 99.1611 26.9174C98.9573 27.0071 98.772 27.0731 98.6052 27.1152C98.4358 27.1362 98.3168 27.1295 98.248 27.095C97.9941 26.9545 97.7378 26.6208 97.4791 26.0939C97.4073 26.3823 97.3356 26.6706 97.2638 26.959C97.2106 27.2235 97.1787 27.3995 97.168 27.4868C97.1652 27.6376 97.1597 27.7672 97.1517 27.8757C97.141 27.963 97.0973 28.0437 97.0205 28.1177C97.0205 28.1177 97.0151 28.1614 97.0044 28.2487C96.9938 28.336 96.9354 28.4722 96.8294 28.6573C96.6937 29.2975 96.5688 29.8504 96.4545 30.316C96.3428 30.8027 96.2537 31.2115 96.1872 31.5421C96.1233 31.894 96.0754 32.2009 96.0433 32.4628C96.0718 33.0397 96.0249 33.6152 95.9026 34.1892C95.7829 34.7845 95.674 35.1204 95.576 35.197ZM98.2337 25.678C98.3131 25.6252 98.4786 25.4864 98.7302 25.2618C99.0004 25.0133 99.2984 24.7292 99.6242 24.4094C99.9474 24.0684 100.241 23.7525 100.506 23.4617C100.792 23.1683 100.981 22.9515 101.071 22.8114C101.216 22.5999 101.35 22.379 101.472 22.149C101.592 21.8977 101.677 21.6292 101.727 21.3435C101.77 21.1663 101.82 20.9666 101.879 20.7443C101.937 20.5221 101.986 20.3118 102.026 20.1134C102.09 19.9335 102.101 19.7602 102.058 19.5935C102.035 19.403 101.952 19.252 101.809 19.1407C101.722 19.1301 101.475 19.2251 101.07 19.4257C100.663 19.6052 100.224 19.8852 99.7557 20.2658C99.2843 20.6251 98.8882 21.0719 98.5675 21.606C98.1937 22.2328 97.939 22.8662 97.8034 23.5064C97.6889 24.144 97.6685 24.6732 97.7421 25.094C97.8369 25.5122 98.0008 25.7069 98.2337 25.678ZM116.237 26.2526C116.147 26.2207 116.011 26.1624 115.828 26.0775C115.664 25.9688 115.488 25.8509 115.301 25.7237C115.131 25.5727 115.007 25.4376 114.928 25.3184C114.851 25.2204 114.828 25.0299 114.857 24.7468C114.908 24.4611 114.975 24.313 115.06 24.3025C115.129 24.337 115.225 24.2497 115.35 24.0408C115.475 23.8319 115.598 23.6124 115.72 23.3824C115.839 23.1311 115.896 22.9843 115.891 22.942C115.902 22.8547 115.947 22.7846 116.026 22.7318C116.124 22.6551 116.212 22.5798 116.288 22.5058C116.373 22.3233 116.49 22.1369 116.638 21.9465C116.805 21.7324 116.934 21.5552 117.024 21.4151C117.167 21.1824 117.435 20.8268 117.827 20.3483C118.219 19.8697 118.599 19.3819 118.967 18.8849C119.352 18.3428 119.691 17.8709 119.985 17.469C120.277 17.0459 120.424 16.759 120.427 16.6082C120.427 16.6082 120.454 16.5725 120.51 16.5011C120.584 16.4059 120.67 16.32 120.768 16.2434C120.866 16.1668 120.991 16.0438 121.142 15.8747C121.314 15.7028 121.456 15.5456 121.567 15.4028C121.588 15.2282 121.676 14.9809 121.83 14.6608C122.002 14.317 122.181 14.0262 122.367 13.7882C122.504 13.5132 122.629 13.2183 122.741 12.9035C122.849 12.5676 122.916 12.3229 122.94 12.1694C122.974 11.9287 122.957 11.7911 122.889 11.7566C122.817 11.701 122.54 11.6279 122.055 11.5374C121.526 11.431 120.957 11.437 120.349 11.5554C119.758 11.65 119.126 12.0079 118.45 12.629C118.162 12.7292 117.897 12.848 117.656 12.9854C117.436 13.1201 117.24 13.1873 117.068 13.1872C116.978 13.1553 116.871 13.0718 116.747 12.9368C116.623 12.8017 116.489 12.6785 116.347 12.5672L115.946 11.9396L116.864 11.2778C117.664 10.6198 118.4 10.1416 119.072 9.84335C119.766 9.54244 120.421 9.45053 121.037 9.56762C121.27 9.53877 121.486 9.54429 121.684 9.58419C121.88 9.60293 121.978 9.61229 121.978 9.61229C122.145 9.57014 122.368 9.63918 122.649 9.81941C122.926 9.97847 123.2 10.1918 123.47 10.4593C123.76 10.7242 123.988 10.997 124.151 11.2777C124.553 11.7438 124.726 12.2706 124.67 12.858C124.632 13.4215 124.397 14.1278 123.965 14.9767C123.875 15.1169 123.675 15.4103 123.364 15.8572C123.054 16.3041 122.698 16.8104 122.295 17.3762C121.911 17.9183 121.552 18.4034 121.218 18.8317C120.905 19.2574 120.703 19.5297 120.61 19.6487C120.469 19.7306 120.243 19.9844 119.93 20.4101C119.636 20.8119 119.315 21.2601 118.968 21.7545C118.64 22.2252 118.359 22.6469 118.125 23.0198C117.911 23.3688 117.825 23.5407 117.867 23.5355C117.856 23.6228 117.893 23.6612 117.978 23.6507C118.06 23.6191 118.192 23.5597 118.375 23.4725C118.68 23.3273 119.079 23.1703 119.574 23.0015C120.09 22.8301 120.62 22.6785 121.162 22.5468C121.702 22.3939 122.172 22.2819 122.572 22.2109C122.993 22.1373 123.239 22.1283 123.31 22.1839C123.366 22.2845 123.403 22.3229 123.421 22.2991C123.458 22.2515 123.477 22.2278 123.477 22.2278C123.501 22.0743 123.76 21.9992 124.255 22.0023C124.771 22.0029 125.238 22.0418 125.656 22.119C125.897 22.1536 126.083 22.1842 126.215 22.2109C126.369 22.2348 126.451 22.2892 126.461 22.3739C126.461 22.3739 126.489 22.4242 126.545 22.5248C126.619 22.6016 126.728 22.7062 126.874 22.8387C127.246 23.0719 127.311 23.2466 127.068 23.3628C126.824 23.479 126.27 23.5154 125.404 23.4722C124.854 23.5404 124.403 23.6285 124.051 23.7366C123.971 23.7895 123.794 23.8329 123.519 23.867C123.243 23.9011 122.98 23.9445 122.729 23.9972C122.342 24.002 121.964 24.0704 121.593 24.2023C121.22 24.3131 120.779 24.4859 120.271 24.7209C120.088 24.808 119.804 24.94 119.417 25.1169C119.031 25.2937 118.612 25.4745 118.162 25.6593C117.712 25.844 117.301 25.9918 116.927 26.1025C116.575 26.2106 116.345 26.2606 116.237 26.2526Z" fill="#035771"/>
<path d="M38.7403 61.9485C38.2613 61.7175 37.8686 61.3593 37.5622 60.874C37.254 60.372 37.0782 59.8552 37.0349 59.3233C36.9023 58.2984 36.8682 57.254 36.9326 56.19C37.0116 55.1077 37.1523 54.0519 37.3547 53.0226C37.5027 52.4021 37.6653 51.7631 37.8427 51.1058C38.0347 50.4299 38.2314 49.7955 38.4328 49.2025C38.6342 48.6095 38.8155 48.1361 38.9768 47.7825C39.3948 46.8798 39.8545 46.1235 40.3559 45.5134C40.8719 44.8848 41.2614 44.4718 41.5242 44.2744C41.7411 44.1157 42.1236 43.9383 42.6717 43.7422C43.2364 43.5443 43.8336 43.4852 44.4632 43.5651C44.9069 43.6324 45.3202 43.7282 45.7033 43.8527C46.1029 43.9753 46.3672 44.088 46.4962 44.1908C46.6512 44.3746 46.7868 44.5354 46.903 44.6732C47.0339 44.7926 47.1105 44.9517 47.133 45.1504C47.1645 45.281 47.1335 45.4523 47.04 45.6641C46.9612 45.8575 46.8437 46.005 46.6875 46.1065C46.5478 46.2061 46.394 46.1815 46.2263 46.0328C45.9736 45.7259 45.7247 45.5275 45.4798 45.4378C45.233 45.3315 44.9696 45.2271 44.6896 45.1245C44.4944 45.0291 44.2394 44.9992 43.9247 45.0348C43.6082 45.0538 43.289 45.1234 42.9671 45.2436C42.6452 45.3638 42.3713 45.5373 42.1453 45.7641C41.9966 45.9319 41.8065 46.1798 41.5752 46.5078C41.342 46.8193 41.1126 47.1639 40.8869 47.5416C40.6612 47.9193 40.4842 48.2831 40.356 48.633C39.9968 49.4619 39.6799 50.2944 39.4053 51.1305C39.1455 51.9482 38.9437 52.8348 38.8 53.7903C38.76 54.0296 38.7072 54.3794 38.6418 54.8397C38.5929 55.298 38.5441 55.7564 38.4952 56.2148C38.4463 56.6732 38.4213 57.045 38.4199 57.3303C38.3957 58.1549 38.4347 58.8717 38.537 59.4807C38.6559 60.0879 38.9189 60.4859 39.326 60.6747C39.7331 60.8636 40.3587 60.7594 41.2028 60.3621C41.5781 60.2694 41.9651 60.058 42.3639 59.7278C42.7793 59.3957 43.1706 58.9993 43.5379 58.5385C43.9198 58.0593 44.2327 57.5627 44.4766 57.0487C44.6983 56.487 44.8878 55.9372 45.0451 55.3995C45.219 54.8599 45.2955 54.4236 45.2746 54.0905C45.2538 53.7574 45.0787 53.6178 44.7493 53.6718C44.1291 53.6748 43.6303 53.7143 43.2532 53.7905C42.8741 53.8501 42.5281 53.8304 42.215 53.7316C42.0785 53.5625 42.0082 53.386 42.0042 53.2019C42.0002 53.0179 42.079 52.8245 42.2406 52.6217C42.4153 52.5349 42.7161 52.4506 43.1429 52.3689C43.5698 52.2871 44.0354 52.2513 44.5397 52.2614C45.0421 52.255 45.4941 52.3213 45.8956 52.4605C46.1921 52.5612 46.4133 52.7375 46.5591 52.9894C46.7031 53.2247 46.7938 53.508 46.8313 53.8392C46.8687 54.1704 46.8739 54.5137 46.8469 54.8689C46.8053 55.2426 46.6727 55.7021 46.4491 56.2473C46.2402 56.7741 45.9772 57.3405 45.6598 57.9466C45.4507 58.3225 45.1459 58.7427 44.7456 59.2072C44.3617 59.6699 43.9567 60.093 43.5303 60.4766C43.1206 60.8583 42.7649 61.1249 42.4634 61.2764C41.8346 61.6493 41.1771 61.9165 40.4909 62.0779C39.8065 62.2558 39.223 62.2127 38.7403 61.9485ZM53.2692 58.647C52.955 58.9844 52.5689 59.2041 52.1108 59.3062C51.6693 59.4064 51.2229 59.3897 50.7717 59.2562C50.3187 59.1061 49.929 58.8482 49.6025 58.4825C49.2798 58.1499 49.0509 57.7565 48.9157 57.3021C48.7786 56.8312 48.7002 56.2111 48.6804 55.4418C48.6571 54.7903 48.7912 54.121 49.0826 53.4339C49.3721 52.7303 49.7446 52.0928 50.2 51.5214C50.672 50.9482 51.1535 50.5332 51.6444 50.2765C51.8741 50.0828 52.0727 49.9849 52.2402 49.9827C52.4224 49.9622 52.6975 49.9479 53.0656 49.9398C53.4521 49.9465 53.7421 49.9892 53.9355 50.068C54.1455 50.1449 54.3178 50.2597 54.4524 50.4122C54.7289 50.6325 54.9225 50.8622 55.0334 51.1013C55.1424 51.3238 55.21 51.551 55.2362 51.7829C55.2111 52.1547 55.0132 52.6299 54.6424 53.2085C54.2864 53.7687 53.7876 54.2527 53.146 54.6606C52.7947 54.8177 52.4028 54.9123 51.9704 54.9444C51.5379 54.9765 51.1697 54.909 50.8657 54.7421C50.5361 54.6451 50.3319 54.6934 50.2531 54.8868C50.1724 55.0636 50.1281 55.4879 50.1201 56.1597C50.1249 56.7965 50.227 57.2546 50.4263 57.534C50.6237 57.7969 50.866 57.9372 51.1531 57.9551C51.4918 57.984 51.7542 58.0047 51.9401 58.0172C52.1407 58.0113 52.3724 57.9097 52.6352 57.7122C52.8815 57.5167 53.0368 57.4069 53.1012 57.3829C53.1637 57.3423 53.2097 57.3035 53.239 57.2667C53.2831 57.2114 53.3786 57.0916 53.5255 56.9072C53.6283 56.7782 53.7101 56.6851 53.7707 56.628C53.8295 56.5542 53.9003 56.5127 53.9831 56.5033C54.0659 56.494 54.1451 56.527 54.2207 56.6023C54.2944 56.6611 54.3663 56.7033 54.4362 56.7289C54.6019 56.7102 54.6462 56.8058 54.5693 57.0158C54.5089 57.2239 54.3622 57.4836 54.129 57.7951C53.8939 58.09 53.6073 58.374 53.2692 58.647ZM52.6495 53.3833C52.8223 53.2799 52.9996 53.1425 53.1815 52.971C53.3616 52.7829 53.5075 52.5903 53.6195 52.3932C53.7461 52.1776 53.8019 52.0036 53.7869 51.8711C53.7607 51.6392 53.6316 51.4609 53.3994 51.3362C53.1654 51.1949 52.8397 51.2065 52.4222 51.3711C52.2456 51.4414 52.0526 51.5889 51.8432 51.8139C51.6319 52.0222 51.4317 52.2545 51.2426 52.5107C51.0701 52.765 50.9279 52.9907 50.8159 53.1879C50.7206 53.3831 50.6913 53.4954 50.7282 53.5248C50.7872 53.602 50.9355 53.6524 51.173 53.6759C51.4086 53.6828 51.6662 53.6621 51.9459 53.6137C52.2421 53.5635 52.4766 53.4867 52.6495 53.3833ZM59.0166 58.7023C58.8306 58.6897 58.6299 58.6202 58.4143 58.4936C58.2134 58.3485 58.0273 58.1851 57.8558 58.0032C57.6989 57.8028 57.5863 57.6227 57.518 57.4627C57.5142 57.4295 57.4847 57.3909 57.4294 57.3469C57.3907 57.3009 57.3713 57.2779 57.3713 57.2779C57.2994 57.2357 57.2337 57.0251 57.1741 56.6461C57.1292 56.2486 57.1045 55.8069 57.0999 55.321C57.0954 54.8351 57.1103 54.4477 57.1448 54.1587C57.1976 53.8843 57.2816 53.5142 57.3967 53.0484C57.51 52.5659 57.604 52.136 57.6788 51.7586L58.1868 50.242L57.1622 50.0809C57.0425 50.0609 56.9357 50.0059 56.8417 49.9159C56.7642 49.824 56.7217 49.7449 56.7142 49.6787C56.6993 49.5462 56.756 49.3804 56.8845 49.1814C57.0111 48.9659 57.1075 48.8543 57.1738 48.8468C57.2585 48.8541 57.4084 48.8455 57.6237 48.8212C57.8556 48.795 58.0782 48.7615 58.2917 48.7206C58.5051 48.6797 58.6357 48.6482 58.6835 48.626C58.746 48.5854 58.8076 48.5365 58.8682 48.4793C58.927 48.4056 58.9664 48.3089 58.9864 48.1892C59.0487 47.9977 59.1045 47.8237 59.1539 47.6672C59.2014 47.4941 59.2719 47.3016 59.3654 47.0898C59.457 46.8614 59.5275 46.6689 59.577 46.5124C59.6429 46.354 59.7438 46.1329 59.8794 45.8492C59.9491 45.724 60.0243 45.5729 60.105 45.3961C60.1857 45.2192 60.294 45.0644 60.4299 44.9317C60.564 44.7823 60.7065 44.7075 60.8574 44.7073C61.0231 44.6885 61.2422 44.7728 61.515 44.9601C61.6662 45.1107 61.7547 45.2265 61.7806 45.3074C61.8066 45.3884 61.7581 45.5532 61.6352 45.8019C61.5345 46.0984 61.409 46.3977 61.2586 46.6998C61.1248 47.0001 60.9993 47.2994 60.882 47.5978C60.6582 47.992 60.6319 48.2047 60.8031 48.2356C60.9743 48.2666 61.4343 48.1811 62.183 47.9791C62.654 47.8421 63.0046 47.8277 63.2348 47.9358C63.4632 48.0274 63.6099 48.2121 63.6748 48.4899C63.7694 48.8818 63.7551 49.1266 63.632 49.2244C63.5088 49.3222 63.1326 49.4066 62.5033 49.4777C62.1133 49.5888 61.7784 49.6686 61.4988 49.7169C61.2172 49.7487 61.0102 49.7721 60.8777 49.7871C60.6643 49.828 60.5244 49.8521 60.4582 49.8596C60.392 49.8671 60.2945 49.8949 60.1657 49.943C60.037 49.9911 59.9441 50.0602 59.8872 50.1505C59.845 50.2224 59.7983 50.3283 59.747 50.4683C59.6883 50.542 59.6085 50.7271 59.5078 51.0236C59.4071 51.3201 59.2761 51.6452 59.1148 51.9989C58.9615 52.7207 58.8414 53.4387 58.7543 54.153C58.6654 54.8507 58.6077 55.5281 58.5813 56.1852C58.5618 56.6068 58.6028 56.8956 58.7043 57.0519C58.804 57.1916 59.0296 57.2584 59.3811 57.2522C59.5652 57.2482 59.855 57.2155 60.2506 57.154C60.6609 57.0741 60.9782 56.988 61.2026 56.8955C61.3754 56.7921 61.5565 56.6878 61.7459 56.5826C61.9334 56.4608 62.1044 56.3408 62.2587 56.2227C62.3984 56.1231 62.5381 56.0235 62.6778 55.9238C62.8157 55.8076 62.8846 55.7495 62.8846 55.7495C62.9524 55.6077 63.0388 55.556 63.1438 55.5944C63.2488 55.6329 63.3456 55.7477 63.4343 55.939C63.4568 56.1377 63.4388 56.3494 63.3803 56.5741C63.3218 56.7987 63.0444 57.09 62.5481 57.448C61.8552 57.9959 61.1997 58.3551 60.5816 58.5255C59.9782 58.6775 59.4565 58.7365 59.0166 58.7023ZM77.4013 57.2547C76.89 57.4802 76.3824 57.6633 75.8783 57.8041C75.3927 57.9596 74.8628 58.0195 74.2885 57.9837C73.7326 57.9626 73.0789 57.8184 72.3275 57.5511C72.2904 57.3708 72.1971 57.2136 72.0478 57.0795C71.9132 56.9269 71.7704 56.8508 71.6195 56.8511C71.5514 56.842 71.4592 56.7686 71.343 56.6307C71.2433 56.491 71.1474 56.3845 71.0553 56.311C70.9832 56.1179 70.9313 55.956 70.8998 55.8254C70.8848 55.6929 70.8818 55.5171 70.8906 55.2981C70.8975 55.0625 70.9107 54.7339 70.9302 54.3124C70.9887 54.0878 71.0681 53.7517 71.1685 53.3043C71.2836 52.8384 71.4106 52.3293 71.5495 51.7769C71.7031 51.206 71.8668 50.6508 72.0407 50.1112C72.4685 48.5534 72.8004 47.3334 73.0362 46.4514C73.2886 45.5675 73.4576 44.911 73.5434 44.482C73.6291 44.053 73.6617 43.7474 73.6411 43.5653C73.6205 43.3831 73.5585 43.2056 73.4552 43.0328C73.3202 42.7293 73.2884 42.4478 73.3598 42.1881C73.4476 41.9266 73.6423 41.7201 73.9439 41.5687C74.2399 41.3675 74.546 41.182 74.8623 41.0121C75.1932 40.8237 75.5187 40.6612 75.8387 40.5244C76.1587 40.3876 76.4576 40.2868 76.7354 40.2218C76.9635 40.1625 77.2451 40.1307 77.58 40.1264C77.915 40.1222 78.2445 40.1436 78.5685 40.1909C78.9091 40.2363 79.2019 40.3039 79.4468 40.3936C79.6899 40.4668 79.8438 40.5668 79.9084 40.6937C79.9084 40.6937 79.9342 40.6992 79.9857 40.7101C80.0373 40.7211 80.0631 40.7265 80.0631 40.7265C80.0631 40.7265 80.0971 40.7311 80.1652 40.7402C80.2334 40.7492 80.3411 40.8125 80.4886 40.9301C80.6857 41.042 80.8683 41.2478 81.0364 41.5475C81.2025 41.8306 81.2665 42.1002 81.2283 42.3561C81.2358 42.4223 81.2645 42.5281 81.3145 42.6734C81.381 42.8168 81.4411 42.9778 81.4948 43.1562C81.6281 43.594 81.6346 44.0965 81.5141 44.6636C81.3937 45.2307 81.0865 45.8524 80.5926 46.5288C80.4201 46.7831 80.2632 47.0272 80.1219 47.2612C79.9971 47.4934 79.8924 47.6058 79.8077 47.5986C79.659 47.7664 79.5535 47.946 79.4912 48.1376C79.4271 48.3125 79.4715 48.4081 79.6243 48.4244C79.6243 48.4244 79.6916 48.5007 79.8262 48.6532C79.9609 48.8057 80.1406 48.9867 80.3656 49.1961C80.7345 49.6408 80.9978 50.1898 81.1554 50.8429C81.3277 51.4775 81.3564 52.1033 81.2416 52.7201C81.1724 53.1472 80.9525 53.65 80.5818 54.2286C80.2092 54.7907 79.7436 55.3464 79.1851 55.8959C78.6412 56.427 78.0466 56.8799 77.4013 57.2547ZM74.5564 56.5697C75.1454 56.587 75.759 56.4506 76.3971 56.1605C77.0353 55.8704 77.6272 55.4681 78.1729 54.9536C78.7333 54.4207 79.1629 53.8438 79.4618 53.223C79.8601 52.591 80.0247 52.044 79.9558 51.5822C79.9015 51.1019 79.7093 50.6624 79.3791 50.2636C79.0877 49.9107 78.78 49.7107 78.4559 49.6634C78.1301 49.5996 77.797 49.6204 77.4567 49.7259C77.1163 49.8315 76.7623 49.9637 76.3945 50.1227C76.0854 50.2079 75.7314 50.3401 75.3323 50.5194C74.9332 50.6986 74.5663 50.8659 74.2316 51.0211C73.9116 51.1579 73.7019 51.2319 73.6026 51.2431C73.6026 51.2431 73.5585 51.2984 73.4704 51.409C73.3822 51.5196 73.295 51.6384 73.2087 51.7656C73.1206 51.8762 73.072 51.9655 73.0629 52.0337C72.9838 52.0761 72.9077 52.2189 72.8345 52.462C72.7595 52.6885 72.6965 52.9472 72.6454 53.2381C72.6091 53.5106 72.5866 53.7563 72.5778 53.9754C72.569 54.1944 72.5811 54.3021 72.6142 54.2983C72.6989 54.3055 72.7056 54.439 72.6343 54.6986C72.5795 54.9564 72.545 55.1699 72.5305 55.3393C72.443 55.7517 72.6129 56.068 73.0403 56.2881C73.4842 56.5063 73.9896 56.6002 74.5564 56.5697ZM74.1598 49.4945C74.2905 49.463 74.5066 49.3715 74.8081 49.22C75.1078 49.052 75.3864 48.9199 75.6439 48.8237C76.3761 48.6236 77.0335 48.281 77.616 47.7959C78.2133 47.2923 78.7037 46.7337 79.0873 46.1201C79.4855 45.4881 79.7458 44.8968 79.8681 44.3463C79.9469 44.1529 79.9906 43.8712 79.9991 43.5013C80.0057 43.1147 79.9832 42.8405 79.9313 42.6787L79.9089 42.4799C79.7574 42.1784 79.4423 41.9875 78.9637 41.9074C78.485 41.8273 77.9421 41.8467 77.3349 41.9656C76.7259 42.0679 76.152 42.2585 75.6132 42.5374C75.3944 42.6795 75.2733 42.8693 75.2498 43.1068C75.2244 43.3277 75.1919 43.6333 75.1521 44.0236C75.1326 44.4451 75.0634 44.8722 74.9446 45.3049C74.8257 45.7377 74.7353 46.1253 74.6734 46.4677C74.6643 46.5359 74.6294 46.5985 74.5688 46.6557C74.5082 46.7128 74.4844 46.7994 74.4975 46.9153C74.4975 46.9153 74.4526 47.0378 74.3629 47.2827C74.2897 47.5258 74.2276 47.7928 74.1766 48.0837C74.0925 48.3783 74.0295 48.637 73.9875 48.8598C73.9622 49.0807 73.9495 49.1912 73.9495 49.1912C73.9495 49.1912 73.9662 49.2648 73.9996 49.412C74.0495 49.5573 74.103 49.5848 74.1598 49.4945ZM85.1814 55.1432C84.9293 55.1381 84.6943 54.9885 84.4766 54.6944C84.2736 54.3819 84.1406 54.095 84.0775 53.8338C84.0791 53.6994 84.0741 53.5071 84.0627 53.2568C84.0677 53.0047 84.0718 52.7442 84.075 52.4755C84.1057 52.1533 84.1538 51.7621 84.2192 51.3019C84.2828 50.8251 84.3463 50.3483 84.4099 49.8715C84.49 49.3928 84.561 48.9822 84.623 48.6398C84.6849 48.2973 84.7287 48.0911 84.7544 48.0211C84.8222 47.8793 84.951 47.8312 85.1406 47.8768C85.3303 47.9225 85.4906 48.005 85.6215 48.1244C85.7358 48.2457 85.8115 48.3965 85.8487 48.5768C85.9024 48.7552 85.9075 49.023 85.8639 49.3802C85.837 49.7354 85.7625 50.2638 85.6404 50.9653C85.5331 51.6483 85.4531 52.2024 85.4005 52.6277C85.3626 53.0345 85.3772 53.4606 85.4442 53.9059C85.4416 54.4764 85.4312 54.8298 85.413 54.9661C85.393 55.0857 85.3158 55.1448 85.1814 55.1432ZM86.9187 44.9085C86.8581 44.9657 86.7946 44.998 86.7284 45.0055C86.6768 44.9945 86.5801 44.9551 86.4383 44.8873C86.3205 44.8838 86.163 44.8261 85.9659 44.7142C85.7834 44.5839 85.6176 44.4517 85.4682 44.3176C85.3336 44.1651 85.2644 44.0722 85.2607 44.0391C85.2254 43.8754 85.2103 43.6674 85.2154 43.4153C85.2351 43.1447 85.3 42.9025 85.4101 42.6888C85.5182 42.4586 85.6956 42.3211 85.9421 42.2765C86.0084 42.269 86.0673 42.2707 86.1188 42.2817C86.1704 42.2926 86.326 42.3338 86.5856 42.4051C86.7462 42.6385 86.9105 42.9051 87.0785 43.2048C87.2447 43.488 87.3363 43.7795 87.3534 44.0795C87.3687 44.3629 87.2238 44.6392 86.9187 44.9085ZM91.1522 55.0978C90.9387 55.1386 90.763 55.1417 90.6249 55.107C90.4849 55.0557 90.309 54.9833 90.0972 54.8899C89.701 54.6495 89.3959 54.3988 89.182 54.1378C88.9827 53.8584 88.8754 53.577 88.8602 53.2936C88.8765 53.1408 88.8615 53.0083 88.8153 52.8961C88.7856 52.7821 88.7708 52.725 88.7708 52.725C88.6621 52.6535 88.6233 52.6075 88.6546 52.5872C88.684 52.5503 88.7032 52.4979 88.7123 52.4297C88.841 52.3817 88.8473 52.2887 88.7311 52.1509C88.6665 52.024 88.6576 51.7231 88.7046 51.2481C88.7663 50.7548 88.8649 50.2908 89.0003 49.8562C89.0625 49.6646 89.1513 49.4114 89.2667 49.0965C89.3986 48.7796 89.5471 48.461 89.7122 48.1404C89.8754 47.8033 90.0295 47.5343 90.1745 47.3334C90.4921 46.8782 90.7805 46.5354 91.0396 46.3048C91.3133 46.0559 91.6249 45.8446 91.9743 45.6709C92.2906 45.501 92.5223 45.3994 92.6695 45.366C92.8167 45.3326 93.0349 45.4086 93.3242 45.5939C93.7348 45.665 94.0516 45.7969 94.2746 45.9898C94.5124 46.1642 94.7135 46.4601 94.8781 46.8776C95.0648 47.343 95.1708 47.9096 95.1959 48.5777C95.2357 49.2273 95.0487 50.0955 94.6347 51.1822C94.393 51.8636 94.1335 52.3877 93.8562 52.7545C93.5955 53.1194 93.2705 53.5083 92.881 53.9213C92.5963 54.2218 92.3299 54.4616 92.0817 54.6405C91.8336 54.8195 91.5237 54.9719 91.1522 55.0978ZM92.8056 51.9171C93.0807 51.3828 93.286 50.8984 93.4214 50.4638C93.5715 50.0107 93.668 49.4547 93.711 48.7957C93.7236 48.6098 93.7066 48.3853 93.6601 48.1222C93.6117 47.8425 93.5413 47.5905 93.4489 47.3661C93.373 47.1399 93.2845 47.0241 93.1832 47.0188C92.9586 46.9603 92.7184 46.9874 92.4628 47.1001C92.2053 47.1963 91.9379 47.4278 91.6607 47.7945C91.4166 48.1576 91.2019 48.5592 91.0168 48.9994C90.8483 49.4378 90.701 49.9156 90.575 50.4331C90.4489 50.9505 90.3349 51.5001 90.2329 52.0819C90.1383 52.7299 90.2009 53.2093 90.4204 53.5199C90.6566 53.8287 90.9889 53.875 91.4173 53.6589C91.8439 53.4262 92.3067 52.8456 92.8056 51.9171ZM99.9616 53.675C99.5973 53.7162 99.3221 53.7305 99.1362 53.7179C98.9503 53.7054 98.8039 53.6716 98.6971 53.6166C98.5902 53.5616 98.464 53.4836 98.3184 53.3826C98.2372 53.2576 98.1385 53.1262 98.0223 52.9884C97.9061 52.8505 97.8111 52.7522 97.7374 52.6935C97.6431 52.4525 97.5735 52.1333 97.5286 51.7359C97.5003 51.3365 97.5013 50.9003 97.5317 50.4272C97.5787 49.9523 97.6626 49.5067 97.7833 49.0906C97.8346 48.9506 97.8776 48.8115 97.9123 48.6734C97.947 48.5353 97.9644 48.4663 97.9644 48.4663C97.955 48.3835 98.0319 48.1735 98.1951 47.8364C98.3749 47.4974 98.5693 47.14 98.7785 46.7642C99.0042 46.3864 99.1914 46.1137 99.3402 45.9459C99.4412 45.8004 99.5992 45.6399 99.8142 45.4647C100.046 45.2876 100.249 45.1556 100.424 45.0688C100.598 44.982 100.774 44.9034 100.95 44.8332C101.144 44.761 101.364 44.711 101.613 44.6829C101.845 44.6567 102.066 44.6821 102.276 44.759C102.485 44.8359 102.696 44.9883 102.906 45.2161C103.238 45.4806 103.437 45.76 103.504 46.0543C103.585 46.3303 103.61 46.621 103.577 46.9266C103.532 47.2672 103.453 47.5361 103.341 47.7332C103.227 47.9138 103.087 48.0051 102.919 48.0073C102.752 48.0094 102.547 47.9067 102.306 47.6992C102.225 47.5742 102.179 47.4703 102.17 47.3875C102.159 47.2881 102.176 47.1436 102.222 46.9539C102.262 46.7146 102.234 46.4744 102.14 46.2335C102.046 45.9926 101.924 45.8805 101.775 45.8973C101.56 45.9217 101.331 46.0482 101.088 46.2768C100.861 46.4871 100.63 46.7479 100.397 47.0594C100.296 47.205 100.154 47.4307 99.9702 47.7366C99.8013 48.024 99.6363 48.3445 99.475 48.6982C99.3118 49.0353 99.1808 49.3604 99.0819 49.6735C98.9615 50.2406 98.862 50.6963 98.7835 51.0406C98.7215 51.3831 98.6906 51.5543 98.6906 51.5543C98.698 51.6205 98.7221 51.6849 98.7627 51.7474C98.818 51.7915 98.8494 51.8466 98.8569 51.9129C98.8793 52.1116 99.013 52.2559 99.258 52.3456C99.4532 52.441 99.676 52.4829 99.9263 52.4714C100.175 52.4433 100.472 52.3259 100.817 52.1192C101.067 51.9567 101.296 51.7548 101.504 51.5133C101.728 51.2699 101.963 51.0505 102.209 50.8549C102.378 50.7184 102.508 50.6032 102.598 50.5091C102.705 50.4132 102.762 50.3984 102.769 50.4647C102.777 50.5309 102.805 50.5612 102.855 50.5556C102.904 50.55 102.959 50.5103 103.017 50.4366C103.102 50.2929 103.2 50.1979 103.312 50.1517C103.423 50.0889 103.52 50.0611 103.605 50.0683C103.704 50.0571 103.757 50.0764 103.762 50.126C103.746 50.2788 103.793 50.3993 103.904 50.4874C103.911 50.5537 103.897 50.6476 103.86 50.7691C103.838 50.8722 103.798 50.9607 103.739 51.0344C103.669 51.1597 103.56 51.3062 103.411 51.4739C103.279 51.6398 103.153 51.7882 103.034 51.9191C102.913 52.0334 102.852 52.0906 102.852 52.0906C102.784 52.0815 102.72 52.1056 102.659 52.1627C102.615 52.218 102.563 52.2826 102.505 52.3563C102.385 52.4872 102.271 52.5923 102.163 52.6716C102.053 52.7344 101.964 52.7695 101.898 52.777C101.79 52.8564 101.703 52.9081 101.639 52.9321C101.591 52.9543 101.571 52.9985 101.578 53.0647C101.431 53.249 101.237 53.3884 100.997 53.4827C100.77 53.5585 100.425 53.6227 99.9616 53.675ZM107.799 52.9911C107.584 53.0154 107.405 52.9936 107.263 52.9258C107.138 52.8561 106.976 52.757 106.777 52.6285C106.425 52.3328 106.166 52.0434 106 51.7603C105.831 51.4606 105.756 51.1671 105.774 50.88C105.809 50.7419 105.812 50.6158 105.782 50.5017C105.767 50.3693 105.759 50.303 105.759 50.303C105.667 50.2296 105.637 50.1827 105.668 50.1624C105.697 50.1255 105.725 50.0721 105.751 50.0021C105.85 49.9909 105.873 49.896 105.819 49.7176C105.771 49.5889 105.805 49.2916 105.92 48.8257C106.035 48.3598 106.194 47.9141 106.398 47.4886C106.478 47.3118 106.603 47.0796 106.772 46.7922C106.939 46.4882 107.123 46.1906 107.325 45.8995C107.542 45.5899 107.74 45.341 107.92 45.153C108.295 44.7584 108.63 44.4606 108.926 44.2594C109.222 44.0582 109.548 43.8957 109.903 43.7717C110.258 43.6478 110.501 43.5783 110.634 43.5633C110.783 43.5465 110.997 43.6566 111.275 43.8935C111.675 44.0161 111.97 44.1839 112.162 44.3971C112.37 44.6084 112.525 44.9348 112.625 45.3763C112.731 45.8676 112.754 46.4436 112.694 47.1045C112.649 47.7469 112.349 48.5775 111.793 49.5963C111.447 50.2393 111.116 50.7295 110.802 51.0669C110.486 51.3877 110.104 51.716 109.655 52.0518C109.334 52.3229 109.039 52.5324 108.77 52.6801C108.5 52.8113 108.176 52.9149 107.799 52.9911ZM109.886 50.0885C110.233 49.5964 110.5 49.1385 110.687 48.7149C110.891 48.2894 111.066 47.758 111.212 47.121C111.257 46.9313 111.274 46.703 111.26 46.4362C111.245 46.1528 111.208 45.897 111.148 45.6689C111.104 45.4223 111.03 45.2881 110.927 45.2662C110.715 45.1727 110.471 45.1667 110.195 45.2482C109.917 45.3131 109.629 45.5051 109.329 45.824C108.865 46.3126 108.478 46.9014 108.17 47.5903C107.86 48.2626 107.569 49.0252 107.296 49.8778C107.115 50.5021 107.112 50.9889 107.285 51.3383C107.474 51.6692 107.794 51.7589 108.247 51.6071C108.714 51.4369 109.26 50.9307 109.886 50.0885ZM115.954 51.3404C115.888 51.3479 115.783 51.3177 115.642 51.2499C115.514 51.1636 115.414 51.0911 115.34 51.0323C115.209 50.9129 115.12 50.7888 115.072 50.6601C115.04 50.5295 114.998 50.2323 114.946 49.7686C114.886 49.2386 114.929 48.6551 115.075 48.018C115.22 47.3643 115.485 46.4454 115.871 45.2613L116.494 43.4297C116.546 43.2898 116.592 43.1839 116.635 43.112C116.693 43.0383 116.744 42.9655 116.786 42.8936C116.852 42.8861 116.91 42.8796 116.96 42.874C117.01 42.8684 117.034 42.8656 117.034 42.8656C117.167 42.8506 117.309 42.9184 117.46 43.0691C117.609 43.2032 117.727 43.3576 117.814 43.5323C117.838 43.7476 117.831 43.9749 117.791 44.2142C117.767 44.4517 117.608 44.8219 117.312 45.3249C117.217 45.5202 117.094 45.8443 116.944 46.2974C116.81 46.7486 116.728 47.1352 116.698 47.4574C116.683 47.4758 116.658 47.5541 116.624 47.6922C116.587 47.8137 116.544 47.9528 116.495 48.1093C116.462 48.264 116.42 48.4113 116.368 48.5512L116.306 49.1118L117.777 47.2097C118.467 46.3434 119.034 45.7175 119.477 45.332C119.92 44.9466 120.285 44.7628 120.572 44.7807C120.859 44.7985 121.124 44.995 121.368 45.37C121.504 45.5391 121.606 45.6954 121.672 45.8388C121.754 45.9638 121.816 46.1413 121.858 46.3713C121.901 46.6013 121.924 46.9509 121.927 47.4203L122.1 48.9605C122.341 48.8662 122.534 48.7858 122.677 48.7192C122.819 48.6362 122.968 48.5521 123.127 48.4672C123.268 48.3841 123.436 48.3065 123.629 48.2344C123.82 48.1457 124.064 48.0762 124.36 48.026C124.368 48.2432 124.319 48.4834 124.215 48.7468C124.109 48.9936 123.968 49.2359 123.794 49.4737C123.619 49.7114 123.415 49.9106 123.182 50.0711C122.965 50.2298 122.741 50.3222 122.509 50.3484C122.294 50.3727 122.041 50.2922 121.752 50.1068C121.463 49.9215 121.245 49.7028 121.099 49.451C121.012 49.2763 120.949 49.0822 120.908 48.8688C120.883 48.6535 120.838 48.256 120.773 47.6764L120.669 46.7572C120.639 46.4922 120.548 46.427 120.395 46.5617C120.258 46.6779 120.144 46.783 120.054 46.877C119.83 47.1204 119.593 47.3987 119.343 47.7121C119.11 48.0236 118.869 48.3442 118.621 48.6741C117.949 49.5551 117.378 50.2151 116.908 50.654C116.454 51.091 116.136 51.3198 115.954 51.3404ZM132.63 51.0418C132.421 51.1158 132.235 51.1032 132.073 51.0041C131.929 50.9197 131.813 50.7819 131.724 50.5907C131.549 50.2247 131.402 49.8219 131.286 49.3822C131.184 48.9241 131.13 48.5193 131.123 48.1678L131.114 47.6405L130.232 48.52C129.725 49.0805 129.219 49.4983 128.713 49.7734C128.224 50.0467 127.781 50.2058 127.384 50.2507C127.198 50.2381 127.008 50.1925 126.815 50.1137C126.621 50.0349 126.442 49.9294 126.276 49.7972C126.126 49.6631 126.001 49.5179 125.899 49.3616C125.774 49.141 125.705 48.8301 125.693 48.4289C125.698 48.0258 125.749 47.584 125.846 47.1034C125.957 46.6044 126.103 46.1183 126.285 45.6449C126.481 45.1531 126.716 44.7156 126.992 44.3323C127.445 43.4425 127.976 42.8709 128.584 42.6177C129.193 42.3644 129.825 42.3854 130.478 42.6805C130.93 42.814 131.204 42.8669 131.301 42.8391C131.416 42.8095 131.493 42.6078 131.535 42.2341C131.571 41.9616 131.608 41.6892 131.644 41.4167C131.678 41.1277 131.744 40.7429 131.841 40.2623C132.113 38.9569 132.357 37.9313 132.575 37.1855C132.809 36.4378 133.021 35.7849 133.209 35.2269C133.348 34.8254 133.471 34.5767 133.578 34.4808C133.699 34.3665 133.827 34.3101 133.961 34.3117C134.143 34.2911 134.316 34.3387 134.48 34.4543C134.644 34.57 134.781 34.7391 134.89 34.9616C134.973 35.1032 135.013 35.2328 135.009 35.3506C135.021 35.45 134.987 35.5964 134.908 35.7898C134.738 36.2116 134.541 36.7705 134.318 37.4667C134.109 38.1444 133.9 38.8892 133.689 39.7013C133.496 40.5115 133.318 41.3115 133.155 42.1014C132.993 42.8913 132.862 43.5854 132.762 44.1837C132.703 44.5593 132.665 45.0333 132.645 45.6058C132.643 46.1763 132.65 46.7625 132.668 47.3643C132.684 47.9496 132.71 48.475 132.745 48.9406C132.796 49.3878 132.845 49.6757 132.893 49.8045C133.03 50.1245 133.1 50.3682 133.102 50.5357C133.12 50.7013 133.091 50.8136 133.014 50.8727C132.939 50.9483 132.811 51.0046 132.63 51.0418ZM128.121 48.7585C128.347 48.6826 128.56 48.5663 128.761 48.4095C128.977 48.2508 129.2 48.0664 129.428 47.8561C129.882 47.4191 130.273 47.0227 130.602 46.6669C130.93 46.311 131.116 45.8036 131.159 45.1446C131.157 44.8262 131.096 44.5816 130.976 44.4106C130.871 44.2212 130.709 44.0549 130.492 43.9118C130.278 43.8017 129.999 43.7829 129.655 43.8553C129.326 43.9093 128.998 44.1225 128.671 44.4949C128.314 44.9041 127.98 45.4366 127.669 46.0924C127.374 46.7463 127.185 47.5307 127.104 48.4456C127.09 48.615 127.154 48.7419 127.298 48.8263C127.442 48.9107 127.716 48.8881 128.121 48.7585ZM141.653 49.4943C141.545 49.5737 141.385 49.5666 141.173 49.4731C140.978 49.3778 140.776 49.2244 140.567 49.0132C140.429 48.8275 140.322 48.6216 140.246 48.3953C140.187 48.1672 140.134 47.8461 140.087 47.4321C140.066 47.099 140.025 46.8856 139.964 46.7918C139.92 46.6962 139.831 46.723 139.697 46.8724C139.561 47.0051 139.331 47.2743 139.008 47.6798C138.641 48.1406 138.28 48.5084 137.925 48.7833C137.587 49.0563 137.301 49.1976 137.067 49.2073C136.951 49.2203 136.812 49.1773 136.65 49.0783C136.503 48.9607 136.361 48.8174 136.224 48.6483C136.086 48.4627 135.964 48.2752 135.859 48.0858C135.718 47.7327 135.649 47.2708 135.652 46.7003C135.669 46.1113 135.733 45.4918 135.844 44.8419C135.955 44.192 136.095 43.5724 136.263 42.9831C136.448 42.392 136.645 41.9085 136.854 41.5326C137.08 41.1549 137.292 40.9548 137.491 40.9324C137.624 40.9174 137.747 40.9706 137.861 41.0918C137.992 41.2112 138.131 41.4052 138.279 41.6736C138.359 41.7821 138.395 41.8786 138.387 41.9633C138.397 42.0461 138.342 42.153 138.222 42.2838C138.096 42.4994 137.955 42.8172 137.802 43.2371C137.664 43.6551 137.531 44.1063 137.401 44.5906C137.288 45.073 137.189 45.537 137.105 45.9826C137.022 46.4281 136.971 46.7945 136.953 47.0816C136.933 47.3522 136.956 47.4838 137.023 47.4763C137.254 47.4501 137.517 47.3282 137.811 47.1105C138.12 46.8743 138.408 46.5986 138.674 46.2834C138.983 45.8963 139.246 45.4808 139.464 45.0369C139.699 44.591 139.931 44.1204 140.16 43.6248C140.338 43.2693 140.52 42.8797 140.707 42.456C140.911 42.0305 141.036 41.7312 141.084 41.5581C141.267 41.1013 141.408 40.7918 141.507 40.6297C141.605 40.451 141.733 40.3274 141.893 40.259C141.976 40.2497 142.051 40.2413 142.117 40.2338C142.2 40.2244 142.241 40.2198 142.241 40.2198C142.342 40.2251 142.467 40.2865 142.614 40.4041C142.754 40.4553 142.836 40.5132 142.86 40.5775C142.882 40.6254 142.898 40.6907 142.907 40.7735C142.86 40.9466 142.78 41.2071 142.669 41.5552C142.572 41.8848 142.499 42.1279 142.449 42.2845C142.215 43.0321 141.98 43.7715 141.744 44.5027C141.522 45.2153 141.385 45.9352 141.333 46.6623C141.326 46.8979 141.349 47.1721 141.401 47.4849C141.468 47.7793 141.542 47.989 141.623 48.114C141.684 48.2077 141.755 48.3171 141.836 48.4421C141.932 48.5487 142.035 48.6378 142.143 48.7094C142.304 48.7919 142.341 48.8968 142.254 49.0239C142.185 49.1492 142.08 49.2616 141.94 49.3613C141.799 49.4444 141.703 49.4887 141.653 49.4943ZM147.559 48.2989C147.195 48.3401 146.92 48.3544 146.734 48.3418C146.548 48.3293 146.402 48.2955 146.295 48.2405C146.188 48.1854 146.062 48.1074 145.916 48.0065C145.835 47.8815 145.736 47.7501 145.62 47.6122C145.504 47.4744 145.409 47.3761 145.335 47.3173C145.241 47.0764 145.171 46.7572 145.126 46.3597C145.098 45.9604 145.099 45.5242 145.129 45.0511C145.176 44.5762 145.26 44.1306 145.381 43.7144C145.432 43.5744 145.475 43.4354 145.51 43.2973C145.545 43.1592 145.562 43.0902 145.562 43.0902C145.553 43.0073 145.63 42.7974 145.793 42.4603C145.973 42.1213 146.167 41.7639 146.376 41.388C146.602 41.0103 146.789 40.7376 146.938 40.5698C147.039 40.4242 147.197 40.2638 147.412 40.0886C147.644 39.9115 147.847 39.7795 148.021 39.6927C148.196 39.6059 148.372 39.5273 148.548 39.4571C148.741 39.3849 148.962 39.3348 149.211 39.3068C149.442 39.2806 149.663 39.3059 149.873 39.3829C150.083 39.4598 150.293 39.6122 150.504 39.84C150.835 40.1044 151.035 40.3838 151.101 40.6782C151.183 40.9541 151.207 41.2449 151.175 41.5505C151.129 41.8911 151.051 42.1599 150.939 42.3571C150.825 42.5376 150.684 42.629 150.517 42.6311C150.349 42.6333 150.145 42.5306 149.903 42.3231C149.822 42.198 149.777 42.0941 149.768 42.0113C149.756 41.912 149.774 41.7675 149.819 41.5778C149.859 41.3385 149.832 41.0983 149.738 40.8574C149.644 40.6164 149.522 40.5044 149.373 40.5212C149.158 40.5455 148.929 40.672 148.686 40.9007C148.458 41.1109 148.228 41.3718 147.995 41.6833C147.894 41.8288 147.751 42.0546 147.568 42.3604C147.399 42.6479 147.234 42.9684 147.073 43.3221C146.909 43.6592 146.778 43.9843 146.68 44.2974C146.559 44.8645 146.46 45.3202 146.381 45.6645C146.319 46.0069 146.288 46.1782 146.288 46.1782C146.296 46.2444 146.32 46.3088 146.36 46.3713C146.416 46.4154 146.447 46.4705 146.455 46.5368C146.477 46.7355 146.611 46.8797 146.856 46.9695C147.051 47.0648 147.274 47.1068 147.524 47.0953C147.772 47.0672 148.069 46.9498 148.415 46.743C148.665 46.5806 148.894 46.3787 149.101 46.1372C149.326 45.8938 149.561 45.6744 149.807 45.4788C149.976 45.3423 150.106 45.227 150.196 45.133C150.302 45.0371 150.359 45.0223 150.367 45.0885C150.374 45.1548 150.403 45.1851 150.453 45.1795C150.502 45.1739 150.556 45.1342 150.615 45.0605C150.7 44.9168 150.798 44.8218 150.91 44.7756C151.02 44.7128 151.118 44.685 151.203 44.6922C151.302 44.681 151.354 44.7002 151.36 44.7499C151.344 44.9027 151.391 45.0232 151.501 45.1113C151.509 45.1776 151.494 45.2715 151.458 45.393C151.436 45.4961 151.396 45.5845 151.337 45.6583C151.267 45.7835 151.158 45.9301 151.009 46.0978C150.877 46.2637 150.751 46.4121 150.632 46.543C150.51 46.6573 150.45 46.7145 150.45 46.7145C150.382 46.7054 150.317 46.7294 150.257 46.7866C150.213 46.8419 150.161 46.9064 150.102 46.9802C149.983 47.111 149.869 47.2162 149.761 47.2955C149.65 47.3583 149.562 47.3934 149.496 47.4009C149.387 47.4802 149.301 47.5319 149.237 47.556C149.189 47.5781 149.169 47.6223 149.176 47.6886C149.029 47.8729 148.835 48.0122 148.594 48.1065C148.368 48.1824 148.023 48.2465 147.559 48.2989ZM156.101 49.1708C155.545 49.1497 155.149 48.9848 154.913 48.676C154.695 48.3819 154.598 47.898 154.623 47.2243C154.687 46.8984 154.713 46.6103 154.702 46.36C154.705 46.0913 154.761 45.9173 154.869 45.838C154.869 45.838 154.874 45.8122 154.885 45.7606C154.913 45.7072 154.899 45.6584 154.844 45.6144C154.819 45.3991 154.86 45.0926 154.966 44.6948C154.988 44.5917 155.016 44.4711 155.051 44.333C155.101 44.1765 155.125 44.0982 155.125 44.0982C155.028 43.9751 155.015 43.8674 155.089 43.7752C155.162 43.6831 155.237 43.5992 155.312 43.5236C155.402 43.4296 155.4 43.3376 155.306 43.2475C155.265 43.185 155.29 43.0313 155.38 42.7864C155.468 42.5248 155.571 42.2532 155.69 41.9714C155.809 41.6895 155.885 41.4713 155.918 41.3166C155.914 41.2835 155.943 41.1629 156.003 40.9548C156.063 40.7467 156.137 40.5036 156.223 40.2256C156.309 39.9475 156.389 39.6952 156.464 39.4687C156.556 39.2403 156.614 39.0911 156.64 39.0211C156.796 38.9196 156.724 38.8691 156.422 38.8697C156.12 38.8702 155.804 38.8975 155.475 38.9514C154.96 38.9929 154.543 39.0148 154.224 39.0172C153.923 39.0178 153.666 38.9713 153.454 38.8778C153.229 38.6684 153.136 38.5112 153.174 38.4062C153.227 38.2828 153.419 38.1941 153.748 38.1401C153.961 38.0993 154.126 38.0723 154.242 38.0592C154.374 38.0442 154.539 38.0172 154.736 37.9782C154.948 37.9208 155.274 37.842 155.716 37.7418L156.971 37.4993L156.998 37.0686C157.106 36.8383 157.192 36.6357 157.257 36.4607C157.335 36.2673 157.398 36.0758 157.443 35.8861C157.489 35.6965 157.517 35.5004 157.528 35.2979C157.528 35.2979 157.587 35.157 157.706 34.8752C157.824 34.5768 157.882 34.2767 157.882 33.9749C158.043 33.6212 158.183 33.3035 158.302 33.0216C158.419 32.7233 158.491 32.5391 158.517 32.4691C158.682 32.2995 158.798 32.2109 158.864 32.2034C158.947 32.1941 159.122 32.2582 159.389 32.3957C159.547 32.4617 159.691 32.5461 159.82 32.6489C159.949 32.7518 160.038 32.8676 160.086 32.9963C160.132 33.1085 160.095 33.23 159.976 33.3609C159.95 33.4309 159.915 33.5608 159.869 33.7504C159.821 33.9235 159.788 34.0699 159.768 34.1896C159.681 34.3167 159.579 34.5212 159.459 34.803C159.355 35.0664 159.293 35.3334 159.273 35.604C159.172 35.9005 159.077 36.1712 158.988 36.4162C158.896 36.6446 158.817 36.7625 158.751 36.77C158.803 36.9319 158.911 37.0034 159.077 36.9847C159.241 36.9495 159.512 36.902 159.891 36.8425C160.202 36.7738 160.414 36.7164 160.526 36.6701C160.653 36.6055 160.804 36.6052 160.979 36.6693C161.074 36.7759 161.156 36.9009 161.222 37.0443C161.289 37.1878 161.313 37.3276 161.295 37.4638C161.291 37.5816 161.234 37.6719 161.124 37.7347C161.041 37.7441 160.873 37.8134 160.619 37.9427C160.38 38.0536 160.071 38.1388 159.692 38.1984L158.389 38.4713L158.062 39.3636C157.971 39.592 157.894 39.802 157.832 39.9935C157.768 40.1685 157.721 40.2744 157.692 40.3112C157.703 40.4106 157.662 40.5662 157.568 40.778C157.491 40.988 157.408 41.2155 157.318 41.4604C157.251 41.7532 157.164 42.023 157.057 42.2698C156.968 42.5148 156.923 42.6372 156.923 42.6372C156.856 42.6447 156.829 42.6981 156.84 42.7975C156.945 42.9869 156.937 43.1387 156.816 43.2531C156.739 43.3121 156.673 43.3951 156.618 43.5019C156.578 43.5903 156.557 43.6345 156.557 43.6345C156.631 43.6933 156.649 43.7752 156.61 43.8802C156.588 43.9833 156.551 44.0965 156.498 44.2199C156.513 44.3524 156.493 44.5476 156.438 44.8053C156.4 45.0612 156.351 45.3015 156.293 45.5262C156.343 45.8224 156.381 46.011 156.407 46.0919C156.433 46.1729 156.478 46.2013 156.543 46.1773C156.627 46.1845 156.702 46.176 156.766 46.152C156.831 46.128 156.896 46.1122 156.962 46.1047C157.183 45.9792 157.124 46.5728 156.786 47.8857C156.568 48.3297 156.419 48.6484 156.34 48.8418C156.263 49.0517 156.184 49.1614 156.101 49.1708ZM164.441 46.8198C164.228 46.8607 164.052 46.8638 163.914 46.8291C163.774 46.7778 163.598 46.7054 163.386 46.6119C162.99 46.3715 162.685 46.1209 162.471 45.8599C162.272 45.5805 162.164 45.2991 162.149 45.0157C162.165 44.8629 162.15 44.7304 162.104 44.6182C162.074 44.5041 162.06 44.4471 162.06 44.4471C161.951 44.3755 161.912 44.3296 161.943 44.3093C161.973 44.2724 161.992 44.2199 162.001 44.1518C162.13 44.1037 162.136 44.0108 162.02 43.8729C161.955 43.7461 161.947 43.4452 161.993 42.9702C162.055 42.4768 162.154 42.0128 162.289 41.5782C162.351 41.3867 162.44 41.1335 162.556 40.8185C162.687 40.5017 162.836 40.183 163.001 39.8625C163.164 39.5254 163.318 39.2564 163.463 39.0555C163.781 38.6003 164.069 38.2574 164.328 38.0269C164.602 37.7779 164.914 37.5666 165.263 37.393C165.579 37.2231 165.811 37.1214 165.958 37.088C166.106 37.0546 166.324 37.1306 166.613 37.316C167.024 37.387 167.34 37.519 167.564 37.7118C167.801 37.8863 168.002 38.1822 168.167 38.5997C168.354 39.065 168.46 39.6317 168.485 40.2998C168.525 40.9494 168.338 41.8176 167.924 42.9042C167.682 43.5857 167.422 44.1098 167.145 44.4765C166.884 44.8414 166.559 45.2304 166.17 45.6434C165.885 45.9439 165.619 46.1836 165.371 46.3626C165.122 46.5416 164.813 46.694 164.441 46.8198ZM166.094 43.6392C166.37 43.1049 166.575 42.6205 166.71 42.1859C166.86 41.7328 166.957 41.1768 167 40.5178C167.012 40.3319 166.995 40.1074 166.949 39.8443C166.901 39.5646 166.83 39.3126 166.738 39.0882C166.662 38.862 166.573 38.7462 166.472 38.7408C166.247 38.6823 166.007 38.7095 165.752 38.8222C165.494 38.9184 165.227 39.1498 164.95 39.5166C164.705 39.8796 164.491 40.2813 164.306 40.7215C164.137 41.1598 163.99 41.6377 163.864 42.1551C163.738 42.6726 163.624 43.2222 163.522 43.804C163.427 44.452 163.49 44.9313 163.709 45.242C163.945 45.5508 164.278 45.5971 164.706 45.381C165.133 45.1483 165.596 44.5677 166.094 43.6392ZM171.08 45.3403C170.918 45.2412 170.798 45.1374 170.718 45.029C170.655 44.9187 170.63 44.6951 170.642 44.3583C170.64 43.8889 170.66 43.4757 170.704 43.1186C170.745 42.7449 170.798 42.3196 170.861 41.8428C170.872 41.6403 170.925 41.2905 171.02 40.7934C171.131 40.2944 171.271 39.7503 171.439 39.161C171.607 38.5717 171.779 38.0156 171.955 37.4926C172.129 36.953 172.285 36.5496 172.422 36.2825C172.544 36.1681 172.696 36.109 172.88 36.105C173.081 36.0991 173.255 36.1549 173.402 36.2724C173.601 36.4009 173.656 36.6631 173.567 37.0589C173.492 37.4364 173.309 38.0441 173.018 38.8821C172.87 39.3517 172.759 39.708 172.686 39.9511C172.611 40.1776 172.584 40.3148 172.606 40.3626C172.627 40.3938 172.698 40.3606 172.822 40.2628C172.9 40.0694 173.059 39.8418 173.298 39.58C173.535 39.3017 173.789 39.0297 174.061 38.7642C174.333 38.4987 174.591 38.2599 174.836 38.0478C175.08 37.8357 175.249 37.6992 175.343 37.6382C175.466 37.5405 175.608 37.4574 175.768 37.389C175.942 37.3022 176.061 37.2385 176.123 37.1979C176.484 36.9727 176.865 36.8625 177.269 36.8672C177.672 36.872 177.937 36.993 178.064 37.2302C178.096 37.3608 178.157 37.4546 178.247 37.5115C178.354 37.5665 178.407 37.594 178.407 37.594C178.474 37.5865 178.509 37.6076 178.515 37.6573C178.537 37.7051 178.548 37.7291 178.548 37.7291C178.561 37.845 178.479 37.9298 178.3 37.9835C178.137 38.0188 177.923 38.0596 177.66 38.1061C177.447 38.147 177.261 38.2099 177.103 38.2949C176.945 38.3798 176.755 38.4851 176.535 38.6106C175.946 39.0461 175.382 39.4704 174.842 39.8837C174.318 40.2951 173.824 40.8205 173.359 41.46C173.258 41.6056 173.16 41.776 173.065 41.9713C172.969 42.1666 172.868 42.3793 172.76 42.6096C172.686 42.7018 172.624 42.8933 172.573 43.1842C172.522 43.4751 172.478 43.7568 172.442 44.0292C172.42 44.2833 172.412 44.4351 172.418 44.4848C172.418 44.4848 172.402 44.5704 172.371 44.7416C172.339 44.8963 172.273 45.0547 172.173 45.2169C172.005 45.5043 171.854 45.6555 171.721 45.6704C171.589 45.6854 171.375 45.5754 171.08 45.3403Z" fill="#035771"/>
</svg>
