<svg width="260" height="56" viewBox="0 0 260 56" fill="none" xmlns="http://www.w3.org/2000/svg">
<path d="M76.2649 18.1953C76.8172 18.1914 77.2617 17.7405 77.2578 17.1882C77.2539 16.6359 76.803 16.1914 76.2507 16.1953L76.2649 18.1953ZM46.8948 40.9902C47.1004 41.5028 47.6826 41.7516 48.1952 41.546L56.5483 38.1954C57.0608 37.9898 57.3097 37.4075 57.1041 36.895C56.8985 36.3824 56.3162 36.1335 55.8037 36.3391L48.3787 39.3175L45.4004 31.8926C45.1948 31.38 44.6126 31.1312 44.1 31.3368C43.5874 31.5424 43.3385 32.1246 43.5442 32.6372L46.8948 40.9902ZM49.5954 33.9267L46.9034 40.2249L48.7425 41.0109L51.4344 34.7128L49.5954 33.9267ZM76.2507 16.1953C64.6297 16.2779 54.1628 23.2406 49.5954 33.9267L51.4344 34.7128C55.6892 24.7582 65.4395 18.2722 76.2649 18.1953L76.2507 16.1953Z" fill="#035771"/>
<path d="M91.0738 42.3239C90.6755 42.3101 90.3522 42.2891 90.1041 42.2611C89.861 42.2537 89.7394 42.2501 89.7394 42.2501C89.756 42.1364 89.7128 42.0481 89.6098 41.9851C89.5276 41.9171 89.37 41.9002 89.1368 41.9343C88.7808 41.8226 88.433 41.6539 88.0935 41.4284C87.7797 41.2187 87.5074 40.999 87.2765 40.7693C87.0457 40.5396 86.8664 40.3414 86.7385 40.1747C86.5184 39.8985 86.4009 39.7293 86.3859 39.6671C86.3867 39.5792 86.4887 39.4559 86.6918 39.2973C86.8801 39.0764 87.0335 38.9846 87.1522 39.0219C87.2916 39.0542 87.4867 39.2266 87.7375 39.5393C88.122 39.9514 88.6656 40.2046 89.3685 40.2987C90.0921 40.3879 90.8559 40.3247 91.6598 40.1093C92.4795 39.8681 93.2227 39.4917 93.8895 38.9802C94.582 38.4843 94.9817 38.048 95.0885 37.6713C95.211 37.2687 95.0311 36.8403 94.5487 36.3859C94.4466 36.2349 94.3415 36.1176 94.2336 36.0338C94.1257 35.9501 93.9584 35.8477 93.7318 35.7267C93.5259 35.6008 93.181 35.3985 92.6971 35.12C92.351 35.0497 92.0282 34.9848 91.7286 34.9252C91.4498 34.8607 91.1477 34.7908 90.8224 34.7155C90.4506 34.6294 89.9887 34.4883 89.4368 34.292C88.9006 34.0699 88.3777 33.8118 87.868 33.5176C87.3584 33.2233 86.9702 32.9327 86.7037 32.6458C86.297 32.4146 85.9457 32.0493 85.65 31.55C85.3493 31.0299 85.1448 30.4537 85.0365 29.8215C84.9282 29.1893 84.949 28.5919 85.0988 28.0292C85.1534 27.7088 85.2759 27.3063 85.4665 26.8216C85.6727 26.3112 85.9101 25.7932 86.1786 25.2678C86.4471 24.7424 86.7153 24.261 86.983 23.8235C87.2507 23.386 87.4812 23.0673 87.6744 22.8672C87.8004 22.6613 87.9368 22.4529 88.0835 22.2421C88.2252 22.0105 88.2961 21.8947 88.2961 21.8947C88.2919 21.786 88.3105 21.7266 88.352 21.7167C88.4142 21.7017 88.4453 21.6942 88.4453 21.6942C88.5341 21.607 88.7372 21.4484 89.0549 21.2183C89.3726 20.9883 89.6914 20.6263 90.0113 20.1324C91.2412 19.1342 92.2543 18.3747 93.0506 17.8539C93.8468 17.3331 94.5249 17.0054 95.0849 16.8706C95.6084 16.7665 96.1051 16.7786 96.5748 16.9069C97.0603 17.0095 97.4803 17.2047 97.8348 17.4924C98.21 17.7751 98.4887 18.1578 98.6707 18.6406C98.9357 19.1035 99.034 19.6942 98.9656 20.4128C98.8922 21.1107 98.6972 21.8049 98.3807 22.4955C98.0799 23.1604 97.7052 23.7004 97.2566 24.1155C96.7357 24.5042 96.3691 24.7131 96.1567 24.7423C95.9601 24.7458 95.8247 24.548 95.7506 24.1489C95.7106 23.983 95.7151 23.7734 95.7638 23.5203C95.8334 23.2622 96.0575 22.7804 96.4363 22.0748C96.8654 20.9403 97.0826 20.0651 97.088 19.4494C97.0934 18.8337 96.8812 18.5447 96.4514 18.5823C96.317 18.5708 96.0888 18.6257 95.767 18.7471C95.4658 18.8634 95.1282 19.0105 94.7541 19.1883C94.3957 19.3404 94.0917 19.4904 93.8421 19.6382C93.5874 19.7654 93.4651 19.8497 93.4751 19.8912C93.4751 19.8912 93.4825 19.9223 93.4975 19.9845C93.5125 20.0467 93.476 20.0774 93.3881 20.0767C93.3466 20.0866 93.1902 20.212 92.9191 20.4529C92.6479 20.6937 92.327 21.0013 91.9563 21.3758C91.5856 21.7502 91.215 22.1247 90.8443 22.4992C90.4736 22.8736 90.1577 23.202 89.8965 23.4843C89.6511 23.7409 89.523 23.8924 89.5122 23.9389C89.5256 24.177 89.337 24.4418 88.9464 24.7333C88.5915 25.0821 88.2951 25.5374 88.0574 26.0993C87.8403 26.6562 87.6093 27.3372 87.3642 28.1422C87.1264 28.7041 87.0023 29.2826 86.9919 29.8775C86.9765 30.4517 87.0814 30.8873 87.3064 31.1842C87.49 31.4911 87.9138 31.8389 88.5779 32.2276C89.242 32.6164 90.0358 32.9519 90.9596 33.2343C91.7596 33.4586 92.4871 33.7004 93.1419 33.9597C93.7918 34.1983 94.3354 34.4514 94.7729 34.7191C95.2311 34.9819 95.5549 35.2331 95.7442 35.4728C96.078 35.7655 96.3417 36.086 96.5352 36.4344C96.7445 36.757 96.8891 37.0843 96.969 37.4161C97.0696 37.743 97.1109 38.0512 97.0928 38.3408C97.0275 38.7076 96.8506 39.1123 96.5621 39.5547C96.2944 39.9922 96.0336 40.2305 95.7797 40.2697C95.5665 40.3868 95.4077 40.5018 95.3032 40.6147C95.2195 40.7227 95.1125 40.8252 94.9823 40.9224C94.8571 41.0403 94.5659 41.1981 94.1089 41.3959C93.6725 41.5887 93.1769 41.7629 92.6218 41.9184C92.0718 42.0947 91.5558 42.2298 91.0738 42.3239ZM104.052 37.3242C103.813 37.3376 103.548 37.281 103.254 37.1542C102.976 37.0017 102.713 36.8235 102.467 36.6195C102.236 36.3898 102.064 36.1788 101.952 35.9863C101.942 35.9448 101.899 35.9005 101.821 35.8532C101.765 35.801 101.737 35.7749 101.737 35.7749C101.639 35.7326 101.522 35.4755 101.387 35.0034C101.267 34.5056 101.166 33.9485 101.083 33.332C101 32.7156 100.958 32.2211 100.956 31.8485C100.98 31.4917 101.028 31.0083 101.101 30.3984C101.169 29.7677 101.22 29.2067 101.256 28.7155L101.661 26.7088L100.334 26.6661C100.179 26.6596 100.035 26.6066 99.9011 26.5071C99.7882 26.4026 99.7218 26.3089 99.7018 26.2259C99.6619 26.06 99.7078 25.8405 99.8395 25.5674C99.9663 25.2736 100.071 25.1167 100.154 25.0967C100.263 25.0925 100.452 25.058 100.722 24.9931C101.012 24.9232 101.29 24.8454 101.554 24.7598C101.819 24.6741 101.98 24.6135 102.037 24.5777C102.11 24.5163 102.18 24.4445 102.248 24.3623C102.311 24.2594 102.346 24.1303 102.353 23.9751C102.402 23.722 102.445 23.4921 102.483 23.2855C102.516 23.0581 102.575 22.8025 102.66 22.5187C102.741 22.2141 102.8 21.9585 102.838 21.7519C102.897 21.5402 102.99 21.2435 103.117 20.8617C103.186 20.6916 103.258 20.4878 103.332 20.2505C103.407 20.0131 103.52 19.7994 103.672 19.6093C103.818 19.3984 103.988 19.2809 104.179 19.2567C104.387 19.2068 104.678 19.2792 105.054 19.4739C105.27 19.6414 105.401 19.7745 105.447 19.8732C105.492 19.9719 105.457 20.1889 105.34 20.5242C105.259 20.9168 105.147 21.3168 105.004 21.7243C104.881 22.1268 104.769 22.5269 104.667 22.9244C104.445 23.4606 104.445 23.7348 104.668 23.7471C104.89 23.7594 105.461 23.5781 106.38 23.2033C106.956 22.9548 107.399 22.8811 107.709 22.9821C108.014 23.0624 108.229 23.2739 108.355 23.6165C108.537 24.0993 108.558 24.4125 108.417 24.5562C108.276 24.6998 107.812 24.8665 107.023 25.0562C106.546 25.259 106.133 25.4132 105.785 25.5188C105.433 25.6036 105.173 25.666 105.007 25.706C104.743 25.7916 104.569 25.8444 104.486 25.8644C104.403 25.8843 104.284 25.935 104.128 26.0165C103.972 26.0979 103.865 26.2004 103.807 26.3241C103.764 26.422 103.722 26.564 103.679 26.7498C103.616 26.8528 103.544 27.1005 103.463 27.4931C103.382 27.8856 103.267 28.3192 103.118 28.7939C103.037 29.735 102.998 30.666 103 31.587C102.997 32.4873 103.031 33.3569 103.101 34.1958C103.143 34.7343 103.241 35.0947 103.394 35.2772C103.543 35.4389 103.84 35.4881 104.286 35.4247C104.519 35.3905 104.882 35.3032 105.375 35.1626C105.883 34.9963 106.273 34.8368 106.543 34.6839C106.746 34.5253 106.96 34.3642 107.184 34.2006C107.403 34.0162 107.601 33.8369 107.778 33.6625C107.94 33.5139 108.102 33.3652 108.263 33.2166C108.42 33.0472 108.498 32.9625 108.498 32.9625C108.562 32.7716 108.664 32.6923 108.803 32.7246C108.943 32.7569 109.084 32.8875 109.227 33.1164C109.287 33.3653 109.297 33.637 109.258 33.9316C109.22 34.2262 108.913 34.6401 108.339 35.1731C107.546 35.9785 106.77 36.5383 106.012 36.8525C105.269 37.1409 104.616 37.2981 104.052 37.3242ZM117.159 33.2477C116.814 33.7259 116.358 34.066 115.792 34.268C115.247 34.465 114.678 34.5143 114.083 34.416C113.484 34.2969 112.948 34.0309 112.476 33.618C112.014 33.2465 111.661 32.7829 111.417 32.2271C111.169 31.6506 110.971 30.8753 110.824 29.9012C110.692 29.0774 110.757 28.2061 111.018 27.2873C111.275 26.3479 111.647 25.4793 112.135 24.6816C112.644 23.8788 113.19 23.2756 113.773 22.872C114.035 22.5897 114.271 22.434 114.484 22.4048C114.712 22.3499 115.059 22.2883 115.525 22.2199C116.017 22.1673 116.393 22.1758 116.651 22.2453C116.929 22.3099 117.166 22.4284 117.362 22.6008C117.748 22.8371 118.03 23.0983 118.208 23.3844C118.382 23.6498 118.504 23.9277 118.574 24.2181C118.601 24.6944 118.424 25.3293 118.045 26.1228C117.681 26.8905 117.124 27.5842 116.373 28.2037C115.952 28.4587 115.469 28.6407 114.925 28.7498C114.381 28.8588 113.902 28.8313 113.49 28.6673C113.056 28.5962 112.804 28.6897 112.734 28.9478C112.66 29.1852 112.671 29.7312 112.767 30.5858C112.873 31.3939 113.075 31.9597 113.373 32.2831C113.665 32.5858 113.995 32.7258 114.362 32.7032C114.797 32.6863 115.134 32.6711 115.372 32.6577C115.626 32.6185 115.904 32.4528 116.207 32.1605C116.488 31.8733 116.668 31.7093 116.746 31.6685C116.819 31.6071 116.872 31.5506 116.903 31.4992C116.95 31.422 117.053 31.2547 117.21 30.9974C117.32 30.8172 117.41 30.6861 117.478 30.6039C117.541 30.501 117.624 30.437 117.728 30.412C117.831 30.3871 117.937 30.4165 118.045 30.5002C118.148 30.5632 118.246 30.6055 118.339 30.627C118.546 30.5771 118.618 30.6915 118.553 30.9704C118.509 31.2442 118.364 31.5974 118.117 32.0298C117.865 32.4416 117.546 32.8475 117.159 33.2477ZM115.541 26.6596C115.744 26.501 115.948 26.2984 116.152 26.0518C116.351 25.7845 116.505 25.5168 116.617 25.2487C116.743 24.9549 116.787 24.725 116.747 24.5591C116.677 24.2687 116.485 24.0626 116.17 23.9408C115.851 23.7983 115.439 23.8646 114.934 24.1396C114.721 24.2567 114.499 24.4746 114.269 24.7934C114.033 25.0915 113.816 25.4181 113.616 25.7734C113.437 26.1237 113.292 26.4329 113.181 26.7009C113.091 26.964 113.071 27.1113 113.123 27.1428C113.21 27.2316 113.406 27.2721 113.712 27.2644C114.012 27.236 114.336 27.169 114.683 27.0634C115.052 26.9528 115.338 26.8182 115.541 26.6596ZM123.498 38.634C123.289 38.8599 123.027 38.9119 122.713 38.7901C122.419 38.6633 122.165 38.4283 121.951 38.0849C121.736 37.7415 121.652 37.3449 121.697 36.8952C121.709 36.7607 121.721 36.5383 121.734 36.228C121.752 35.9384 121.747 35.6874 121.717 35.475C121.703 35.3248 121.705 35.0609 121.724 34.6834C121.748 34.3266 121.782 33.9673 121.827 33.6054C121.892 33.2386 121.949 32.9727 121.997 32.8075C122.071 32.5702 122.097 32.3117 122.074 32.032C122.071 31.7474 122.052 31.5325 122.017 31.3873C122.024 31.2322 122.036 31.0538 122.053 30.8521C122.091 30.6455 122.139 30.4803 122.197 30.3567C122.199 30.1807 122.218 29.9895 122.256 29.7828C122.289 29.5555 122.34 29.3567 122.409 29.1865C122.416 29.0314 122.404 28.8476 122.375 28.6352C122.367 28.4178 122.401 28.2887 122.479 28.248C122.48 28.1601 122.471 28.0746 122.451 27.9916C122.451 27.9037 122.465 27.7796 122.493 27.6195C122.479 27.3813 122.493 27.027 122.533 26.5565C122.573 26.086 122.635 25.5665 122.718 24.9981C122.801 24.3417 122.767 23.7463 122.617 23.2121C122.482 22.652 122.244 22.3473 121.903 22.2977C121.717 22.2547 121.586 22.1656 121.51 22.0304C121.428 21.8744 121.409 21.7035 121.452 21.5176C121.495 21.3317 121.592 21.1877 121.743 21.0855C121.91 20.9576 122.099 20.8791 122.312 20.8499C122.545 20.8157 122.752 20.8098 122.933 20.8321C123.109 20.8336 123.191 20.8576 123.18 20.9041C123.205 21.0078 123.272 21.0575 123.381 21.0533C123.407 20.9811 123.508 21.0337 123.682 21.2112C123.872 21.3629 124.059 21.5483 124.244 21.7672C124.428 21.9861 124.533 22.1475 124.558 22.2512C124.536 22.3441 124.528 22.401 124.533 22.4217C124.533 22.4217 124.575 22.4117 124.657 22.3917C124.657 22.3917 124.759 22.3124 124.962 22.1538C125.16 21.9745 125.367 21.7822 125.58 21.5771C125.81 21.3463 125.957 21.1794 126.02 21.0765C126.02 21.0765 126.066 21.0433 126.16 20.9768C126.27 20.8847 126.356 20.7871 126.419 20.6842C126.794 20.4184 127.232 20.28 127.734 20.2689C128.257 20.2527 128.696 20.3446 129.051 20.5443C129.591 20.963 129.918 21.4109 130.033 21.8879C130.168 22.36 130.178 22.9939 130.063 23.7897C130.046 23.9034 129.995 24.1022 129.91 24.386C129.84 24.6441 129.768 24.8918 129.694 25.1292C129.614 25.3458 129.575 25.4541 129.575 25.4541C129.277 26.3156 128.867 27.0727 128.344 27.7252C127.821 28.3777 127.272 28.9705 126.698 29.5036C126.526 29.6987 126.336 29.8652 126.127 30.0031C125.935 30.1153 125.758 30.2017 125.597 30.2623C125.431 30.3023 125.312 30.309 125.24 30.2825C124.972 30.1715 124.68 29.8688 124.363 29.3745C124.324 29.6691 124.286 29.9636 124.247 30.2582C124.224 30.5271 124.212 30.7055 124.211 30.7935C124.225 30.9436 124.235 31.0731 124.239 31.1818C124.238 31.2697 124.204 31.3548 124.136 31.437C124.136 31.437 124.135 31.481 124.134 31.5689C124.134 31.6569 124.091 31.7988 124.007 31.9947C123.944 32.6461 123.882 33.2096 123.821 33.6851C123.765 34.1813 123.722 34.5975 123.694 34.9335C123.67 35.2903 123.657 35.6007 123.654 35.8646C123.748 36.4345 123.766 37.0116 123.709 37.5958C123.657 38.2008 123.587 38.5468 123.498 38.634ZM125.066 28.8761C125.139 28.8147 125.288 28.6582 125.513 28.4066C125.753 28.1293 126.017 27.8134 126.305 27.4589C126.588 27.0837 126.844 26.7367 127.075 26.4179C127.326 26.0941 127.488 25.8575 127.562 25.7081C127.683 25.4815 127.791 25.247 127.887 25.0047C127.977 24.7416 128.031 24.4652 128.049 24.1756C128.071 23.9947 128.099 23.7906 128.132 23.5632C128.165 23.3358 128.19 23.1213 128.208 22.9197C128.251 22.7338 128.242 22.5604 128.181 22.3994C128.136 22.2127 128.037 22.0722 127.882 21.9777C127.794 21.9769 127.56 22.099 127.18 22.3441C126.795 22.5683 126.392 22.896 125.969 23.3269C125.541 23.7371 125.198 24.2256 124.939 24.7925C124.638 25.4573 124.457 26.1155 124.394 26.7669C124.352 27.4133 124.391 27.9414 124.512 28.3513C124.653 28.7561 124.838 28.9311 125.066 28.8761ZM148.307 27.2322C148.254 27.2886 148.171 27.3086 148.058 27.2921C147.949 27.2963 147.82 27.2615 147.67 27.1878C147.526 27.1347 147.366 27.0635 147.191 26.974C147.088 26.911 147.014 26.8301 146.968 26.7314C146.917 26.612 146.888 26.3996 146.881 26.0942C146.873 25.7889 146.854 25.2997 146.824 24.6268C146.807 24.192 146.8 23.7547 146.804 23.315C146.808 22.8752 146.819 22.5105 146.837 22.2209C146.85 21.9105 146.857 21.7554 146.857 21.7554C146.95 21.6889 147.021 21.3429 147.068 20.7172C147.135 20.0865 147.194 19.3264 147.243 18.4369C147.256 18.1265 147.284 17.6042 147.326 16.8698C147.369 16.1354 147.417 15.4218 147.469 14.7289C147.511 14.0825 147.537 13.5058 147.547 12.9988C147.551 12.471 147.554 12.2072 147.554 12.2072C147.554 12.2072 147.421 12.3379 147.154 12.5995C146.904 12.8353 146.586 13.1533 146.199 13.5535C145.808 13.933 145.434 14.341 145.078 14.7777C144.776 15.07 144.421 15.4627 144.013 15.9559C143.625 16.444 143.273 16.8471 142.954 17.1651C142.499 17.7355 142.217 18.0667 142.107 18.1589C141.993 18.2303 141.83 18.2367 141.618 18.1779C141.294 18.0146 141.049 17.821 140.886 17.5971C140.743 17.3682 140.709 17.135 140.783 16.8977C140.82 16.867 140.924 16.754 141.097 16.5589C141.29 16.3588 141.499 16.133 141.724 15.8814C141.948 15.6299 142.155 15.3937 142.343 15.1728C142.552 14.947 142.701 14.7905 142.79 14.7033C142.852 14.6883 142.948 14.5883 143.079 14.4031C143.21 14.218 143.354 14.0408 143.511 13.8714C143.585 13.722 143.88 13.3546 144.398 12.7693C144.915 12.184 145.472 11.5343 146.068 10.8203C146.721 10.1586 147.271 9.62011 147.72 9.20494C148.189 8.78477 148.468 8.57507 148.556 8.57584C148.618 8.56087 148.721 8.57988 148.866 8.6329C149.031 8.68091 149.191 8.75217 149.345 8.84667C149.499 8.94116 149.602 9.04813 149.653 9.16759C149.812 9.28282 149.83 9.62965 149.706 10.2081C149.668 10.4147 149.615 10.7894 149.548 11.3321C149.476 11.8541 149.404 12.464 149.33 13.1619C149.273 13.834 149.215 14.5062 149.157 15.1784C149.116 15.8248 149.085 16.3807 149.065 16.8463C149.054 17.5292 149.018 18.0644 148.958 18.4519C148.918 18.8345 148.876 19.2067 148.832 19.5685C148.803 19.9045 148.783 20.3701 148.773 20.965C148.708 21.3318 148.654 21.7944 148.613 22.3529C148.588 22.8856 148.573 23.4159 148.568 23.9436C148.559 24.4506 148.56 24.8671 148.573 25.1932C148.517 25.6895 148.479 26.1264 148.46 26.5039C148.442 26.8815 148.39 27.1242 148.307 27.2322Z" fill="#035771"/>
<path d="M134.685 52.4941C134.532 52.3395 134.247 52.2818 133.829 52.3209C133.427 52.3565 132.945 52.4522 132.382 52.608C132.161 52.6899 131.938 52.7211 131.712 52.7017C131.489 52.6986 131.299 52.6459 131.14 52.5438C131.002 52.4544 130.935 52.341 130.939 52.2036C130.913 52.0046 131.043 51.8147 131.327 51.6337C131.629 51.4493 132.128 51.2733 132.825 51.1056L134.115 50.8013L134.253 50.2598C134.28 50.0665 134.307 49.7964 134.334 49.4495C134.361 49.1026 134.392 48.7294 134.425 48.3301C134.44 48.088 134.471 47.7573 134.517 47.3382C134.563 46.919 134.612 46.4737 134.663 46.0022C134.715 45.5307 134.761 45.1115 134.801 44.7448C134.837 44.3617 134.856 44.0934 134.857 43.9397C134.891 43.779 134.927 43.5153 134.968 43.1486C135.004 42.7655 135.033 42.3843 135.053 42.0047C135.086 41.6054 135.101 41.3208 135.099 41.1508C135.244 39.7723 135.324 38.8002 135.338 38.2345C135.349 37.6524 135.32 37.3603 135.251 37.3581C135.186 37.3722 135.025 37.4155 134.768 37.4881C134.527 37.5572 134.255 37.6415 133.953 37.741C133.663 37.8206 133.399 37.9031 133.162 37.9885C132.941 38.0704 132.81 38.1329 132.768 38.176C132.711 38.3076 132.578 38.362 132.368 38.3391C132.159 38.3161 132.012 38.2285 131.928 38.0762C131.88 37.9331 131.847 37.8208 131.829 37.7393C131.828 37.6544 131.863 37.5786 131.934 37.5122C132.027 37.3898 132.224 37.2364 132.525 37.0519C132.822 36.8512 133.164 36.658 133.551 36.4722C133.953 36.283 134.336 36.1234 134.7 35.9936C134.97 35.9012 135.235 35.7843 135.494 35.643C135.75 35.4854 135.945 35.3239 136.08 35.1584C136.216 35.0778 136.346 35.0072 136.469 34.9464C136.609 34.8822 136.754 34.8423 136.904 34.827C137.052 34.8802 137.28 34.8735 137.59 34.8066C137.916 34.7362 138.256 34.6541 138.611 34.5604C139.506 34.2818 140.111 34.1254 140.428 34.0911C140.761 34.0533 141.009 34.1361 141.172 34.3395C141.32 34.6314 141.389 34.8723 141.379 35.062C141.366 35.2355 141.219 35.344 140.938 35.3875C140.799 35.4518 140.537 35.5425 140.153 35.6595C139.782 35.7568 139.386 35.8593 138.966 35.9671C137.83 36.3148 137.236 36.5626 137.183 36.7105C137.132 36.7897 137.089 36.8672 137.054 36.9429C137.035 37.0151 137.002 37.099 136.955 37.1945C136.985 37.2562 136.99 37.4768 136.97 37.8563C136.962 38.216 136.932 38.5891 136.879 38.9757C136.86 39.2015 136.827 39.524 136.781 39.9432C136.736 40.3623 136.685 40.7995 136.63 41.2547C136.588 41.6902 136.546 42.0912 136.506 42.458C136.463 42.8084 136.429 43.046 136.405 43.1706C136.371 43.3313 136.349 43.5065 136.339 43.6962C136.342 43.8662 136.344 43.9937 136.345 44.0786C136.289 44.9262 136.232 45.6462 136.172 46.2388C136.129 46.8279 136.08 47.3501 136.025 47.8053C135.983 48.2407 135.947 48.6663 135.917 49.0819C135.884 49.4812 135.852 49.923 135.82 50.4073C135.82 50.4073 135.94 50.3728 136.181 50.3037C136.435 50.2148 136.77 50.1083 137.186 49.9842C137.934 49.7373 138.469 49.5705 138.792 49.4838C139.13 49.3936 139.364 49.3688 139.492 49.4093C139.616 49.4335 139.719 49.5137 139.8 49.6497C140.22 50.0192 140.326 50.3117 140.117 50.5274C139.908 50.7432 139.345 50.9414 138.43 51.1222C137.59 51.3379 136.943 51.5031 136.491 51.6179C136.058 51.7456 135.757 51.8532 135.588 51.9408C135.436 52.0248 135.356 52.1274 135.348 52.2485C135.376 52.3788 135.325 52.4581 135.195 52.4862C135.064 52.5144 134.894 52.517 134.685 52.4941ZM150.226 47.1667C149.9 47.2371 149.617 47.23 149.377 47.1454C149.134 47.0446 148.904 46.8471 148.687 46.5529C148.572 46.339 148.461 46.0988 148.352 45.8324C148.256 45.5462 148.182 45.2809 148.129 45.0366C148.072 44.7759 148.06 44.5996 148.091 44.5076C148.142 44.4283 148.142 44.309 148.091 44.1496C148.052 43.9704 148.011 43.7831 147.969 43.5876C147.882 43.2653 147.762 43.1037 147.609 43.1028C147.468 43.0821 147.283 43.1732 147.054 43.3761C146.799 43.6187 146.469 43.9458 146.064 44.3574C145.655 44.7527 145.228 45.1858 144.784 45.6569C144.357 46.1244 143.957 46.6029 143.585 47.0925C143.312 47.5609 143.157 47.9098 143.121 48.1391C143.098 48.3487 143.022 48.4676 142.891 48.4957C142.775 48.5891 142.663 48.6218 142.554 48.5941C142.459 48.5465 142.316 48.4752 142.124 48.3801C141.982 48.2744 141.842 48.1768 141.703 48.0874C141.561 47.9817 141.467 47.8998 141.42 47.8417C141.402 47.7603 141.39 47.5839 141.382 47.3127C141.375 47.0415 141.376 46.7685 141.384 46.4938C141.41 46.2156 141.43 46.0322 141.445 45.9437C141.526 45.9261 141.574 45.8306 141.587 45.6571C141.617 45.4801 141.676 45.2798 141.764 45.0561C141.755 44.8536 141.78 44.5754 141.84 44.2214C141.912 43.8476 141.978 43.5181 142.035 43.2328C142.179 42.7925 142.263 42.4333 142.288 42.155C142.33 41.8732 142.325 41.5333 142.273 41.1353C142.242 41.0737 142.246 41.0131 142.285 40.9537C142.319 40.878 142.369 40.8331 142.435 40.819C142.537 40.6605 142.684 40.5945 142.878 40.6209C143.068 40.6311 143.257 40.7181 143.446 40.8819C143.823 41.2095 144.025 41.5921 144.052 42.0298C144.091 42.4476 143.957 43.0904 143.65 43.9581C143.592 44.2434 143.547 44.4664 143.513 44.6271C143.492 44.768 143.491 44.8792 143.508 44.9606C143.508 44.9606 143.578 44.886 143.716 44.7368C143.87 44.584 144.038 44.4114 144.218 44.2191C144.411 44.0069 144.564 43.846 144.676 43.7364C144.74 43.6373 144.896 43.4502 145.143 43.1751C145.391 42.8999 145.656 42.6294 145.94 42.3635C146.236 42.0778 146.462 41.9011 146.618 41.8333C146.734 41.74 146.861 41.6531 146.997 41.5725C147.129 41.4757 147.228 41.4202 147.293 41.4061C147.423 41.378 147.602 41.4161 147.829 41.5205C148.069 41.605 148.3 41.7257 148.521 41.8825C148.739 42.0229 148.879 42.1548 148.939 42.2781C148.954 42.3433 148.968 42.4084 148.982 42.4736C149.012 42.5352 149.042 42.5969 149.073 42.6585C149.184 42.8562 149.278 43.1343 149.355 43.4927C149.449 43.8475 149.511 44.1751 149.542 44.4754C149.573 44.7757 149.553 44.959 149.482 45.0255C149.482 45.0255 149.487 45.05 149.498 45.0988C149.521 45.1279 149.565 45.1354 149.631 45.1213C149.645 45.1865 149.653 45.2272 149.657 45.2435C149.575 45.2611 149.559 45.3414 149.607 45.4845C149.651 45.6113 149.732 45.7474 149.848 45.8927C149.981 46.0345 150.107 46.1437 150.226 46.2203C150.464 46.3736 150.586 46.5433 150.592 46.7295C150.594 46.8995 150.473 47.0452 150.226 47.1667ZM155.093 47.0613C154.693 47.1819 154.297 47.2419 153.905 47.2415C153.529 47.2374 153.189 47.1658 152.886 47.0267C152.596 46.8677 152.371 46.6521 152.209 46.38C152.046 46.1766 151.956 46.0342 151.938 45.9527C151.917 45.855 151.956 45.7612 152.056 45.6714C152.187 45.6432 152.309 45.6593 152.425 45.7196C152.553 45.7602 152.715 45.8018 152.912 45.8445C153.202 46.0035 153.52 46.0542 153.866 45.9966C154.228 45.9354 154.541 45.808 154.806 45.6143C155.071 45.4206 155.199 45.2225 155.189 45.02C155.175 44.9548 155.126 44.8461 155.042 44.6937C154.958 44.5414 154.864 44.3826 154.76 44.2175C154.187 43.6935 153.729 43.153 153.387 42.596C153.058 42.0192 152.851 41.5353 152.766 41.1443C152.703 40.8511 152.726 40.5222 152.834 40.1577C152.94 39.7769 153.122 39.439 153.383 39.144C153.609 38.7711 153.875 38.4238 154.181 38.102C154.486 37.7802 154.799 37.491 155.118 37.2344C155.454 36.9742 155.76 36.7717 156.036 36.6269C156.215 36.5882 156.457 36.5616 156.76 36.5471C157.064 36.5326 157.28 36.5456 157.408 36.5861C157.602 36.6126 157.811 36.7548 158.038 37.0129C158.26 37.2546 158.402 37.5139 158.461 37.7909C158.486 37.9049 158.485 38.0586 158.459 38.2519C158.432 38.4451 158.372 38.6798 158.278 38.9558C158.252 39.1491 158.216 39.336 158.169 39.5165C158.12 39.6807 158.102 39.7954 158.116 39.8606C158.073 40.0574 157.978 40.1716 157.832 40.2033C157.698 40.2152 157.544 40.1718 157.369 40.0731C157.207 39.9547 157.064 39.8065 156.94 39.6286C156.822 39.3983 156.756 39.2081 156.74 39.058C156.721 38.8916 156.75 38.7064 156.825 38.5026C156.965 38.2847 157.029 38.1431 157.014 38.078C157 38.0128 156.904 37.9996 156.725 38.0383C156.61 38.0629 156.415 38.182 156.137 38.3955C155.872 38.5892 155.593 38.837 155.3 39.139C155.02 39.4212 154.784 39.7109 154.592 40.008C154.346 40.3681 154.205 40.6204 154.168 40.7648C154.147 40.9057 154.167 41.1146 154.226 41.3915C154.276 41.6196 154.386 41.8941 154.558 42.2151C154.746 42.5326 154.909 42.736 155.048 42.8254C155.048 42.8254 155.129 42.9271 155.293 43.1306C155.452 43.3177 155.64 43.5159 155.856 43.725C156.554 44.6655 156.838 45.3885 156.708 45.8939C156.579 46.3994 156.04 46.7885 155.093 47.0613ZM163.611 46.73C163.056 46.7647 162.645 46.6402 162.379 46.3566C162.133 46.0858 161.989 45.6141 161.946 44.9413C161.977 44.6107 161.974 44.3214 161.937 44.0735C161.913 43.8058 161.952 43.6271 162.052 43.5373C162.052 43.5373 162.054 43.5111 162.06 43.4587C162.082 43.4028 162.063 43.3557 162.004 43.3174C161.958 43.1056 161.968 42.7965 162.034 42.3901C162.045 42.2854 162.061 42.1625 162.082 42.0216C162.116 41.8609 162.132 41.7806 162.132 41.7806C162.023 41.6679 162 41.562 162.064 41.4629C162.128 41.3639 162.193 41.273 162.261 41.1902C162.341 41.0876 162.329 40.9963 162.227 40.9161C162.18 40.858 162.189 40.7026 162.254 40.4499C162.315 40.1809 162.391 39.9002 162.481 39.6079C162.572 39.3155 162.625 39.0908 162.643 38.9336C162.636 38.901 162.652 38.7782 162.691 38.5651C162.73 38.352 162.779 38.1028 162.836 37.8175C162.894 37.5323 162.949 37.2732 163.001 37.0403C163.069 36.8038 163.112 36.6495 163.131 36.5773C163.276 36.4607 163.199 36.4177 162.899 36.4485C162.598 36.4793 162.287 36.538 161.965 36.6247C161.456 36.7175 161.044 36.7811 160.727 36.8154C160.427 36.8462 160.167 36.8257 159.946 36.7539C159.702 36.568 159.593 36.421 159.621 36.3127C159.661 36.1846 159.843 36.0772 160.165 35.9905C160.373 35.9284 160.535 35.8851 160.649 35.8604C160.779 35.8323 160.94 35.7889 161.132 35.7304C161.337 35.6521 161.654 35.5409 162.083 35.397L163.308 35.03L163.292 34.5987C163.376 34.3588 163.442 34.1486 163.488 33.9681C163.547 33.7678 163.59 33.571 163.616 33.3777C163.643 33.1844 163.651 32.9865 163.641 32.784C163.641 32.784 163.686 32.6378 163.777 32.3455C163.864 32.0369 163.892 31.7324 163.861 31.4321C163.986 31.0641 164.094 30.7339 164.184 30.4416C164.271 30.1329 164.323 29.9425 164.342 29.8703C164.489 29.685 164.596 29.5853 164.661 29.5712C164.742 29.5536 164.923 29.5998 165.202 29.71C165.367 29.7597 165.518 29.8293 165.657 29.9187C165.795 30.0081 165.895 30.1144 165.956 30.2377C166.013 30.3447 165.989 30.4693 165.883 30.6115C165.865 30.6837 165.842 30.8165 165.816 31.0097C165.786 31.1867 165.767 31.3358 165.759 31.4568C165.686 31.592 165.604 31.8057 165.514 32.0981C165.436 32.3706 165.401 32.6424 165.409 32.9137C165.338 33.2188 165.27 33.4977 165.206 33.7504C165.137 33.9868 165.071 34.112 165.006 34.1261C165.073 34.282 165.189 34.3423 165.352 34.3071C165.511 34.2556 165.776 34.1813 166.147 34.084C166.45 33.9846 166.655 33.9062 166.762 33.849C166.881 33.772 167.032 33.7566 167.212 33.8028C167.318 33.8993 167.411 34.0155 167.492 34.1516C167.573 34.2876 167.611 34.4243 167.606 34.5617C167.615 34.6793 167.567 34.7748 167.464 34.8483C167.382 34.8659 167.222 34.9517 166.982 35.1058C166.755 35.24 166.456 35.3558 166.085 35.453L164.816 35.8551L164.581 36.7757C164.512 37.0121 164.457 37.2287 164.414 37.4255C164.368 37.606 164.332 37.716 164.306 37.7557C164.327 37.8534 164.302 38.0123 164.23 38.2325C164.175 38.4491 164.115 38.6837 164.05 38.9365C164.012 39.2345 163.953 39.5117 163.872 39.7679C163.807 40.0206 163.774 40.147 163.774 40.147C163.709 40.161 163.687 40.2169 163.708 40.3147C163.832 40.4926 163.839 40.6445 163.73 40.7704C163.659 40.8369 163.602 40.926 163.558 41.0378C163.526 41.1298 163.511 41.1758 163.511 41.1758C163.59 41.2269 163.616 41.3066 163.588 41.4149C163.577 41.5197 163.551 41.6362 163.51 41.7643C163.538 41.8946 163.538 42.0907 163.509 42.3527C163.497 42.6111 163.473 42.8551 163.437 43.0844C163.517 43.3741 163.574 43.558 163.607 43.6359C163.641 43.7138 163.689 43.7376 163.751 43.7073C163.836 43.7059 163.909 43.6901 163.971 43.6597C164.032 43.6294 164.096 43.6071 164.161 43.5931C164.368 43.446 164.369 44.0426 164.164 45.3828C163.991 45.8464 163.875 46.1783 163.816 46.3786C163.761 46.5952 163.692 46.7124 163.611 46.73ZM169.218 43.3187C169.125 43.2025 169.023 43.1223 168.911 43.0783C168.795 43.018 168.731 42.9552 168.717 42.8901C168.702 42.8249 168.68 42.7615 168.65 42.6999C168.632 42.6184 168.584 42.5521 168.505 42.501C168.402 42.4209 168.363 42.1992 168.387 41.836C168.407 41.4565 168.476 40.9896 168.595 40.4353C168.711 39.8647 168.862 39.2609 169.048 38.6238C169.15 38.4653 169.244 38.2661 169.328 38.0262C169.413 37.7863 169.481 37.6267 169.532 37.5474C169.518 37.4823 169.53 37.42 169.568 37.3605C169.603 37.2848 169.653 37.2399 169.718 37.2258L169.686 37.0792C169.669 36.9978 169.712 36.8434 169.816 36.6163C169.937 36.3856 170.087 36.1316 170.266 35.8542C170.441 35.5606 170.628 35.2815 170.826 35.0169C171.021 34.736 171.19 34.5291 171.332 34.3962C171.624 34.0942 171.945 33.88 172.293 33.7537C172.657 33.6239 172.992 33.6367 173.298 33.7922C173.358 33.8305 173.457 33.8943 173.596 33.9837C173.734 34.0731 173.893 34.1753 174.071 34.2902C174.262 34.3853 174.455 34.4886 174.65 34.6L175.728 35.2111L175.552 36.5279C175.481 37.2253 175.547 37.8078 175.751 38.2754C175.97 38.7395 176.225 39.1278 176.514 39.4405C176.634 39.6021 176.834 39.7379 177.114 39.848C177.409 39.9546 177.675 39.9996 177.91 39.9829C178.044 39.971 178.177 39.9935 178.308 40.0503C178.44 40.1071 178.525 40.2251 178.564 40.4043C178.599 40.5672 178.594 40.7046 178.55 40.8164C178.506 40.9282 178.406 41.018 178.251 41.0858C177.727 41.2671 177.194 41.2459 176.651 41.0222C176.125 40.7949 175.585 40.3489 175.032 39.684C174.946 39.6003 174.817 39.4405 174.647 39.2045C174.489 38.9486 174.394 38.7818 174.36 38.7038C174.312 38.7994 174.223 38.9805 174.094 39.2473C173.96 39.4978 173.855 39.6825 173.778 39.8013C172.875 41.2242 172.044 42.2308 171.285 42.8211C170.539 43.3916 169.85 43.5575 169.218 43.3187ZM169.802 41.7602C169.827 41.8743 169.998 41.8373 170.316 41.6494C170.646 41.4416 170.979 41.1308 171.316 40.717C171.768 40.1249 172.209 39.4839 172.64 38.7941C173.087 38.1007 173.429 37.4727 173.665 36.91L174.013 35.9142C173.769 35.5747 173.535 35.3609 173.311 35.2728C173.101 35.1649 172.93 35.125 172.8 35.1532C172.588 35.199 172.312 35.4631 171.973 35.9456C171.651 36.4246 171.323 37.0409 170.992 37.7946C170.66 38.5483 170.367 39.3619 170.112 40.2354C170.02 40.5964 169.942 40.9458 169.878 41.2834C169.828 41.6013 169.802 41.7602 169.802 41.7602ZM180.637 41.7722C180.346 41.9205 180.079 41.9099 179.838 41.7404C179.613 41.5673 179.436 41.2644 179.309 40.8316C179.181 40.3988 179.117 39.8669 179.118 39.236C179.157 39.0229 179.181 38.8215 179.192 38.6317C179.198 38.4257 179.189 38.2656 179.165 38.1516C179.162 37.9816 179.176 37.7314 179.207 37.4007C179.234 37.0538 179.268 36.6969 179.308 36.3302C179.348 35.9634 179.389 35.6392 179.43 35.3574C179.485 35.0558 179.521 34.8689 179.539 34.7967C179.605 34.7827 179.649 34.7133 179.674 34.5887C179.698 34.4641 179.698 34.3448 179.673 34.2308C179.645 34.1005 179.638 33.9486 179.651 33.7751C179.681 33.5981 179.722 33.47 179.773 33.3907C179.755 33.3093 179.752 33.2162 179.764 33.1114C179.788 32.9868 179.793 32.8919 179.779 32.8268C179.765 32.7616 179.767 32.6929 179.785 32.6207C179.82 32.545 179.831 32.4745 179.817 32.4094C179.885 32.173 179.959 31.8073 180.04 31.3125C180.133 30.7978 180.224 30.2325 180.313 29.6166C180.418 28.9971 180.508 28.3893 180.584 27.7932C180.66 27.1971 180.714 26.6993 180.747 26.3C180.793 25.8809 180.807 25.6306 180.79 25.5491C180.761 25.4188 180.773 25.314 180.824 25.2348C180.875 25.1555 180.966 25.1018 181.096 25.0737C181.134 25.0142 181.184 24.9693 181.246 24.939C181.324 24.9051 181.396 24.8811 181.461 24.867C181.461 24.867 181.5 24.8925 181.58 24.9436C181.659 24.9947 181.778 25.0713 181.936 25.1735C182.091 25.2594 182.193 25.3739 182.241 25.517C182.305 25.6565 182.358 25.8241 182.4 26.0196C182.446 26.2313 182.462 26.424 182.448 26.5974C182.435 26.7709 182.388 27.0282 182.308 27.3694C182.229 27.7106 182.104 28.2405 181.936 28.959C181.876 29.313 181.804 29.6524 181.721 29.9773C181.634 30.286 181.598 30.4728 181.612 30.538C181.626 30.6032 181.614 30.708 181.577 30.8524C181.557 30.9933 181.535 31.1685 181.512 31.378C181.475 31.5225 181.428 31.7373 181.37 32.0226C181.309 32.2916 181.245 32.5868 181.178 32.9082C181.123 33.2098 181.078 33.4752 181.043 33.7046C181.004 33.9177 180.987 34.0405 180.994 34.0731C181.009 34.1383 181.015 34.2052 181.012 34.2739C181.026 34.3391 181.008 34.4113 180.957 34.4905C180.892 34.5046 180.861 34.5623 180.866 34.6635C180.884 34.745 180.893 34.7857 180.893 34.7857C180.928 34.9486 180.891 35.4085 180.782 36.1653C180.714 37.1176 180.648 37.9931 180.582 38.7917C180.532 39.5869 180.556 40.2125 180.655 40.6686C180.739 41.0596 180.787 41.322 180.799 41.4559C180.808 41.5734 180.754 41.6789 180.637 41.7722ZM184.176 39.8056C183.992 39.7431 183.848 39.6717 183.746 39.5916C183.643 39.5114 183.572 39.3818 183.534 39.2026C183.481 38.9582 183.459 38.6986 183.468 38.4239C183.473 38.1329 183.48 37.85 183.489 37.5753C183.458 37.275 183.436 36.973 183.421 36.6692C183.419 36.3456 183.472 36.0359 183.578 35.74C183.624 35.0822 183.679 34.4309 183.744 33.7859C183.806 33.1246 183.84 32.4523 183.846 31.769C183.927 31.1204 184 30.5505 184.065 30.0592C184.142 29.548 184.233 28.9059 184.339 28.1328C184.398 27.6938 184.427 27.2357 184.426 26.7585C184.438 26.2614 184.517 25.8009 184.664 25.3769C184.73 25.2092 184.777 25.0712 184.805 24.9629C184.846 24.8347 184.888 24.7148 184.932 24.603C184.934 24.5343 184.974 24.483 185.052 24.4491C185.146 24.4117 185.254 24.3969 185.375 24.4049C185.496 24.4128 185.598 24.4505 185.681 24.5179C185.726 24.491 185.794 24.5276 185.884 24.6275C185.986 24.7077 186.084 24.8059 186.177 24.9221C186.271 25.0384 186.32 25.1471 186.325 25.2484C186.339 25.3135 186.342 25.4067 186.334 25.5277C186.342 25.6453 186.324 25.76 186.28 25.8718C186.229 25.951 186.185 26.0629 186.148 26.2073C186.124 26.3319 186.078 26.5124 186.009 26.7488C185.99 26.9747 185.98 27.2069 185.981 27.4455C185.978 27.6679 185.955 27.8774 185.912 28.0742C185.889 28.2838 185.848 28.4887 185.789 28.6891C185.746 28.8859 185.721 29.0448 185.713 29.1659C185.68 29.5652 185.621 29.9617 185.535 30.3553C185.466 30.7453 185.419 31.1563 185.393 31.5882C185.363 32.0038 185.337 32.4358 185.314 32.884C185.288 33.3159 185.21 33.742 185.079 34.1625C185.004 34.3663 184.972 34.612 184.983 34.8995C184.994 35.187 185.005 35.4745 185.016 35.762C184.981 36.0764 184.951 36.3727 184.926 36.6509C184.914 36.9093 184.915 37.0711 184.929 37.1363C184.908 37.5158 184.913 37.8901 184.941 38.259C184.983 38.6082 184.966 38.9271 184.892 39.216C184.911 39.3824 184.907 39.5197 184.879 39.628C184.851 39.7364 184.782 39.811 184.672 39.8519C184.557 39.8765 184.392 39.8611 184.176 39.8056ZM195.373 40.1228C195.343 40.2998 195.241 40.4158 195.065 40.4708C194.906 40.5223 194.665 40.4721 194.342 40.3201C194.104 40.1669 193.94 40.0403 193.851 39.9403C193.781 39.8531 193.774 39.6669 193.832 39.3816C193.893 39.1126 193.994 38.6305 194.133 37.9353C194.114 37.5303 194.144 37.1147 194.222 36.6885C194.297 36.246 194.358 35.9345 194.404 35.754C194.42 35.5119 194.469 35.109 194.552 34.5455C194.648 33.9621 194.755 33.3165 194.875 32.6085C195.011 31.8971 195.14 31.2298 195.261 30.6069C195.379 29.9676 195.463 29.489 195.514 29.1712C195.65 28.4597 195.787 27.7139 195.925 26.9337C196.064 26.1536 196.268 25.1632 196.537 23.9626C196.567 23.7856 196.562 23.6075 196.524 23.4283C196.501 23.2456 196.351 23.1842 196.075 23.244C195.873 23.1 195.745 22.9402 195.69 22.7645C195.631 22.5725 195.683 22.4165 195.844 22.2963L197.004 21.5086C197.731 21.1639 198.502 20.9461 199.318 20.8551C200.147 20.7442 200.96 20.7987 201.758 21.0185C202.638 21.3057 203.292 21.6503 203.72 22.0524C204.145 22.4381 204.408 22.8672 204.51 23.3396C204.628 23.8085 204.647 24.2904 204.567 24.7853C204.51 25.1555 204.339 25.5848 204.052 26.073C203.782 26.5577 203.446 27.0565 203.045 27.5694C202.661 28.0787 202.245 28.5608 201.798 29.0155C201.363 29.4504 200.945 29.805 200.544 30.0793C200.179 30.3628 199.792 30.6253 199.384 30.867C198.976 31.1086 198.551 31.3538 198.111 31.6025C197.864 31.724 197.562 31.8234 197.203 31.9009C196.845 31.9783 196.569 32.0038 196.376 31.9774L196.209 33.2156C196.172 33.8373 196.076 34.7705 195.918 36.0151C195.777 37.2562 195.596 38.6255 195.373 40.1228ZM205.133 38.2955C205.013 38.3725 204.862 38.4222 204.679 38.4447C204.513 38.4636 204.216 38.3913 203.788 38.2279C202.98 37.9592 202.152 37.601 201.305 37.1531C200.458 36.7052 199.476 36.0649 198.358 35.2322C197.928 34.8988 197.554 34.5875 197.235 34.2982C196.933 34.0054 196.585 33.5776 196.191 33.0149L195.563 31.7692L196.144 31.2601L197.214 31.9498C197.598 32.4636 198.05 32.9372 198.569 33.3705C199.106 33.8003 199.597 34.1801 200.043 34.5099C200.411 34.7887 200.899 35.1178 201.51 35.4974C202.117 35.8608 202.753 36.2007 203.418 36.5174C204.084 36.834 204.669 37.0571 205.174 37.1866C205.29 37.247 205.349 37.3621 205.351 37.5321C205.354 37.702 205.329 37.8609 205.275 38.0089C205.242 38.1696 205.194 38.2651 205.133 38.2955ZM196.864 30.5675C197.232 30.4539 197.652 30.2693 198.125 30.0136C198.595 29.7415 199.06 29.4451 199.519 29.1242C199.942 28.794 200.381 28.4179 200.835 27.9957C201.303 27.5537 201.722 27.088 202.094 26.5984C202.465 26.1089 202.744 25.6224 202.929 25.139C203.131 24.6521 203.17 24.2004 203.046 23.7839C203 23.5721 202.871 23.3698 202.659 23.1769C202.447 22.984 202.207 22.8226 201.94 22.6927C201.674 22.5628 201.427 22.4881 201.201 22.4687C200.515 22.4466 199.954 22.4569 199.52 22.4995C199.086 22.5422 198.767 22.6452 198.564 22.8085C198.357 22.9555 198.248 23.2007 198.237 23.5441C198.247 23.593 198.217 23.77 198.147 24.0751C198.076 24.3802 197.987 24.7575 197.88 25.207C197.789 25.653 197.703 26.1234 197.622 26.6183C197.357 27.6815 197.157 28.492 197.022 29.0499C196.883 29.5914 196.802 29.9669 196.78 30.1765C196.757 30.3861 196.785 30.5164 196.864 30.5675Z" fill="#035771"/>
</svg>
