<svg xmlns="http://www.w3.org/2000/svg" fill="none" xmlns:xlink="http://www.w3.org/1999/xlink" xml:space="preserve" version="1.1" style="shape-rendering:geometricPrecision;text-rendering:geometricPrecision;image-rendering:optimizeQuality;" width="382" height="79" viewBox="0 0 1200 250"  >
    <defs>
        <style type="text/css">
            .fil1 {fill: #3792AD;}
            .fil0 {fill: #8ACA25; fill-rule: nonzero;}
        </style>
    </defs>
    <g>
        <path class="fil1" d="M127 0c41,0 117,16 127,67 36,7 87,30 87,73 0,17 -9,32 -22,44l15 30c7,13 -6,26 -19,21l-53 -24c-16,3 -32,5 -48,5 -34,0 -66,-8 -88,-21 -21,-12 -35,-28 -39,-46 -2,0 -5,-1 -7,-2l-54 24c-12,6 -25,-7 -19,-20l16 -31c-13,-11 -23,-26 -23,-44 0,-57 85,-76 127,-76zm88 80c-33,-2 -112,16 -112,60 0,15 12,30 31,40 20,12 48,19 80,19 15,0 30,-1 45,-5 2,-1 6,0 8,1l50 22 -20 -38c13,-10 27,-21 27,-39 0,-44 -76,-60 -109,-60zm-88 -63c-30,0 -110,14 -110,59 0,19 14,30 27,39l-19 39c17,-8 45,-26 62,-22 8,-51 86,-69 128,-69 7,1 14,1 21,1 -15,-36 -77,-47 -109,-47z"/>
        <circle class="fil0" cx="161" cy="141" r="14"/>
        <circle class="fil0" cx="214" cy="141" r="14"/>
        <circle class="fil0" cx="266" cy="141" r="14"/>
    </g>
</svg>
