<svg width="382" height="79" viewBox="0 0 382 79" fill="none" xmlns="http://www.w3.org/2000/svg">
<path d="M110.426 41.214C110.079 38.0499 107.234 35.766 104.069 36.113C100.908 36.4592 98.6247 39.3049 98.9697 42.4684C99.316 45.6311 102.161 47.9132 105.324 47.5696C108.488 47.2225 110.771 44.3763 110.426 41.214Z" fill="#3792AD"/>
<path d="M120.06 21.33C120.773 19.7877 120.103 17.9612 118.562 17.246C117.021 16.5309 115.192 17.2004 114.477 18.7407C113.761 20.2831 114.432 22.1108 115.974 22.8272C117.514 23.5405 119.344 22.8703 120.06 21.33Z" fill="#3792AD"/>
<path d="M36.8949 37.8956C36.5187 34.4553 39.0054 31.3594 42.4443 30.9827C45.8846 30.6071 48.9805 33.0918 49.3567 36.5327C49.7334 39.973 47.2488 43.0683 43.8085 43.4457C40.3682 43.8226 37.2722 41.3359 36.8949 37.8956Z" fill="#8ACA25"/>
<path d="M38.2731 28.4464C38.1141 27.0061 36.8228 25.9691 35.3852 26.1279C33.9474 26.2862 32.9065 27.5782 33.0633 29.0152C33.2223 30.4562 34.515 31.4952 35.9546 31.3383C37.3943 31.1794 38.4313 29.8854 38.2731 28.4464Z" fill="#3792AD"/>
<path d="M99.29 53.5244C98.994 50.8085 96.5504 48.8463 93.8332 49.143C91.1182 49.4404 89.1558 51.884 89.4525 54.6017C89.7505 57.3176 92.1928 59.2784 94.9114 58.9797C97.6258 58.683 99.5881 56.2407 99.29 53.5244Z" fill="#3792AD"/>
<path d="M86.0356 59.9636C87.0323 57.816 86.0985 55.2657 83.9509 54.2691C81.8008 53.2724 79.2524 54.2062 78.2559 56.3558C77.2599 58.5027 78.1928 61.0537 80.3404 62.0503C82.4914 63.047 85.041 62.1132 86.0356 59.9636Z" fill="#3792AD"/>
<path d="M111.476 49.1209C111.339 47.8539 112.254 46.7137 113.522 46.574C114.79 46.4348 115.929 47.3513 116.067 48.6202C116.206 49.8851 115.292 51.0247 114.022 51.1652C112.756 51.3029 111.617 50.3878 111.476 49.1209Z" fill="#8ACA25"/>
<path d="M92.6547 34.0395C92.5156 32.7726 93.4308 31.631 94.6956 31.492C95.9658 31.3535 97.1048 32.2701 97.2452 33.5389C97.3849 34.8038 96.4671 35.9447 95.1997 36.0839C93.9307 36.2215 92.7925 35.3071 92.6547 34.0395Z" fill="#8ACA25"/>
<path d="M83.794 28.7722C83.5965 26.961 84.9044 25.3306 86.7143 25.1319C88.5268 24.9346 90.1567 26.2445 90.3533 28.0536C90.552 29.8662 89.2461 31.4945 87.4328 31.6912C85.6217 31.8899 83.9925 30.5821 83.794 28.7722Z" fill="#8ACA25"/>
<path d="M74.5896 25.375C73.1511 23.4897 73.5121 20.797 75.3942 19.3633C77.2768 17.923 79.9668 18.2832 81.4039 20.1645C82.8408 22.0487 82.4819 24.7405 80.5993 26.1776C78.7206 27.6147 76.0265 27.2538 74.5896 25.375Z" fill="#8ACA25"/>
<path d="M61.3952 21.0748C61.1291 18.6405 62.8852 16.4491 65.3217 16.183C67.7574 15.9168 69.9467 17.6743 70.2142 20.11C70.4804 22.5442 68.7242 24.7356 66.2865 24.9992C63.8516 25.2667 61.6616 23.5085 61.3952 21.0748Z" fill="#8ACA25"/>
<path d="M54.4699 30.657L54.7447 30.5603C57.5451 29.4894 59.026 26.3934 58.0412 23.6552C57.0889 21.0149 54.1903 19.6375 51.4402 20.5248L51.1766 20.6175C48.3754 21.6864 46.892 24.7836 47.88 27.522C48.8277 30.1728 51.723 31.5456 54.4699 30.657Z" fill="#8ACA25"/>
<path d="M26.978 48.7718C26.6602 45.8752 28.7528 43.2681 31.6488 42.9521C34.5472 42.6343 37.1531 44.7263 37.4698 47.6242C37.7856 50.5208 35.695 53.1267 32.7977 53.4425C29.8997 53.7604 27.2945 51.6691 26.978 48.7718Z" fill="#8ACA25"/>
<path d="M16.0778 51.7529C15.846 49.6556 17.3632 47.7644 19.4611 47.534C21.5623 47.3061 23.451 48.8232 23.6795 50.9212C23.9092 53.0218 22.3955 54.9092 20.2949 55.1396C18.1942 55.3688 16.3063 53.8536 16.0778 51.7529Z" fill="#8ACA25"/>
<path d="M30.6501 23.6106C30.4118 21.4359 28.4581 19.8684 26.2827 20.1056C24.1093 20.3433 22.5412 22.2988 22.7775 24.471C23.0167 26.6417 24.9715 28.2132 27.1449 27.9755C29.3178 27.7345 30.8885 25.7821 30.6501 23.6106Z" fill="#3792AD"/>
<path d="M19.6975 25.2494C19.4313 22.8051 17.2308 21.0403 14.7872 21.3071C12.3422 21.5755 10.5774 23.7739 10.8436 26.2176C11.1111 28.6625 13.3098 30.4314 15.7559 30.1625C18.2002 29.893 19.9645 27.6937 19.6975 25.2494Z" fill="#3792AD"/>
<path d="M116.133 28.9945C115.855 26.4483 113.564 24.6072 111.016 24.8861C108.469 25.1641 106.63 27.4582 106.906 30.0058C107.185 32.5514 109.477 34.3897 112.027 34.1116C114.572 33.8334 116.413 31.5415 116.133 28.9945Z" fill="#3792AD"/>
<path d="M74.7523 54.2131C74.5556 52.402 72.9266 51.096 71.1167 51.2947C69.3043 51.4913 67.9984 53.1198 68.195 54.9304C68.3937 56.7429 70.0207 58.0508 71.834 57.8521C73.6451 57.6534 74.951 56.0251 74.7523 54.2131Z" fill="#3792AD"/>
<path d="M65.066 49.2848C64.907 47.8338 63.6045 46.7922 62.1576 46.949C60.7086 47.1073 59.6609 48.4107 59.8192 49.8595C59.9788 51.3066 61.2814 52.3523 62.7297 52.1953C64.1799 52.0344 65.2249 50.7331 65.066 49.2848Z" fill="#3792AD"/>
<path d="M56.6986 42.7178C56.5794 41.6284 55.6014 40.8462 54.5146 40.9655C53.4285 41.084 52.6426 42.0602 52.763 43.1476C52.8828 44.2336 53.859 45.0183 54.9452 44.8998C56.0332 44.7819 56.8166 43.8011 56.6986 42.7178Z" fill="#3792AD"/>
<path d="M10.1675 33.2326C9.86016 30.4308 7.34179 28.4176 4.54572 28.7209C1.74796 29.0269 -0.276574 31.5439 0.0307845 34.3445C0.337296 37.1391 2.8538 39.1595 5.65309 38.8556C8.45289 38.545 10.4747 36.0312 10.1675 33.2326Z" fill="#3792AD"/>
<path d="M118.795 51.949C118.598 50.1378 119.906 48.5081 121.716 48.3094C123.528 48.1114 125.157 49.4218 125.355 51.2304C125.554 53.0437 124.247 54.672 122.434 54.8687C120.623 55.0674 118.994 53.7595 118.795 51.949Z" fill="#8ACA25"/>
</svg>
