<svg width="25" height="25" viewBox="0 0 25 25" fill="none" xmlns="http://www.w3.org/2000/svg">
<mask id="mask0_641_1020" style="mask-type:luminance" maskUnits="userSpaceOnUse" x="0" y="0" width="25" height="25">
<path fill-rule="evenodd" clip-rule="evenodd" d="M22.9537 0.315979H2.3769C1.43404 0.315979 0.667969 1.09276 0.667969 2.04634V22.5856C0.667969 23.5392 1.43404 24.316 2.3769 24.316H22.9537C23.8965 24.316 24.668 23.5392 24.668 22.5856V2.04634C24.668 1.09276 23.8965 0.315979 22.9537 0.315979ZM7.92154 20.8874H4.3644V9.43384H7.9269V20.8874H7.92154ZM6.14297 7.86955C5.0019 7.86955 4.08047 6.94276 4.08047 5.80705C4.08047 4.67134 5.0019 3.74455 6.14297 3.74455C7.27868 3.74455 8.20547 4.67134 8.20547 5.80705C8.20547 6.94812 7.28404 7.86955 6.14297 7.86955ZM21.2555 20.8874H17.6983V15.316C17.6983 13.9874 17.6715 12.2785 15.8501 12.2785C13.9965 12.2785 13.7126 13.7249 13.7126 15.2196V20.8874H10.1555V9.43384H13.568V10.9981H13.6162C14.093 10.0981 15.2555 9.14991 16.9858 9.14991C20.5858 9.14991 21.2555 11.5231 21.2555 14.6088V20.8874Z" fill="white"/>
</mask>
<g mask="url(#mask0_641_1020)">
<rect width="24" height="24" transform="translate(0.667969 0.315979)" fill="white"/>
<rect x="0.667969" y="0.315979" width="24" height="24" fill="white"/>
</g>
</svg>
