<svg width="25" height="25" viewBox="0 0 25 25" fill="none" xmlns="http://www.w3.org/2000/svg">
<path id="Vector" d="M24.6671 8.19575C24.6671 2.98944 21.0091 1.4629 21.0091 1.4629C17.4194 -0.0743524 7.88597 -0.0582835 4.33074 1.4629C4.33074 1.4629 0.672166 2.98944 0.672166 8.19575C0.672166 14.393 0.293217 22.09 6.73706 23.6808C9.063 24.2539 11.0617 24.3771 12.6699 24.2914C15.5872 24.1414 17.2242 23.3219 17.2242 23.3219L17.1266 21.3454C17.1266 21.3454 15.0418 21.956 12.6986 21.8864C10.3784 21.8114 7.93305 21.6507 7.55238 18.994C7.51708 18.7472 7.49982 18.4985 7.5007 18.2495C12.4173 19.369 16.6098 18.7369 17.7639 18.6084C20.9861 18.2495 23.7926 16.3962 24.1503 14.7036C24.713 12.0362 24.6671 8.19575 24.6671 8.19575ZM20.3539 14.9018H17.6766V8.78494C17.6766 6.12287 14.002 6.0211 14.002 9.15453V12.5022H11.3419V9.15399C11.3419 6.02057 7.66721 6.12233 7.66721 8.78441V14.9013H4.98414C4.98414 8.36126 4.68557 6.97934 6.04118 5.52779C7.52826 3.97982 10.6242 3.87805 12.0027 5.85452L12.6688 6.899L13.3348 5.85452C14.7191 3.86734 17.8202 3.99053 19.2963 5.52779C20.6577 6.99005 20.3528 8.36662 20.3528 14.9013L20.3539 14.9018Z" fill="white"/>
</svg>
