<svg width="25" height="25" viewBox="0 0 25 25" fill="none" xmlns="http://www.w3.org/2000/svg">
<mask id="mask0_641_1010" style="mask-type:luminance" maskUnits="userSpaceOnUse" x="0" y="2" width="25" height="21">
<path fill-rule="evenodd" clip-rule="evenodd" d="M22.2009 7.42767C22.2162 7.64086 22.2162 7.85409 22.2162 8.06728C22.2162 14.5698 17.267 22.0622 8.22127 22.0622C5.43445 22.0622 2.84564 21.255 0.667969 19.8541C1.06392 19.8997 1.44459 19.915 1.85578 19.915C4.15523 19.915 6.27202 19.1384 7.96238 17.8135C5.79994 17.7678 3.98775 16.3515 3.36337 14.4023C3.66797 14.4479 3.97252 14.4784 4.29234 14.4784C4.73395 14.4784 5.17561 14.4175 5.58675 14.3109C3.33295 13.854 1.64255 11.8744 1.64255 9.48351V9.42262C2.29734 9.78811 3.05883 10.0165 3.86588 10.0469C2.541 9.16368 1.67302 7.65609 1.67302 5.9505C1.67302 5.03681 1.91663 4.19925 2.34305 3.46828C4.76437 6.45304 8.40398 8.40225 12.4852 8.61548C12.409 8.25 12.3633 7.86932 12.3633 7.48861C12.3633 4.77792 14.5562 2.56982 17.2821 2.56982C18.6983 2.56982 19.9775 3.16373 20.876 4.12312C21.9877 3.90993 23.0536 3.49875 23.9978 2.93531C23.6323 4.07746 22.8557 5.03686 21.8354 5.64595C22.8253 5.5394 23.7847 5.26523 24.6679 4.88456C23.9979 5.85914 23.1603 6.72712 22.2009 7.42767Z" fill="white"/>
</mask>
<g mask="url(#mask0_641_1010)">
<rect width="24" height="24" transform="translate(0.667969 0.315979)" fill="white"/>
<rect x="0.667969" y="0.315979" width="24" height="24" fill="white"/>
</g>
</svg>
