<svg width="25" height="25" viewBox="0 0 25 25" fill="none" xmlns="http://www.w3.org/2000/svg">
<mask id="mask0_641_1014" style="mask-type:luminance" maskUnits="userSpaceOnUse" x="0" y="3" width="25" height="18">
<path fill-rule="evenodd" clip-rule="evenodd" d="M24.1273 6.5386C23.8523 5.50283 23.0418 4.6871 22.0127 4.41026C20.1475 3.90723 12.668 3.90723 12.668 3.90723C12.668 3.90723 5.18858 3.90723 3.32329 4.41026C2.29422 4.68714 1.48374 5.50283 1.20866 6.5386C0.708862 8.41599 0.708862 12.333 0.708862 12.333C0.708862 12.333 0.708862 16.25 1.20866 18.1274C1.48374 19.1631 2.29422 19.9449 3.32329 20.2217C5.18858 20.7247 12.668 20.7247 12.668 20.7247C12.668 20.7247 20.1474 20.7247 22.0127 20.2217C23.0418 19.9449 23.8523 19.1631 24.1273 18.1274C24.6271 16.25 24.6271 12.333 24.6271 12.333C24.6271 12.333 24.6271 8.41599 24.1273 6.5386ZM10.2218 15.8893V8.77664L16.4731 12.3331L10.2218 15.8893Z" fill="white"/>
</mask>
<g mask="url(#mask0_641_1014)">
<rect width="24" height="24" transform="translate(0.667969 0.315979)" fill="white"/>
<rect x="0.667969" y="0.315979" width="24" height="24" fill="white"/>
</g>
</svg>
